<svg width="1527" height="614" viewBox="0 0 1527 614" fill="none" xmlns="http://www.w3.org/2000/svg">
<path d="M109.173 18.159H65.9909V130.231H45.3146V18.159H1.94925V0H109.173V18.159Z" fill="white"/>
<path d="M180.756 131.148C170.387 131.148 161.604 129.375 154.407 125.829C147.332 122.283 141.599 117.452 137.207 111.338C132.938 105.224 129.766 98.254 127.693 90.4279C125.741 82.6019 124.765 74.4701 124.765 66.0326V0H145.258V66.0326C145.258 72.0244 145.868 77.8328 147.088 83.4578C148.308 88.9606 150.26 93.913 152.943 98.3152C155.627 102.717 159.225 106.202 163.739 108.77C168.374 111.338 174.047 112.622 180.756 112.622C187.587 112.622 193.259 111.338 197.772 108.77C202.408 106.08 206.006 102.534 208.568 98.1317C211.252 93.6073 213.203 88.5937 214.423 83.091C215.643 77.5883 216.253 71.9021 216.253 66.0326V0H236.929V66.0326C236.929 74.9592 235.832 83.3967 233.636 91.3451C231.562 99.1711 228.268 106.08 223.755 112.072C219.364 117.942 213.63 122.588 206.555 126.012C199.48 129.436 190.88 131.148 180.756 131.148Z" fill="white"/>
<path d="M373.421 130.231V37.4185L335.179 107.853H323.103L284.678 37.4185V130.231H264.184V0H286.141L329.141 79.6059L372.14 0H394.097V130.231H373.421Z" fill="white"/>
<path d="M4.81323 507.605C4.81323 499.657 6.21605 491.892 9.02168 484.311C11.8273 476.607 15.9138 469.637 21.2811 463.4C26.7704 457.042 33.4185 452.028 41.2255 448.36C49.0325 444.569 57.8763 442.673 67.7571 442.673C79.4675 442.673 89.5922 445.364 98.1311 450.744C106.67 456.002 113.013 462.789 117.161 471.104L101.059 481.926C98.6191 476.668 95.5085 472.51 91.727 469.453C88.0674 466.396 84.0419 464.256 79.6505 463.033C75.3811 461.811 71.1726 461.199 67.0252 461.199C60.194 461.199 54.2168 462.605 49.0935 465.418C43.9701 468.108 39.6397 471.716 36.1022 476.24C32.6866 480.764 30.064 485.839 28.2342 491.464C26.5264 497.089 25.6725 502.714 25.6725 508.339C25.6725 514.576 26.7094 520.629 28.7831 526.498C30.8569 532.245 33.7235 537.381 37.383 541.906C41.1645 546.308 45.6169 549.793 50.7403 552.361C55.8636 554.929 61.4749 556.213 67.5741 556.213C71.7215 556.213 76.052 555.479 80.5654 554.012C85.0788 552.544 89.2263 550.282 93.0078 547.225C96.9113 544.046 99.9609 539.888 102.157 534.752L119.173 544.474C116.49 550.955 112.281 556.457 106.548 560.982C100.937 565.506 94.5936 568.93 87.5185 571.254C80.5654 573.577 73.6733 574.739 66.8422 574.739C57.6934 574.739 49.3375 572.843 41.7744 569.052C34.2114 565.139 27.6853 560.004 22.196 553.645C16.7067 547.164 12.4372 539.949 9.38763 532.001C6.33803 523.93 4.81323 515.798 4.81323 507.605Z" fill="white"/>
<path d="M190.498 574.555C181.106 574.555 172.628 572.721 165.065 569.052C157.502 565.384 150.976 560.432 145.486 554.195C139.997 547.836 135.728 540.744 132.678 532.918C129.75 524.97 128.286 516.838 128.286 508.523C128.286 499.841 129.872 491.586 133.044 483.76C136.215 475.812 140.607 468.781 146.218 462.667C151.829 456.43 158.417 451.539 165.98 447.993C173.665 444.324 181.96 442.49 190.864 442.49C200.135 442.49 208.552 444.385 216.115 448.176C223.8 451.967 230.326 457.042 235.694 463.4C241.183 469.759 245.391 476.851 248.319 484.678C251.369 492.504 252.893 500.513 252.893 508.706C252.893 517.388 251.308 525.703 248.136 533.652C245.086 541.478 240.756 548.509 235.145 554.745C229.533 560.859 222.885 565.69 215.2 569.236C207.637 572.782 199.403 574.555 190.498 574.555ZM149.146 508.523C149.146 514.637 150.122 520.568 152.073 526.315C154.025 532.062 156.77 537.198 160.307 541.722C163.967 546.125 168.358 549.61 173.482 552.177C178.605 554.745 184.338 556.029 190.681 556.029C197.269 556.029 203.124 554.684 208.247 551.994C213.37 549.304 217.64 545.697 221.055 541.172C224.593 536.525 227.277 531.389 229.106 525.764C230.936 520.017 231.851 514.27 231.851 508.523C231.851 502.409 230.875 496.539 228.923 490.914C227.094 485.167 224.349 480.092 220.689 475.69C217.03 471.165 212.639 467.619 207.515 465.051C202.514 462.483 196.903 461.199 190.681 461.199C184.094 461.199 178.239 462.544 173.116 465.235C167.992 467.925 163.662 471.532 160.124 476.057C156.587 480.581 153.842 485.656 151.89 491.281C150.061 496.906 149.146 502.653 149.146 508.523Z" fill="white"/>
<path d="M294.603 481.559V573.638H274.11V443.407H290.944L364.5 537.504V443.591H385.177V573.638H367.245L294.603 481.559Z" fill="white"/>
<path d="M414.38 573.638V443.407H500.928V461.566H434.873V500.452H490.132V517.51H434.873V573.638H414.38Z" fill="white"/>
<path d="M609.451 555.479V573.638H520.342V443.407H607.804V461.566H540.835V498.618H598.839V515.676H540.835V555.479H609.451Z" fill="white"/>
<path d="M630.592 573.638V443.407H687.132C692.987 443.407 698.354 444.63 703.234 447.076C708.113 449.521 712.321 452.762 715.859 456.797C719.519 460.832 722.324 465.357 724.276 470.37C726.35 475.384 727.386 480.52 727.386 485.778C727.386 491.525 726.35 497.028 724.276 502.286C722.202 507.544 719.214 512.069 715.31 515.859C711.529 519.65 707.076 522.402 701.953 524.114L732.51 573.638H709.455L681.276 528.332H651.085V573.638H630.592ZM651.085 510.173H686.949C690.73 510.173 694.085 509.073 697.012 506.872C699.94 504.671 702.258 501.736 703.966 498.067C705.673 494.277 706.527 490.18 706.527 485.778C706.527 481.254 705.551 477.218 703.6 473.672C701.648 470.004 699.086 467.069 695.915 464.868C692.865 462.667 689.51 461.566 685.851 461.566H651.085V510.173Z" fill="white"/>
<path d="M840.673 555.479V573.638H751.564V443.407H839.026V461.566H772.057V498.618H830.06V515.676H772.057V555.479H840.673Z" fill="white"/>
<path d="M882.307 481.559V573.638H861.814V443.407H878.648L952.204 537.504V443.591H972.881V573.638H954.949L882.307 481.559Z" fill="white"/>
<path d="M993.85 507.605C993.85 499.657 995.253 491.892 998.058 484.311C1000.86 476.607 1004.95 469.637 1010.32 463.4C1015.81 457.042 1022.46 452.028 1030.26 448.36C1038.07 444.569 1046.91 442.673 1056.79 442.673C1068.5 442.673 1078.63 445.364 1087.17 450.744C1095.71 456.002 1102.05 462.789 1106.2 471.104L1090.1 481.926C1087.66 476.668 1084.55 472.51 1080.76 469.453C1077.1 466.396 1073.08 464.256 1068.69 463.033C1064.42 461.811 1060.21 461.199 1056.06 461.199C1049.23 461.199 1043.25 462.605 1038.13 465.418C1033.01 468.108 1028.68 471.716 1025.14 476.24C1021.72 480.764 1019.1 485.839 1017.27 491.464C1015.56 497.089 1014.71 502.714 1014.71 508.339C1014.71 514.576 1015.75 520.629 1017.82 526.498C1019.89 532.245 1022.76 537.381 1026.42 541.906C1030.2 546.308 1034.65 549.793 1039.78 552.361C1044.9 554.929 1050.51 556.213 1056.61 556.213C1060.76 556.213 1065.09 555.479 1069.6 554.012C1074.12 552.544 1078.26 550.282 1082.04 547.225C1085.95 544.046 1089 539.888 1091.19 534.752L1108.21 544.474C1105.53 550.955 1101.32 556.457 1095.58 560.982C1089.97 565.506 1083.63 568.93 1076.56 571.254C1069.6 573.577 1062.71 574.739 1055.88 574.739C1046.73 574.739 1038.37 572.843 1030.81 569.052C1023.25 565.139 1016.72 560.004 1011.23 553.645C1005.74 547.164 1001.47 539.949 998.424 532.001C995.375 523.93 993.85 515.798 993.85 507.605Z" fill="white"/>
<path d="M1216.27 555.479V573.638H1127.17V443.407H1214.63V461.566H1147.66V498.618H1205.66V515.676H1147.66V555.479H1216.27Z" fill="white"/>
<path fill-rule="evenodd" clip-rule="evenodd" d="M0 204.398V357.517H76.3727V331.997H101.83V293.717H76.3727V268.198H101.83V229.918H76.3727V204.398H0ZM76.3727 229.918V268.198H25.4576V229.918H76.3727ZM25.4576 331.997H76.3727V293.717H25.4576V331.997Z" fill="white"/>
<path d="M152.745 204.398H127.288V357.517H203.661V331.997H152.745V204.398Z" fill="white"/>
<path d="M254.576 204.398H305.491V229.918H254.576V204.398Z" fill="white"/>
<path d="M254.576 331.997V229.918H229.118V331.997H254.576Z" fill="white"/>
<path d="M305.491 331.997V357.517H254.576V331.997H305.491Z" fill="white"/>
<path d="M305.491 331.997V229.918H330.948V331.997H305.491Z" fill="white"/>
<path d="M381.863 204.398H458.236V229.918H381.863V204.398Z" fill="white"/>
<path d="M381.863 331.997V229.918H356.406V331.997H381.863Z" fill="white"/>
<path d="M381.863 331.997V357.517H458.236V331.997H381.863Z" fill="white"/>
<path d="M509.151 204.398H483.694V357.517H509.151V280.957H534.609V306.477H560.066V357.517H585.524V306.477H560.066V280.957H534.609V255.438H560.066V229.918H585.524V204.398H560.066V229.918H534.609V255.438H509.151V204.398Z" fill="white"/>
<path d="M636.439 204.398H712.812V229.918H636.439V204.398Z" fill="white"/>
<path d="M636.439 331.997V229.918H610.982V331.997H636.439Z" fill="white"/>
<path d="M636.439 331.997V357.517H712.812V331.997H636.439Z" fill="white"/>
<path d="M738.269 204.398H763.727V268.198H814.642V204.398H840.1V357.517H814.642V293.717H763.727V357.517H738.269V204.398Z" fill="white"/>
<path d="M891.015 204.398H941.93V229.918H891.015V204.398Z" fill="white"/>
<path d="M891.015 280.957V229.918H865.557V357.517H891.015V306.477H941.93V357.517H967.388V229.918H941.93V280.957H891.015Z" fill="white"/>
<path d="M992.845 204.398H1018.3V357.517H992.845V204.398Z" fill="white"/>
<path d="M1043.76 204.398H1069.22V242.678H1088.31V268.198H1107.4V293.717H1120.13V204.398H1145.59V357.517H1120.13V319.237H1101.04V293.717H1081.95V268.198H1069.22V357.517H1043.76V204.398Z" fill="white"/>
<path d="M1461.23 613.125C1448.04 613.125 1436.23 610.128 1425.78 604.133C1415.33 598.31 1407.37 590.346 1401.89 580.241L1418.84 564.056C1423.64 571.42 1429.8 577.244 1437.34 581.525C1444.88 585.978 1452.93 588.205 1461.49 588.205C1468.51 588.205 1474.76 586.663 1480.24 583.581C1485.72 580.669 1490.01 576.559 1493.09 571.249C1496.34 565.768 1497.97 559.517 1497.97 552.495C1497.97 545.644 1496.43 539.65 1493.35 534.512C1490.26 529.202 1486.15 525.177 1481.01 522.437C1475.88 519.525 1469.97 518.07 1463.29 518.07C1456.78 518.07 1450.7 519.525 1445.05 522.437C1439.4 525.349 1434.77 529.459 1431.17 534.768H1406.25L1427.06 428.153H1516.21V454.1H1447.62L1438.37 503.94C1441.28 500.857 1445.22 498.374 1450.19 496.49C1455.15 494.434 1460.8 493.407 1467.14 493.407C1478.62 493.407 1488.81 495.976 1497.71 501.114C1506.79 506.081 1513.9 512.931 1519.04 521.666C1524.35 530.401 1527 540.506 1527 551.981C1527 564.141 1524.09 574.76 1518.27 583.837C1512.44 593.086 1504.56 600.279 1494.63 605.418C1484.7 610.556 1473.56 613.125 1461.23 613.125Z" fill="url(#paint0_linear_11_465)"/>
<path d="M1263.2 574.846C1263.2 567.653 1263.8 561.059 1265 555.065C1266.2 548.899 1268.26 543.076 1271.17 537.595C1274.25 532.114 1278.45 526.976 1283.76 522.181C1289.24 517.214 1296.17 512.504 1304.56 508.051C1310.56 504.625 1316.21 501.628 1321.52 499.059C1326.83 496.319 1331.54 493.664 1335.65 491.095C1339.76 488.355 1342.93 485.443 1345.16 482.36C1347.55 479.277 1348.75 475.766 1348.75 471.827C1348.75 468.059 1347.72 464.548 1345.67 461.294C1343.61 458.04 1340.53 455.471 1336.42 453.587C1332.31 451.532 1327.34 450.504 1321.52 450.504C1316.9 450.504 1312.61 451.103 1308.68 452.302C1304.91 453.501 1301.4 455.128 1298.14 457.184C1295.06 459.067 1292.23 461.208 1289.66 463.606C1287.1 465.833 1284.87 468.059 1282.98 470.286L1265.26 449.99C1266.97 447.935 1269.63 445.623 1273.22 443.054C1276.99 440.313 1281.44 437.659 1286.58 435.09C1291.89 432.349 1297.89 430.123 1304.56 428.41C1311.24 426.526 1318.52 425.584 1326.4 425.584C1337.53 425.584 1347.04 427.468 1354.92 431.236C1362.8 434.833 1368.79 439.885 1372.9 446.393C1377.18 452.73 1379.32 459.924 1379.32 467.974C1379.32 474.311 1378.04 479.877 1375.47 484.672C1373.07 489.468 1369.9 493.75 1365.97 497.518C1362.03 501.114 1357.83 504.283 1353.38 507.023C1349.1 509.592 1345.07 511.904 1341.3 513.96C1334.62 517.214 1328.8 520.211 1323.83 522.951C1319.04 525.692 1314.93 528.432 1311.5 531.172C1308.08 533.741 1305.25 536.482 1303.02 539.393C1300.8 542.134 1298.91 545.473 1297.37 549.413H1382.15V574.846H1263.2Z" fill="url(#paint1_linear_11_465)"/>
<defs>
<linearGradient id="paint0_linear_11_465" x1="1266.77" y1="427.867" x2="1527.29" y2="613.446" gradientUnits="userSpaceOnUse">
<stop stop-color="#00EBFF"/>
<stop offset="0.5" stop-color="#6F3DE2"/>
<stop offset="1" stop-color="#FFB6EC"/>
</linearGradient>
<linearGradient id="paint1_linear_11_465" x1="1263.2" y1="425.727" x2="1532.29" y2="606.308" gradientUnits="userSpaceOnUse">
<stop stop-color="#00EBFF"/>
<stop offset="0.5" stop-color="#6F3DE2"/>
<stop offset="1" stop-color="#FFB6EC"/>
</linearGradient>
</defs>
</svg>
