<svg width="120" height="121" viewBox="0 0 120 121" fill="none" xmlns="http://www.w3.org/2000/svg">
<path d="M107.1 55.1101C107.995 54.7152 108.755 54.0664 109.285 53.2441C109.815 52.4218 110.092 51.462 110.082 50.4838C110.071 49.5055 109.775 48.5517 109.228 47.7405C108.681 46.9293 107.908 46.2964 107.005 45.9201L64.15 26.4001C62.8472 25.8058 61.4319 25.4983 60 25.4983C58.568 25.4983 57.1528 25.8058 55.85 26.4001L13 45.9001C12.1098 46.2899 11.3525 46.9308 10.8208 47.7442C10.2891 48.5576 10.0059 49.5083 10.0059 50.4801C10.0059 51.4519 10.2891 52.4026 10.8208 53.216C11.3525 54.0294 12.1098 54.6702 13 55.0601L55.85 74.6001C57.1528 75.1943 58.568 75.5019 60 75.5019C61.4319 75.5019 62.8472 75.1943 64.15 74.6001L107.1 55.1101Z" stroke="#4ADE80" stroke-width="3" stroke-linecap="round" stroke-linejoin="round"/>
<path d="M110 50.5V80.5" stroke="#4ADE80" stroke-width="3" stroke-linecap="round" stroke-linejoin="round"/>
<path d="M30 63V80.5C30 84.4782 33.1607 88.2936 38.7868 91.1066C44.4129 93.9196 52.0435 95.5 60 95.5C67.9565 95.5 75.5871 93.9196 81.2132 91.1066C86.8393 88.2936 90 84.4782 90 80.5V63" stroke="#4ADE80" stroke-width="3" stroke-linecap="round" stroke-linejoin="round"/>
</svg>

