<svg xmlns="http://www.w3.org/2000/svg" width="875" height="495" fill="none" aria-label="TUM Blockchain Hackathon" viewBox="354 292 875 495"><g fill="#fff"><path d="M440.221 315.125h-32.522v87.173h-15.572v-87.173h-32.659V301h80.753zm53.91 87.886q-11.714 0-19.844-4.137-7.992-4.139-12.954-11.271-4.823-7.134-7.165-16.265-2.205-9.132-2.205-18.976V301h15.434v51.362q0 6.991 1.378 13.554 1.378 6.42 4.41 11.557 3.031 5.136 8.13 8.132 5.236 2.996 12.816 2.996 7.716 0 12.815-2.996 5.236-3.138 8.131-8.275 3.032-5.279 4.409-11.699 1.378-6.42 1.378-13.269V301h15.572v51.362q0 10.416-2.48 19.689-2.343 9.132-7.442 16.122-4.96 6.849-12.953 10.843-7.993 3.995-19.43 3.995m145.1-.713v-72.193l-28.801 54.787h-9.095l-28.939-54.787v72.193h-15.434V301h16.537l32.383 61.92L638.266 301h16.536v101.298z"/><path fill-rule="evenodd" d="M358 459.987v119.102h57.518v-19.851h19.172v-29.775h-19.172v-19.85h19.172v-29.775h-19.172v-19.851zm57.518 19.851v29.775h-38.345v-29.775zm-38.345 79.4h38.345v-29.775h-38.345z" clip-rule="evenodd"/><path d="M473.036 459.987h-19.173v119.102h57.518v-19.851h-38.345zm76.69 0h38.345v19.851h-38.345zm0 99.251v-79.4h-19.173v79.4zm38.345 0v19.851h-38.345v-19.851zm0 0v-79.4h19.173v79.4zm57.518-99.251h57.518v19.851h-57.518zm0 99.251v-79.4h-19.173v79.4zm0 0v19.851h57.518v-19.851zm95.863-99.251h-19.173v119.102h19.173v-59.551h19.172v19.85h19.173v39.701h19.172v-39.701h-19.172v-19.85h-19.173v-19.85h19.173v-19.85h19.172v-19.851h-19.172v19.851h-19.173v19.85h-19.172zm95.863 0h57.517v19.851h-57.517zm0 99.251v-79.4h-19.173v79.4zm0 0v19.851h57.517v-19.851zm76.69-99.251h19.173v49.626h38.345v-49.626h19.172v119.102h-19.172v-49.626h-38.345v49.626h-19.173zm115.035 0h38.35v19.851h-38.35zm0 59.551v-39.7h-19.17v99.251h19.17v-39.701h38.35v39.701h19.17v-99.251h-19.17v39.7zm76.69-59.551h19.17v119.102h-19.17zm38.35 0h19.17v29.776h14.38v19.85h14.38v19.85h9.58v-69.476h19.18v119.102h-19.18v-29.776h-14.38v-19.85h-14.38v-19.85h-9.58v69.476h-19.17z"/></g><g transform="translate(-161.5 -105)"><mask id="a" width="958" height="171" x="393" y="712" fill="#000" maskUnits="userSpaceOnUse"><path fill="#fff" d="M393 712h958v171H393z"/><path d="M453.46 816.81q0 .69-1.38 1.84-1.15.92-2.99 1.84a55 55 0 0 1-4.14 1.84q-2.07.69-3.91.92-3.91.92-8.05 1.15a61 61 0 0 0-7.82.92q1.84 8.74 1.84 17.25 0 8.74-2.3 13.8-2.07 5.06-5.29 5.06-1.38 0-2.53-1.61-.92-1.84-.92-4.6 0-.69.46-2.76.69-2.3.69-4.37 0-.46-.23-2.99-.23-2.76-.69-5.98a89 89 0 0 0-.69-6.67q-.23-3.45-.46-5.06-2.3 0-5.75.46-3.45.23-4.14.23-3.22 0-5.75-.92-2.3-.92-2.3-4.6 0-2.07 1.84-2.76.69.69 1.61.69.23 0 2.07-.23l4.14-.92q2.3-.46 3.91-.92 1.84-.69 1.84-1.15t-.92-4.6q-.69-4.14-1.84-8.97-.92-5.06-1.84-9.89-.69-4.83-.69-6.67v-1.38l.46-2.3a9 9 0 0 1 1.15-2.07q.69-.92 2.07-.92 4.37 0 5.06 2.76 1.84 7.82 2.76 14.26 1.15 6.21 1.84 10.81.92 4.37 1.61 6.9.92 2.3 2.76 2.3 5.52-.69 10.35-1.38l7.82-.92q3.91-.46 5.06-.46.46 0 2.76.46 2.53.46 2.53 1.61m176.485-7.36q0 1.15-1.15 1.84-.92.69-2.3 1.15-1.15.46-2.53 1.15-1.38.46-2.07 1.15l1.61 10.81q1.38 8.97 2.3 17.48 1.15 8.51 1.15 16.1 0 5.98-1.38 10.81-1.15 4.6-4.37 4.6-1.61 0-2.99-3.91-1.149-4.14-2.07-9.2-.69-5.29-1.15-10.35-.23-5.29-.23-7.59 0-1.61-.23-5.06a139 139 0 0 0-.69-7.59q-.46-4.14-.92-7.59l-.69-5.52q-3.91.23-10.58 1.15-6.67.69-16.33 3.22v2.76q0 5.06.46 11.27.46 5.98.92 12.42.69 6.21 1.15 12.65.46 6.21.46 11.96 0 2.3-.46 3.68-.459 1.61-2.07 1.61-2.76 0-4.37-2.76-1.38-2.76-2.07-6.44a127 127 0 0 1-1.15-8.05 254 254 0 0 0-.46-6.9q-.92-5.98-1.61-13.8-.46-8.05-.92-16.33-.92 0-2.3-.46l-2.76-1.38q-1.38-.92-2.3-1.84t-.92-2.07q0-2.76 2.53-4.37a24 24 0 0 1 5.52-2.99 40 40 0 0 1-.23-4.37v-41.17q.23-7.59.23-15.41.23-1.84 1.15-4.37.92-2.76 2.99-2.76 1.611 0 2.76 1.38 1.15 1.15 1.84 2.99t.92 3.91q.46 1.84.46 3.22v54.97q2.07 0 5.52-.23t7.13-.46q3.68-.46 7.13-.92 3.68-.46 5.98-.92l-5.29-48.3a208 208 0 0 1-.46-3.45v-2.99q0-4.6 1.15-7.36 1.38-2.99 3.91-2.99 3.22 0 3.91 2.99t.92 8.74l.46 7.36q.231 3.45.69 6.9l5.29 38.87q2.76 0 5.52.46 2.99.23 2.99 2.3m129.683 17.71q0 4.14-3.91 10.35-3.68 5.98-10.12 11.73t-14.95 9.89q-8.51 3.91-17.71 3.91-4.14 0-8.74-1.38t-8.97-3.91a39.8 39.8 0 0 1-7.82-6.44q-3.45-3.91-5.06-8.74-1.38 1.38-3.45 4.6a115 115 0 0 1-4.14 6.67 36.7 36.7 0 0 1-5.06 5.75q-2.76 2.3-5.75 2.3t-5.06-2.99a34.7 34.7 0 0 1-2.99-6.9q-1.15-3.91-1.61-7.36t-.46-3.91q0-2.76 1.61-10.35 1.61-7.82 4.83-16.1t8.05-14.72q5.06-6.44 11.73-6.44 2.53 0 3.22 2.3.92 2.07.92 4.14v6.9q1.15.92 2.3 1.38 1.38.23 2.3.92a2.78 2.78 0 0 1 1.61 1.61q.69 1.15.69 3.68 0 1.61-.23 2.99a11.7 11.7 0 0 0-.23 2.3q0 5.98.92 11.73t3.68 10.35q2.76 4.37 7.59 7.36 4.83 2.76 12.88 2.76 10.12 0 17.02-4.14 7.13-4.37 11.73-9.43 4.83-5.29 7.59-9.43 2.76-4.37 4.6-4.37 2.99 0 2.99 2.99m-80.73-10.12q0-.92-.46-1.61-.46-.92-.46-1.61 0-.92.46-1.61t.46-1.84q0-.69-.46-.92-.46-.46-.46-.92-2.07.46-4.37 3.91-2.07 3.45-4.14 8.05a67 67 0 0 0-2.99 9.43q-1.15 4.6-1.15 7.59 0 1.61.92 5.29t2.07 4.83a339 339 0 0 0 7.13-15.64q3.45-7.59 3.45-14.95m149.8 16.1q0 2.3-.69 4.83-.69 2.3-1.38 3.91-.46.69-4.37 4.83-3.68 3.91-9.43 8.28-5.52 4.37-12.65 8.05-6.9 3.45-13.34 3.45-3.91 0-8.05-1.38-3.91-1.38-7.36-4.37-3.45-3.22-5.75-7.82-2.07-4.6-2.07-11.27 0-11.04 3.68-20.01t7.36-14.26q1.61-2.53 4.14-5.06 2.76-2.76 5.29-4.83 2.53-2.3 4.6-3.68 2.3-1.38 3.22-1.38 2.07 0 3.68 1.15 1.84 1.15 1.84 2.3 0 1.84-1.15 3.22-.921 1.15-2.76 2.76-1.84 1.38-4.37 3.91-2.53 2.3-5.29 6.21-5.52 7.59-8.28 15.64-2.53 7.82-2.53 13.8t4.37 9.66q4.6 3.45 9.43 3.45 8.74 0 15.41-3.91 6.9-3.91 11.73-8.74t7.82-8.74 4.37-3.91q2.53 0 2.53 3.91m100.088 17.25q0 1.84-.46 2.76-.46.69-2.3 1.15-2.07.69-5.29 1.61-2.99.69-6.67 1.61-3.681.69-7.59 1.38-3.681.46-6.9.46-3.91 0-8.74-.46a84 84 0 0 1-8.97-1.38 184 184 0 0 1-8.05-2.3q-3.45-1.38-5.06-3.22 1.149 4.83 2.07 9.66t1.38 9.66q0 1.15-.69 2.07-.46.69-2.99.69a6.1 6.1 0 0 1-2.3-.46q-.92-.69-1.61-2.53-2.07-4.6-3.45-8.51a170 170 0 0 1-2.53-8.28 348 348 0 0 0-2.07-8.74 273 273 0 0 0-2.76-10.12 2278 2278 0 0 1-5.29-19.09q-2.76-10.35-5.06-19.55-2.3-9.43-3.68-16.56-1.38-7.36-1.38-10.35v-3.68a37 37 0 0 1 .69-4.37q.69-2.3 1.61-3.68 1.15-1.61 2.99-1.61 1.15 0 2.3 3.68 1.38 3.45 2.3 7.82a86 86 0 0 1 1.84 8.05q.92 3.68.92 3.91a3382 3382 0 0 0 2.07 11.27q1.38 5.98 2.76 12.19a226 226 0 0 0 2.99 11.96q1.61 5.52 3.45 9.43.23-2.3 1.61-6.67t3.68-9.43a213 213 0 0 1 5.06-10.35q2.99-5.52 5.98-9.89 3.219-4.37 6.21-7.13 3.22-2.76 5.98-2.76 4.37 0 5.98 1.15 1.84 1.15 1.84 2.76 0 1.38-3.91 5.52-3.91 3.91-8.74 10.58-4.83 6.44-8.74 15.41-3.91 8.74-3.91 19.55 0 3.91 2.07 6.9 2.3 2.76 5.75 4.6 3.68 1.84 8.05 2.99 4.599.92 8.97.92 3.91 0 8.51-.23t8.51-.46q4.14-.46 6.9-.69 2.99-.23 3.68-.23 1.149 0 2.07.69t.92 2.3m119.244-23.23c0 2.76-1.31 6.21-3.91 10.35-2.46 3.987-5.83 7.897-10.12 11.73-4.3 3.833-9.28 7.13-14.95 9.89-5.68 2.607-11.58 3.91-17.71 3.91q-4.145 0-8.744-1.38t-8.97-3.91a39.8 39.8 0 0 1-7.82-6.44q-3.45-3.91-5.06-8.74-1.38 1.38-3.45 4.6a113 113 0 0 1-4.14 6.67 36.7 36.7 0 0 1-5.06 5.75q-2.76 2.3-5.75 2.3t-5.06-2.99a34.8 34.8 0 0 1-2.99-6.9q-1.15-3.91-1.61-7.36t-.46-3.91q0-2.76 1.61-10.35 1.611-7.82 4.83-16.1t8.05-14.72q5.061-6.44 11.73-6.44 2.53 0 3.22 2.3.92 2.07.92 4.14v6.9q1.15.92 2.3 1.38 1.38.23 2.3.92a2.78 2.78 0 0 1 1.61 1.61q.69 1.15.69 3.68 0 1.61-.23 2.99-.23 1.15-.23 2.3 0 5.98.92 11.73t3.68 10.35q2.76 4.37 7.59 7.36 4.83 2.76 12.884 2.76c6.74 0 12.42-1.38 17.02-4.14q7.125-4.37 11.73-9.43 4.83-5.29 7.59-9.43c1.84-2.913 3.37-4.37 4.6-4.37 1.99 0 2.99.997 2.99 2.99m-80.734-10.12q0-.92-.46-1.61-.46-.92-.46-1.61 0-.92.46-1.61t.46-1.84q0-.69-.46-.92-.46-.46-.46-.92-2.07.46-4.37 3.91-2.07 3.45-4.14 8.05a67.5 67.5 0 0 0-2.99 9.43q-1.15 4.6-1.15 7.59 0 1.61.92 5.29.921 3.68 2.07 4.83a337 337 0 0 0 7.13-15.64q3.45-7.59 3.45-14.95m144.514-46c-2 2.3-4.83 4.6-8.51 6.9q-5.52 3.22-11.04 5.98l-9.66 4.83q-4.14 1.84-4.14 2.53c0 .46.3 1.84.92 4.14q.915 3.45 2.07 8.28 1.38 4.6 2.76 9.66a284 284 0 0 1 2.3 8.97c.3 1.533.69 3.527 1.15 5.98s.84 4.907 1.15 7.36c.46 2.453.84 4.677 1.15 6.67.3 1.84.46 2.837.46 2.99 0 2.3-.39 4.677-1.15 7.13-.77 2.453-2 3.68-3.68 3.68-.92 0-1.77-.383-2.53-1.15q-1.155-1.15-2.07-2.53-.93-1.61-1.38-2.99c-.31-.92-.46-1.61-.46-2.07v-1.38c.15-.613.23-1.303.23-2.07q0-4.37-1.38-12.65c-.31-1.687-.92-4.293-1.84-7.82q-1.38-5.29-2.76-10.81c-1.08-4.293-2.3-8.97-3.68-14.03-.62-2.147-1-3.22-1.15-3.22q-1.62 0-5.52 2.07c-2.46 1.227-5.29 2.837-8.51 4.83-3.22 1.84-6.6 3.91-10.12 6.21a380 380 0 0 0-9.89 6.21c-3.07 1.84-5.68 3.45-7.82 4.83q-3.45 1.84-4.14 1.84-3 0-4.83-2.07c-1.23-1.38-1.84-2.913-1.84-4.6 0-.92 1.3-2.223 3.91-3.91 2.45-1.84 5.59-3.833 9.43-5.98 3.68-2.147 7.74-4.37 12.19-6.67 4.29-2.3 8.28-4.37 11.96-6.21 3.83-1.84 6.97-3.373 9.43-4.6 2.6-1.227 3.91-1.84 3.91-1.84q-2.07-10.58-3.45-18.86c-.77-4.753-1.54-9.123-2.3-13.11-.62-3.987-.92-6.133-.92-6.44 0-1.993.38-3.45 1.15-4.37.92-1.073 1.91-1.61 2.99-1.61 1.68 0 2.76 1.15 3.22 3.45 1.68 8.28 3.22 15.64 4.6 22.08 1.53 6.44 2.99 11.653 4.37 15.64 1.38-.307 3.75-1.15 7.13-2.53 3.37-1.533 6.9-3.143 10.58-4.83a342 342 0 0 1 9.89-4.37c3.06-1.38 4.83-2.07 5.29-2.07.92 0 1.45.307 1.61.92.3.613.61 1.15.92 1.61m86.09 61.41c.77.767 1.15 1.227 1.15 1.38q0 .46-1.38 2.76c-.76 1.533-1.84 3.143-3.22 4.83a32.4 32.4 0 0 1-4.6 4.6c-1.53 1.227-3.06 1.84-4.6 1.84-3.22 0-5.82-.613-7.82-1.84a19.9 19.9 0 0 1-5.06-5.06 31.4 31.4 0 0 1-2.99-6.44c-.61-2.453-1.15-4.753-1.61-6.9-.3-1.073-.61-1.61-.92-1.61q-.69 0-2.76 5.06c-1.38 3.22-2.91 6.823-4.6 10.81a243 243 0 0 1-4.6 10.81q-2.07 4.83-2.76 4.83c-2.76 0-5.13-1.15-7.13-3.45-1.84-2.453-3.37-5.213-4.6-8.28a76 76 0 0 1-2.53-9.66c-.61-3.373-.99-5.98-1.15-7.82-.46-4.14-1.45-11.04-2.99-20.7-1.53-9.66-2.83-21.39-3.91-35.19-.3-2.913-.69-5.52-1.15-7.82-.3-2.453-.69-5.137-1.15-8.05s-.84-6.21-1.15-9.89c-.3-3.68-.46-8.203-.46-13.57 0-.307.08-1.303.23-2.99q.24-2.53.69-5.52.465-2.99 1.38-5.29c.77-1.533 1.61-2.3 2.53-2.3 1.08 0 2.07.69 2.99 2.07.92 1.227 1.69 2.683 2.3 4.37.77 1.687 1.31 3.297 1.61 4.83.31 1.533.46 2.607.46 3.22 0 2.3-.15 4.447-.46 6.44-.3 1.993-.46 3.833-.46 5.52 0 2.3.16 5.213.46 8.74.46 3.527 1 7.13 1.61 10.81.62 3.68 1.15 7.283 1.61 10.81.46 3.373.85 6.133 1.15 8.28 0 .153.16 1.227.46 3.22.31 1.993.62 4.523.92 7.59.46 2.913.85 6.133 1.15 9.66l1.38 10.12c.46 3.22.85 6.133 1.15 8.74.46 2.453.77 4.217.92 5.29 0 .46.08 1.15.23 2.07q.465 1.15.69 2.76c.31 1.073.62 2.07.92 2.99.31.92.69 1.61 1.15 2.07q1.38-2.76 3.45-8.51a808 808 0 0 0 4.6-11.73c1.69-3.987 3.22-7.437 4.6-10.35 1.54-3.067 2.84-4.6 3.91-4.6 1.23 0 2.23.23 2.99.69.77.46 1.77.843 2.99 1.15 1.54.613 2.3 1.457 2.3 2.53 0 .92.16 2.07.46 3.45q.465 2.76 1.38 7.36c.77 2.913 1.61 5.827 2.53 8.74.92 2.76 2 5.137 3.22 7.13 1.23 1.993 2.46 2.99 3.68 2.99.62 0 1.46-.767 2.53-2.3 1.08-1.687 2.53-2.607 4.37-2.76.31 0 .85.23 1.61.69.77.307 1.54.767 2.3 1.38m55.85-7.13q0 5.06-1.38 9.66c-.92 3.067-2.15 5.75-3.68 8.05q-2.31 3.45-5.52 5.52c-2 1.227-4.22 1.84-6.67 1.84-4.3 0-7.67-1.227-10.12-3.68-2.46-2.453-4.37-5.29-5.75-8.51-1.23-3.22-2.07-6.44-2.53-9.66-.31-3.373-.46-5.903-.46-7.59 0-2.76.38-5.827 1.15-9.2q1.38-5.29 3.45-9.66c1.53-2.913 3.22-5.367 5.06-7.36s3.75-2.99 5.75-2.99q.69 0 2.07.46c1.07.307 2.14.767 3.22 1.38q1.605.92 2.76 2.3a6.85 6.85 0 0 1 1.84 3.22c1.68.153 3.37.767 5.06 1.84q2.52 1.61 2.76 2.53c1.22 3.987 1.99 7.973 2.3 11.96q.69 5.98.69 9.89m-10.35-4.14q0-3.45-.69-7.13-.69-3.91-2.76-7.82c-.31.153-.69.23-1.15.23-.62 0-1.15-.077-1.62-.23-.3-.153-.61-.23-.91-.23-1.84 0-3.3.537-4.37 1.61-1.08.92-1.92 2.223-2.53 3.91-.46 1.533-.77 3.22-.92 5.06a61 61 0 0 0-.23 5.29c0 1.687.07 3.603.23 5.75.15 1.993.46 3.91.92 5.75.61 1.84 1.38 3.45 2.3 4.83.92 1.227 2.14 1.84 3.68 1.84 1.53 0 2.83-.767 3.91-2.3 1.07-1.687 1.91-3.603 2.53-5.75.61-2.147.99-4.217 1.15-6.21.3-2.147.46-3.68.46-4.6m102.64 25.53c0 .92-.31 1.84-.92 2.76a12 12 0 0 1-2.3 2.53q-1.155 1.15-2.76 2.07c-.92.46-1.77.69-2.53.69-2.61 0-5.98-.537-10.12-1.61q-5.985-1.84-9.66-5.52-3.915-3.91-6.9-9.2c-2-3.68-4.22-9.047-6.67-16.1a231 231 0 0 1-5.98 20.01c-2.15 6.593-5.68 12.65-10.58 18.17q-.465.46-1.38.46-1.62 0-3.45-1.61c-1.23-1.073-1.84-2.147-1.84-3.22s-.16-3.527-.46-7.36q-.24-5.98-.69-13.11c-.31-4.907-.62-9.813-.92-14.72-.16-5.06-.23-9.2-.23-12.42 0-1.533.07-3.527.23-5.98q.225-3.91 1.38-6.67c.15-.307.69-.92 1.61-1.84q1.605-1.38 3.45-1.38c1.07 0 1.68.69 1.84 2.07.15 1.38.23 2.913.23 4.6v36.34c0 .767.07 1.84.23 3.22.3 1.38.69 2.377 1.15 2.99 1.68-3.68 3.22-7.973 4.6-12.88 1.53-5.06 2.99-9.813 4.37-14.26q2.07-6.9 4.14-11.5 2.07-4.83 4.14-4.83c1.53 0 2.76.307 3.68.92s1.68 1.84 2.3 3.68c.76 4.447 1.38 8.433 1.84 11.96.46 3.373.99 6.44 1.61 9.2.76 2.76 1.76 5.367 2.99 7.82q2.07 3.45 5.52 6.44c2.14 1.993 4.52 3.45 7.13 4.37 2.76.92 5.13 1.38 7.13 1.38.92 0 1.91-.153 2.99-.46 1.07-.46 1.84-.69 2.3-.69.61 0 1.15.537 1.61 1.61.61 1.073.92 1.763.92 2.07"/></mask><path fill="#f44336" d="M453.46 816.81q0 .69-1.38 1.84-1.15.92-2.99 1.84a55 55 0 0 1-4.14 1.84q-2.07.69-3.91.92-3.91.92-8.05 1.15a61 61 0 0 0-7.82.92q1.84 8.74 1.84 17.25 0 8.74-2.3 13.8-2.07 5.06-5.29 5.06-1.38 0-2.53-1.61-.92-1.84-.92-4.6 0-.69.46-2.76.69-2.3.69-4.37 0-.46-.23-2.99-.23-2.76-.69-5.98a89 89 0 0 0-.69-6.67q-.23-3.45-.46-5.06-2.3 0-5.75.46-3.45.23-4.14.23-3.22 0-5.75-.92-2.3-.92-2.3-4.6 0-2.07 1.84-2.76.69.69 1.61.69.23 0 2.07-.23l4.14-.92q2.3-.46 3.91-.92 1.84-.69 1.84-1.15t-.92-4.6q-.69-4.14-1.84-8.97-.92-5.06-1.84-9.89-.69-4.83-.69-6.67v-1.38l.46-2.3a9 9 0 0 1 1.15-2.07q.69-.92 2.07-.92 4.37 0 5.06 2.76 1.84 7.82 2.76 14.26 1.15 6.21 1.84 10.81.92 4.37 1.61 6.9.92 2.3 2.76 2.3 5.52-.69 10.35-1.38l7.82-.92q3.91-.46 5.06-.46.46 0 2.76.46 2.53.46 2.53 1.61m176.485-7.36q0 1.15-1.15 1.84-.92.69-2.3 1.15-1.15.46-2.53 1.15-1.38.46-2.07 1.15l1.61 10.81q1.38 8.97 2.3 17.48 1.15 8.51 1.15 16.1 0 5.98-1.38 10.81-1.15 4.6-4.37 4.6-1.61 0-2.99-3.91-1.149-4.14-2.07-9.2-.69-5.29-1.15-10.35-.23-5.29-.23-7.59 0-1.61-.23-5.06a139 139 0 0 0-.69-7.59q-.46-4.14-.92-7.59l-.69-5.52q-3.91.23-10.58 1.15-6.67.69-16.33 3.22v2.76q0 5.06.46 11.27.46 5.98.92 12.42.69 6.21 1.15 12.65.46 6.21.46 11.96 0 2.3-.46 3.68-.459 1.61-2.07 1.61-2.76 0-4.37-2.76-1.38-2.76-2.07-6.44a127 127 0 0 1-1.15-8.05 254 254 0 0 0-.46-6.9q-.92-5.98-1.61-13.8-.46-8.05-.92-16.33-.92 0-2.3-.46l-2.76-1.38q-1.38-.92-2.3-1.84t-.92-2.07q0-2.76 2.53-4.37a24 24 0 0 1 5.52-2.99 40 40 0 0 1-.23-4.37v-41.17q.23-7.59.23-15.41.23-1.84 1.15-4.37.92-2.76 2.99-2.76 1.611 0 2.76 1.38 1.15 1.15 1.84 2.99t.92 3.91q.46 1.84.46 3.22v54.97q2.07 0 5.52-.23t7.13-.46q3.68-.46 7.13-.92 3.68-.46 5.98-.92l-5.29-48.3a208 208 0 0 1-.46-3.45v-2.99q0-4.6 1.15-7.36 1.38-2.99 3.91-2.99 3.22 0 3.91 2.99t.92 8.74l.46 7.36q.231 3.45.69 6.9l5.29 38.87q2.76 0 5.52.46 2.99.23 2.99 2.3m129.683 17.71q0 4.14-3.91 10.35-3.68 5.98-10.12 11.73t-14.95 9.89q-8.51 3.91-17.71 3.91-4.14 0-8.74-1.38t-8.97-3.91a39.8 39.8 0 0 1-7.82-6.44q-3.45-3.91-5.06-8.74-1.38 1.38-3.45 4.6a115 115 0 0 1-4.14 6.67 36.7 36.7 0 0 1-5.06 5.75q-2.76 2.3-5.75 2.3t-5.06-2.99a34.7 34.7 0 0 1-2.99-6.9q-1.15-3.91-1.61-7.36t-.46-3.91q0-2.76 1.61-10.35 1.61-7.82 4.83-16.1t8.05-14.72q5.06-6.44 11.73-6.44 2.53 0 3.22 2.3.92 2.07.92 4.14v6.9q1.15.92 2.3 1.38 1.38.23 2.3.92a2.78 2.78 0 0 1 1.61 1.61q.69 1.15.69 3.68 0 1.61-.23 2.99a11.7 11.7 0 0 0-.23 2.3q0 5.98.92 11.73t3.68 10.35q2.76 4.37 7.59 7.36 4.83 2.76 12.88 2.76 10.12 0 17.02-4.14 7.13-4.37 11.73-9.43 4.83-5.29 7.59-9.43 2.76-4.37 4.6-4.37 2.99 0 2.99 2.99m-80.73-10.12q0-.92-.46-1.61-.46-.92-.46-1.61 0-.92.46-1.61t.46-1.84q0-.69-.46-.92-.46-.46-.46-.92-2.07.46-4.37 3.91-2.07 3.45-4.14 8.05a67 67 0 0 0-2.99 9.43q-1.15 4.6-1.15 7.59 0 1.61.92 5.29t2.07 4.83a339 339 0 0 0 7.13-15.64q3.45-7.59 3.45-14.95m149.8 16.1q0 2.3-.69 4.83-.69 2.3-1.38 3.91-.46.69-4.37 4.83-3.68 3.91-9.43 8.28-5.52 4.37-12.65 8.05-6.9 3.45-13.34 3.45-3.91 0-8.05-1.38-3.91-1.38-7.36-4.37-3.45-3.22-5.75-7.82-2.07-4.6-2.07-11.27 0-11.04 3.68-20.01t7.36-14.26q1.61-2.53 4.14-5.06 2.76-2.76 5.29-4.83 2.53-2.3 4.6-3.68 2.3-1.38 3.22-1.38 2.07 0 3.68 1.15 1.84 1.15 1.84 2.3 0 1.84-1.15 3.22-.921 1.15-2.76 2.76-1.84 1.38-4.37 3.91-2.53 2.3-5.29 6.21-5.52 7.59-8.28 15.64-2.53 7.82-2.53 13.8t4.37 9.66q4.6 3.45 9.43 3.45 8.74 0 15.41-3.91 6.9-3.91 11.73-8.74t7.82-8.74 4.37-3.91q2.53 0 2.53 3.91m100.088 17.25q0 1.84-.46 2.76-.46.69-2.3 1.15-2.07.69-5.29 1.61-2.99.69-6.67 1.61-3.681.69-7.59 1.38-3.681.46-6.9.46-3.91 0-8.74-.46a84 84 0 0 1-8.97-1.38 184 184 0 0 1-8.05-2.3q-3.45-1.38-5.06-3.22 1.149 4.83 2.07 9.66t1.38 9.66q0 1.15-.69 2.07-.46.69-2.99.69a6.1 6.1 0 0 1-2.3-.46q-.92-.69-1.61-2.53-2.07-4.6-3.45-8.51a170 170 0 0 1-2.53-8.28 348 348 0 0 0-2.07-8.74 273 273 0 0 0-2.76-10.12 2278 2278 0 0 1-5.29-19.09q-2.76-10.35-5.06-19.55-2.3-9.43-3.68-16.56-1.38-7.36-1.38-10.35v-3.68a37 37 0 0 1 .69-4.37q.69-2.3 1.61-3.68 1.15-1.61 2.99-1.61 1.15 0 2.3 3.68 1.38 3.45 2.3 7.82a86 86 0 0 1 1.84 8.05q.92 3.68.92 3.91a3382 3382 0 0 0 2.07 11.27q1.38 5.98 2.76 12.19a226 226 0 0 0 2.99 11.96q1.61 5.52 3.45 9.43.23-2.3 1.61-6.67t3.68-9.43a213 213 0 0 1 5.06-10.35q2.99-5.52 5.98-9.89 3.219-4.37 6.21-7.13 3.22-2.76 5.98-2.76 4.37 0 5.98 1.15 1.84 1.15 1.84 2.76 0 1.38-3.91 5.52-3.91 3.91-8.74 10.58-4.83 6.44-8.74 15.41-3.91 8.74-3.91 19.55 0 3.91 2.07 6.9 2.3 2.76 5.75 4.6 3.68 1.84 8.05 2.99 4.599.92 8.97.92 3.91 0 8.51-.23t8.51-.46q4.14-.46 6.9-.69 2.99-.23 3.68-.23 1.149 0 2.07.69t.92 2.3m119.244-23.23c0 2.76-1.31 6.21-3.91 10.35-2.46 3.987-5.83 7.897-10.12 11.73-4.3 3.833-9.28 7.13-14.95 9.89-5.68 2.607-11.58 3.91-17.71 3.91q-4.145 0-8.744-1.38t-8.97-3.91a39.8 39.8 0 0 1-7.82-6.44q-3.45-3.91-5.06-8.74-1.38 1.38-3.45 4.6a113 113 0 0 1-4.14 6.67 36.7 36.7 0 0 1-5.06 5.75q-2.76 2.3-5.75 2.3t-5.06-2.99a34.8 34.8 0 0 1-2.99-6.9q-1.15-3.91-1.61-7.36t-.46-3.91q0-2.76 1.61-10.35 1.611-7.82 4.83-16.1t8.05-14.72q5.061-6.44 11.73-6.44 2.53 0 3.22 2.3.92 2.07.92 4.14v6.9q1.15.92 2.3 1.38 1.38.23 2.3.92a2.78 2.78 0 0 1 1.61 1.61q.69 1.15.69 3.68 0 1.61-.23 2.99-.23 1.15-.23 2.3 0 5.98.92 11.73t3.68 10.35q2.76 4.37 7.59 7.36 4.83 2.76 12.884 2.76c6.74 0 12.42-1.38 17.02-4.14q7.125-4.37 11.73-9.43 4.83-5.29 7.59-9.43c1.84-2.913 3.37-4.37 4.6-4.37 1.99 0 2.99.997 2.99 2.99m-80.734-10.12q0-.92-.46-1.61-.46-.92-.46-1.61 0-.92.46-1.61t.46-1.84q0-.69-.46-.92-.46-.46-.46-.92-2.07.46-4.37 3.91-2.07 3.45-4.14 8.05a67.5 67.5 0 0 0-2.99 9.43q-1.15 4.6-1.15 7.59 0 1.61.92 5.29.921 3.68 2.07 4.83a337 337 0 0 0 7.13-15.64q3.45-7.59 3.45-14.95m144.514-46c-2 2.3-4.83 4.6-8.51 6.9q-5.52 3.22-11.04 5.98l-9.66 4.83q-4.14 1.84-4.14 2.53c0 .46.3 1.84.92 4.14q.915 3.45 2.07 8.28 1.38 4.6 2.76 9.66a284 284 0 0 1 2.3 8.97c.3 1.533.69 3.527 1.15 5.98s.84 4.907 1.15 7.36c.46 2.453.84 4.677 1.15 6.67.3 1.84.46 2.837.46 2.99 0 2.3-.39 4.677-1.15 7.13-.77 2.453-2 3.68-3.68 3.68-.92 0-1.77-.383-2.53-1.15q-1.155-1.15-2.07-2.53-.93-1.61-1.38-2.99c-.31-.92-.46-1.61-.46-2.07v-1.38c.15-.613.23-1.303.23-2.07q0-4.37-1.38-12.65c-.31-1.687-.92-4.293-1.84-7.82q-1.38-5.29-2.76-10.81c-1.08-4.293-2.3-8.97-3.68-14.03-.62-2.147-1-3.22-1.15-3.22q-1.62 0-5.52 2.07c-2.46 1.227-5.29 2.837-8.51 4.83-3.22 1.84-6.6 3.91-10.12 6.21a380 380 0 0 0-9.89 6.21c-3.07 1.84-5.68 3.45-7.82 4.83q-3.45 1.84-4.14 1.84-3 0-4.83-2.07c-1.23-1.38-1.84-2.913-1.84-4.6 0-.92 1.3-2.223 3.91-3.91 2.45-1.84 5.59-3.833 9.43-5.98 3.68-2.147 7.74-4.37 12.19-6.67 4.29-2.3 8.28-4.37 11.96-6.21 3.83-1.84 6.97-3.373 9.43-4.6 2.6-1.227 3.91-1.84 3.91-1.84q-2.07-10.58-3.45-18.86c-.77-4.753-1.54-9.123-2.3-13.11-.62-3.987-.92-6.133-.92-6.44 0-1.993.38-3.45 1.15-4.37.92-1.073 1.91-1.61 2.99-1.61 1.68 0 2.76 1.15 3.22 3.45 1.68 8.28 3.22 15.64 4.6 22.08 1.53 6.44 2.99 11.653 4.37 15.64 1.38-.307 3.75-1.15 7.13-2.53 3.37-1.533 6.9-3.143 10.58-4.83a342 342 0 0 1 9.89-4.37c3.06-1.38 4.83-2.07 5.29-2.07.92 0 1.45.307 1.61.92.3.613.61 1.15.92 1.61m86.09 61.41c.77.767 1.15 1.227 1.15 1.38q0 .46-1.38 2.76c-.76 1.533-1.84 3.143-3.22 4.83a32.4 32.4 0 0 1-4.6 4.6c-1.53 1.227-3.06 1.84-4.6 1.84-3.22 0-5.82-.613-7.82-1.84a19.9 19.9 0 0 1-5.06-5.06 31.4 31.4 0 0 1-2.99-6.44c-.61-2.453-1.15-4.753-1.61-6.9-.3-1.073-.61-1.61-.92-1.61q-.69 0-2.76 5.06c-1.38 3.22-2.91 6.823-4.6 10.81a243 243 0 0 1-4.6 10.81q-2.07 4.83-2.76 4.83c-2.76 0-5.13-1.15-7.13-3.45-1.84-2.453-3.37-5.213-4.6-8.28a76 76 0 0 1-2.53-9.66c-.61-3.373-.99-5.98-1.15-7.82-.46-4.14-1.45-11.04-2.99-20.7-1.53-9.66-2.83-21.39-3.91-35.19-.3-2.913-.69-5.52-1.15-7.82-.3-2.453-.69-5.137-1.15-8.05s-.84-6.21-1.15-9.89c-.3-3.68-.46-8.203-.46-13.57 0-.307.08-1.303.23-2.99q.24-2.53.69-5.52.465-2.99 1.38-5.29c.77-1.533 1.61-2.3 2.53-2.3 1.08 0 2.07.69 2.99 2.07.92 1.227 1.69 2.683 2.3 4.37.77 1.687 1.31 3.297 1.61 4.83.31 1.533.46 2.607.46 3.22 0 2.3-.15 4.447-.46 6.44-.3 1.993-.46 3.833-.46 5.52 0 2.3.16 5.213.46 8.74.46 3.527 1 7.13 1.61 10.81.62 3.68 1.15 7.283 1.61 10.81.46 3.373.85 6.133 1.15 8.28 0 .153.16 1.227.46 3.22.31 1.993.62 4.523.92 7.59.46 2.913.85 6.133 1.15 9.66l1.38 10.12c.46 3.22.85 6.133 1.15 8.74.46 2.453.77 4.217.92 5.29 0 .46.08 1.15.23 2.07q.465 1.15.69 2.76c.31 1.073.62 2.07.92 2.99.31.92.69 1.61 1.15 2.07q1.38-2.76 3.45-8.51a808 808 0 0 0 4.6-11.73c1.69-3.987 3.22-7.437 4.6-10.35 1.54-3.067 2.84-4.6 3.91-4.6 1.23 0 2.23.23 2.99.69.77.46 1.77.843 2.99 1.15 1.54.613 2.3 1.457 2.3 2.53 0 .92.16 2.07.46 3.45q.465 2.76 1.38 7.36c.77 2.913 1.61 5.827 2.53 8.74.92 2.76 2 5.137 3.22 7.13 1.23 1.993 2.46 2.99 3.68 2.99.62 0 1.46-.767 2.53-2.3 1.08-1.687 2.53-2.607 4.37-2.76.31 0 .85.23 1.61.69.77.307 1.54.767 2.3 1.38m55.85-7.13q0 5.06-1.38 9.66c-.92 3.067-2.15 5.75-3.68 8.05q-2.31 3.45-5.52 5.52c-2 1.227-4.22 1.84-6.67 1.84-4.3 0-7.67-1.227-10.12-3.68-2.46-2.453-4.37-5.29-5.75-8.51-1.23-3.22-2.07-6.44-2.53-9.66-.31-3.373-.46-5.903-.46-7.59 0-2.76.38-5.827 1.15-9.2q1.38-5.29 3.45-9.66c1.53-2.913 3.22-5.367 5.06-7.36s3.75-2.99 5.75-2.99q.69 0 2.07.46c1.07.307 2.14.767 3.22 1.38q1.605.92 2.76 2.3a6.85 6.85 0 0 1 1.84 3.22c1.68.153 3.37.767 5.06 1.84q2.52 1.61 2.76 2.53c1.22 3.987 1.99 7.973 2.3 11.96q.69 5.98.69 9.89m-10.35-4.14q0-3.45-.69-7.13-.69-3.91-2.76-7.82c-.31.153-.69.23-1.15.23-.62 0-1.15-.077-1.62-.23-.3-.153-.61-.23-.91-.23-1.84 0-3.3.537-4.37 1.61-1.08.92-1.92 2.223-2.53 3.91-.46 1.533-.77 3.22-.92 5.06a61 61 0 0 0-.23 5.29c0 1.687.07 3.603.23 5.75.15 1.993.46 3.91.92 5.75.61 1.84 1.38 3.45 2.3 4.83.92 1.227 2.14 1.84 3.68 1.84 1.53 0 2.83-.767 3.91-2.3 1.07-1.687 1.91-3.603 2.53-5.75.61-2.147.99-4.217 1.15-6.21.3-2.147.46-3.68.46-4.6m102.64 25.53c0 .92-.31 1.84-.92 2.76a12 12 0 0 1-2.3 2.53q-1.155 1.15-2.76 2.07c-.92.46-1.77.69-2.53.69-2.61 0-5.98-.537-10.12-1.61q-5.985-1.84-9.66-5.52-3.915-3.91-6.9-9.2c-2-3.68-4.22-9.047-6.67-16.1a231 231 0 0 1-5.98 20.01c-2.15 6.593-5.68 12.65-10.58 18.17q-.465.46-1.38.46-1.62 0-3.45-1.61c-1.23-1.073-1.84-2.147-1.84-3.22s-.16-3.527-.46-7.36q-.24-5.98-.69-13.11c-.31-4.907-.62-9.813-.92-14.72-.16-5.06-.23-9.2-.23-12.42 0-1.533.07-3.527.23-5.98q.225-3.91 1.38-6.67c.15-.307.69-.92 1.61-1.84q1.605-1.38 3.45-1.38c1.07 0 1.68.69 1.84 2.07.15 1.38.23 2.913.23 4.6v36.34c0 .767.07 1.84.23 3.22.3 1.38.69 2.377 1.15 2.99 1.68-3.68 3.22-7.973 4.6-12.88 1.53-5.06 2.99-9.813 4.37-14.26q2.07-6.9 4.14-11.5 2.07-4.83 4.14-4.83c1.53 0 2.76.307 3.68.92s1.68 1.84 2.3 3.68c.76 4.447 1.38 8.433 1.84 11.96.46 3.373.99 6.44 1.61 9.2.76 2.76 1.76 5.367 2.99 7.82q2.07 3.45 5.52 6.44c2.14 1.993 4.52 3.45 7.13 4.37 2.76.92 5.13 1.38 7.13 1.38.92 0 1.91-.153 2.99-.46 1.07-.46 1.84-.69 2.3-.69.61 0 1.15.537 1.61 1.61.61 1.073.92 1.763.92 2.07"/><path fill="#000" d="m452.08 818.65 2.499 3.123.031-.025.031-.025zm-2.99 1.84-1.789-3.578zm-4.14 1.84 1.265 3.795.111-.037.11-.044zm-3.91.92-.496-3.969-.212.026-.208.049zm-8.05 1.15.222 3.994zm-7.82.92-.737-3.931-4.02.753.843 4.002zm-.46 31.05-3.641-1.655-.032.07-.029.07zm-7.82 3.45-3.578 1.789.141.281.182.255zm-.46-7.36-3.831-1.149-.042.139-.032.142zm.46-7.36-3.986.332.001.015.001.015zm-.69-5.98-3.991.266.01.15.021.15zm-.69-6.67-3.991.266.01.15.021.15zm-.46-5.06 3.96-.566-.491-3.434h-3.469zm-5.75.46.266 3.991.132-.009.131-.017zm-9.89-.69-1.486 3.714.059.023.06.022zm-.46-7.36 2.828-2.828-1.821-1.822-2.411.905zm3.68.46.496 3.969.187-.023.185-.041zm4.14-.92-.784-3.922-.042.008-.042.009zm3.91-.92 1.099 3.846.155-.044.15-.057zm.92-5.75-3.946.658.018.105.023.105zm-1.84-8.97-3.935.716.019.106.025.104zm-1.84-9.89-3.96.566.013.091.018.091zm-.69-8.05-3.922-.784-.078.388v.396zm.46-2.3-3.714-1.486-.136.341-.072.361zm1.15-2.07 3.2 2.4zm7.13 1.84 3.894-.916-.007-.027-.006-.027zm2.76 14.26-3.96.566.012.081.015.081zm1.84 10.81-3.956.593.018.116.024.115zm1.61 6.9-3.859 1.052.06.221.085.213zm2.76 2.3v4h.249l.247-.031zm10.35-1.38-.467-3.973-.05.006-.049.007zm7.82-.92-.467-3.973zm7.82 0-.784 3.922.034.007.034.006zm2.53 1.61h-4c0-.551.137-.967.237-1.202.1-.233.198-.366.218-.393.03-.04-.057.08-.396.362l2.561 3.073 2.561 3.073c.581-.484 1.184-1.055 1.674-1.708.434-.579 1.145-1.701 1.145-3.205zm-1.38 1.84-2.499-3.123c-.479.383-1.214.852-2.28 1.385l1.789 3.578 1.789 3.578c1.387-.694 2.646-1.451 3.7-2.295zm-2.99 1.84-1.789-3.578a51 51 0 0 1-3.837 1.704l1.486 3.714 1.486 3.714a60 60 0 0 0 4.443-1.976zm-4.14 1.84-1.265-3.795c-1.173.391-2.217.63-3.141.746l.496 3.969.496 3.969c1.529-.191 3.092-.565 4.679-1.094zm-3.91.92-.916-3.894a42.3 42.3 0 0 1-7.356 1.05l.222 3.994.222 3.994a50.4 50.4 0 0 0 8.744-1.25zm-8.05 1.15-.222-3.994c-2.915.162-5.695.487-8.335.983l.737 3.931.737 3.931q3.398-.638 7.305-.857zm-7.82.92-3.914.824q1.756 8.352 1.754 16.426h8c0-5.964-.645-11.99-1.926-18.074zm1.84 17.25h-4c0 5.548-.741 9.504-1.941 12.145l3.641 1.655 3.641 1.655c1.867-4.106 2.659-9.349 2.659-15.455zm-2.3 13.8-3.702-1.515c-.573 1.401-1.094 2.107-1.42 2.419-.147.141-.221.17-.214.167l.027-.008.019-.003v8c4.729 0 7.467-3.817 8.992-7.545zm-5.29 5.06v-4c.165 0 .333.025.489.073.154.047.267.106.336.15.126.08.075.087-.1-.158l-3.255 2.325-3.255 2.325c1.171 1.639 3.074 3.285 5.785 3.285zm-2.53-1.61 3.578-1.789c-.258-.515-.498-1.39-.498-2.811h-8c0 2.259.373 4.45 1.342 6.389zm-.92-4.6h4c0 .087-.006.102.004.01a7 7 0 0 1 .057-.387c.06-.364.159-.863.304-1.515l-3.905-.868-3.905-.868c-.288 1.299-.555 2.653-.555 3.628zm.46-2.76 3.831 1.149c.555-1.848.859-3.693.859-5.519h-8c0 .934-.156 2.002-.521 3.221zm.69-4.37h4c0-.537-.103-1.77-.246-3.352l-3.984.362-3.984.362q.114 1.252.168 1.957c.041.534.046.7.046.671zm-.23-2.99 3.986-.332q-.242-2.895-.716-6.214l-3.96.566-3.96.566q.446 3.122.664 5.746zm-.69-5.98 3.991-.266a93 93 0 0 0-.721-6.97l-3.96.566-3.96.566q.438 3.061.659 6.37zm-.69-6.67 3.991-.266c-.154-2.315-.315-4.128-.491-5.36l-3.96.566-3.96.566c.131.915.277 2.475.429 4.76zm-.46-5.06v-4c-1.775 0-3.883.176-6.279.495l.529 3.965.529 3.965c2.204-.294 3.93-.425 5.221-.425zm-5.75.46-.266-3.991c-2.369.158-3.582.221-3.874.221v8c.628 0 2.175-.09 4.406-.239zm-4.14.23v-4c-1.769 0-3.211-.253-4.383-.679l-1.367 3.759-1.367 3.759c2.201.801 4.593 1.161 7.117 1.161zm-5.75-.92 1.486-3.714a.8.8 0 0 1 .335.266c.023.031.032.05.032.049a1.2 1.2 0 0 1-.081-.289 5 5 0 0 1-.072-.912h-8c0 3.162 1.055 6.81 4.814 8.314zm-2.3-4.6h4c0-.097.017.15-.212.494-.24.36-.521.483-.544.491l-1.404-3.745-1.404-3.745c-1.25.468-2.451 1.281-3.304 2.561-.842 1.264-1.132 2.661-1.132 3.944zm1.84-2.76-2.828 2.828c1.159 1.16 2.694 1.862 4.438 1.862v-8c.207 0 .459.042.713.151.25.107.417.242.505.331zm1.61.69v4c.353 0 .83-.055 1.074-.082.372-.041.872-.101 1.492-.179l-.496-3.969-.496-3.969c-.607.076-1.065.131-1.383.166-.161.018-.27.029-.338.035l-.036.003.044-.002c.022-.001.072-.003.139-.003zm2.07-.23.868 3.905 1.035-.23 1.035-.23.517-.115.518-.115.517-.115.518-.115-.868-3.905-.868-3.905-1.035.23-1.035.23-.517.115-.518.115-.517.115-.518.115zm4.14-.92.784 3.922a55 55 0 0 0 4.225-.996l-1.099-3.846-1.099-3.846c-.938.268-2.13.551-3.595.844zm3.91-.92 1.404 3.745c.697-.261 1.451-.582 2.096-.986a5.5 5.5 0 0 0 1.215-1.007c.408-.46 1.125-1.453 1.125-2.902h-8c0-1.295.64-2.126.895-2.413a2.5 2.5 0 0 1 .525-.461c.032-.02-.135.08-.664.279zm1.84-1.15h4c0-.464-.083-.946-.112-1.118a31 31 0 0 0-.196-1.046c-.161-.809-.398-1.914-.707-3.304l-3.905.868-3.905.868c.305 1.37.528 2.411.673 3.136a27 27 0 0 1 .169.92l-.002-.016-.005-.048c-.002-.032-.01-.128-.01-.26zm-.92-4.6 3.946-.658a139 139 0 0 0-1.895-9.238l-3.891.926-3.891.926q1.123 4.72 1.785 8.702zm-1.84-8.97 3.935-.716q-.922-5.075-1.846-9.922l-3.929.748-3.929.748q.916 4.813 1.834 9.858zm-1.84-9.89 3.96-.566c-.463-3.241-.65-5.2-.65-6.104h-8c0 1.549.273 4.037.73 7.236zm-.69-6.67h4v-1.38h-8v1.38zm0-1.38 3.922.784.46-2.3-3.922-.784-3.922-.784-.46 2.3zm.46-2.3 3.714 1.486c.186-.466.402-.844.636-1.156l-3.2-2.4-3.2-2.4a13 13 0 0 0-1.664 2.984zm1.15-2.07 3.2 2.4a1.8 1.8 0 0 1-.713.565c-.265.118-.437.115-.417.115v-8c-1.896 0-3.9.693-5.27 2.52zm2.07-.92v4c.525 0 .907.042 1.171.095.263.053.364.107.364.107a.8.8 0 0 1-.207-.194.8.8 0 0 1-.149-.278l3.881-.97 3.881-.97c-.506-2.021-1.765-3.624-3.576-4.612-1.657-.904-3.556-1.178-5.365-1.178zm5.06 2.76-3.894.916c1.206 5.123 2.101 9.758 2.694 13.91l3.96-.566 3.96-.566c-.634-4.434-1.578-9.307-2.826-14.61zm2.76 14.26-3.933.728q1.141 6.163 1.817 10.675l3.956-.593 3.956-.593q-.704-4.689-1.863-10.945zm1.84 10.81-3.914.824c.62 2.945 1.175 5.332 1.665 7.128l3.859-1.052 3.859-1.052c-.43-1.577-.948-3.79-1.555-6.672zm1.61 6.9-3.714 1.486c.465 1.161 1.176 2.373 2.303 3.312a6.44 6.44 0 0 0 4.171 1.502v-8a1.56 1.56 0 0 1 .951.352c.207.172.152.235.003-.138zm2.76 2.3.496 3.969q5.55-.693 10.42-1.389l-.566-3.96-.566-3.96q-4.79.684-10.28 1.371zm10.35-1.38.467 3.973 7.82-.92-.467-3.973-.467-3.973-7.82.92zm7.82-.92.467 3.973c2.669-.314 4.107-.433 4.593-.433v-8c-1.047 0-2.983.188-5.527.487zm5.06-.46v4c-.182 0-.27-.017-.151-.002.08.01.213.029.413.063.399.066.965.172 1.714.321l.784-3.922.784-3.922a65 65 0 0 0-1.966-.369c-.402-.066-1.037-.169-1.578-.169zm2.76.46-.716 3.935c.286.052.464.101.558.133.102.034.047.028-.092-.061a2.5 2.5 0 0 1-.736-.756 3.04 3.04 0 0 1-.484-1.641h8c0-2.161-1.305-3.601-2.485-4.352-1.063-.677-2.289-1.004-3.329-1.193zm177.865-3.91-2.058-3.43-.176.106-.166.124zm-2.3 1.15-1.264-3.795-.112.037-.109.044zm-2.53 1.15 1.265 3.795.27-.09.254-.127zm-2.07 1.15-2.828-2.828-1.425 1.424.297 1.993zm1.61 10.81-3.956.589.002.01.001.009zm2.3 17.48-3.976.43.005.053.008.053zm-.23 26.91-3.846-1.099-.018.064-.016.065zm-7.36.69-3.854 1.071.037.131.046.129zm-2.07-9.2-3.966.517.013.1.018.099zm-1.15-10.35-3.996.174.004.094.009.094zm-.46-12.65-3.992.25.001.008v.008zm-.69-7.59-3.975.442.001.013.002.012zm-.92-7.59-3.969.496.002.016.003.017zm-.69-5.52 3.97-.496-.465-3.717-3.739.22zm-10.58 1.15.412 3.979.068-.007.067-.01zm-16.33 3.22-1.013-3.869-2.987.782v3.087zm.46 14.03-3.989.295.001.012zm.92 12.42-3.989.285.005.078.009.079zm1.15 12.65-3.989.285v.01zm0 15.64-3.794-1.265-.028.083-.024.083zm-6.44-1.15-3.577 1.789.057.115.065.111zm-2.07-6.44-3.939.695.004.021.004.021zm-1.15-8.05-3.993.222.006.11.012.11zm-.46-6.9 3.987-.332-.012-.139-.021-.137zm-1.61-13.8-3.993.228.004.062.005.062zm-.92-16.33 3.994-.222-.21-3.778h-3.784zm-2.3-.46-1.788 3.578.254.127.27.09zm-2.76-1.38-2.218 3.328.207.138.223.112zm-2.3-1.84 2.829-2.828zm1.61-6.44 2.148 3.375.105-.067.1-.073zm5.52-2.99 1.436 3.733 2.881-1.107-.341-3.068zm-.23-45.54-3.998-.121-.002.06v.061zm.23-15.41-3.969-.496-.031.247v.249zm1.15-4.37 3.76 1.367.018-.051.017-.051zm5.75-1.38-3.072 2.561.116.139.128.128zm1.84 2.99-3.745 1.404v.001zm.92 3.91-3.975.442.03.267.065.261zm.46 58.19h-4v4h4zm12.65-.69.25 3.992.124-.008.123-.015zm7.13-.92-.496-3.969-.016.002-.016.002zm5.98-.92.785 3.922 3.59-.718-.398-3.639zm-5.29-48.3 3.977-.436-.007-.065-.01-.065zm-.46-3.45h-4v.249l.031.247zm1.15-10.35-3.631-1.676-.032.068-.029.07zm7.82 0-3.897.899zm.92 8.74-3.996.16.001.045.003.045zm.46 7.36-3.992.25.001.008v.008zm.69 6.9-3.964.529.001.01zm5.29 38.87-3.963.539.471 3.461h3.492zm5.52.46-.657 3.946.174.029.177.013zm2.99 2.3h-4c0-.319.091-.717.321-1.085.213-.341.439-.485.471-.505l2.058 3.43 2.058 3.43c1.735-1.041 3.092-2.843 3.092-5.27zm-1.15 1.84-2.4-3.2c-.192.144-.549.35-1.164.555l1.264 3.795 1.265 3.795c1.225-.409 2.401-.969 3.435-1.745zm-2.3 1.15-1.485-3.714c-.891.356-1.837.788-2.833 1.286l1.788 3.578 1.789 3.578a30 30 0 0 1 2.227-1.014zm-2.53 1.15-1.264-3.795c-1.244.415-2.573 1.055-3.634 2.117l2.828 2.828 2.829 2.828c-.082.082-.11.084-.023.036.086-.048.253-.127.529-.219zm-2.07 1.15-3.956.589 1.61 10.81 3.956-.589 3.957-.589-1.61-10.81zm1.61 10.81-3.953.608a390 390 0 0 1 2.277 17.302l3.976-.43 3.977-.43a395 395 0 0 0-2.323-17.658zm2.3 17.48-3.963.536c.745 5.518 1.113 10.705 1.113 15.564h8c0-5.261-.398-10.807-1.186-16.636zm1.15 16.1h-4c0 3.683-.425 6.909-1.226 9.711l3.846 1.099 3.847 1.099c1.039-3.638 1.533-7.619 1.533-11.909zm-1.38 10.81-3.88-.97c-.293 1.17-.612 1.586-.687 1.665-.018.019.02-.024.112-.063.091-.039.136-.032.085-.032v8c2.152 0 4.107-.82 5.603-2.395 1.382-1.455 2.174-3.338 2.648-5.235zm-4.37 4.6v-4c.587 0 1.053.189 1.341.371.256.161.337.291.284.222a3.5 3.5 0 0 1-.318-.553 12 12 0 0 1-.525-1.281l-3.772 1.331-3.771 1.331c.517 1.467 1.163 2.896 2.032 4.031.845 1.105 2.399 2.548 4.729 2.548zm-2.99-3.91 3.855-1.071q-1.094-3.931-1.989-8.845l-3.936.716-3.935.716q.946 5.207 2.151 9.555zm-2.07-9.2 3.967-.517a263 263 0 0 1-1.133-10.195l-3.984.362-3.983.362q.468 5.142 1.167 10.505zm-1.15-10.35 3.997-.174c-.153-3.523-.227-5.977-.227-7.416h-8c0 1.628.081 4.234.234 7.764zm-.23-7.59h4c0-1.215-.084-3.014-.238-5.326l-3.992.266-3.991.266c.153 2.288.221 3.862.221 4.794zm-.23-5.06 3.993-.25a143 143 0 0 0-.71-7.807l-3.973.467-3.972.467q.448 3.809.67 7.373zm-.69-7.59 3.976-.442a349 349 0 0 0-.931-7.677l-3.965.529-3.964.529q.453 3.398.909 7.503zm-.92-7.59 3.97-.496-.69-5.52-3.97.496-3.969.496.69 5.52zm-.69-5.52-.234-3.993c-2.759.162-6.404.561-10.892 1.181l.546 3.962.547 3.962c4.405-.607 7.814-.975 10.268-1.119zm-10.58 1.15-.411-3.979c-4.722.489-10.38 1.614-16.932 3.33l1.013 3.869 1.014 3.869c6.328-1.657 11.557-2.679 15.728-3.11zm-16.33 3.22h-4v2.76h8v-2.76zm0 2.76h-4c0 3.491.159 7.349.471 11.565l3.989-.295 3.99-.295q-.45-6.094-.45-10.975zm.46 11.27-3.988.307q.459 5.968.919 12.398l3.989-.285 3.99-.285q-.46-6.45-.921-12.442zm.92 12.42-3.975.442q.681 6.129 1.136 12.493l3.989-.285 3.99-.285q-.465-6.516-1.164-12.807zm1.15 12.65-3.989.295q.45 6.075.449 11.665h8q0-5.91-.47-12.255zm.46 11.96h-4c0 1.323-.139 2.069-.254 2.415l3.794 1.265 3.795 1.265c.498-1.494.665-3.201.665-4.945zm-.46 3.68-3.846-1.099c.015-.052.153-.47.643-.851.505-.393.989-.44 1.133-.44v8c1.219 0 2.583-.315 3.779-1.245 1.18-.918 1.816-2.14 2.138-3.266zm-2.07 1.61v-4c-.217 0-.291-.043-.336-.072-.072-.045-.29-.209-.578-.703l-3.456 2.015-3.455 2.015c1.656 2.838 4.314 4.745 7.825 4.745zm-4.37-2.76 3.578-1.789c-.723-1.446-1.31-3.225-1.716-5.388l-3.932.737-3.931.737c.514 2.744 1.307 5.258 2.424 7.492zm-2.07-6.44 3.94-.695a123 123 0 0 1-1.114-7.797l-3.976.442-3.975.442q.474 4.26 1.186 8.303zm-1.15-8.05 3.994-.222a262 262 0 0 0-.467-7.01l-3.987.332-3.986.332a258 258 0 0 1 .453 6.79zm-.46-6.9 3.954-.608c-.597-3.881-1.125-8.392-1.579-13.544l-3.985.352-3.984.352c.465 5.275 1.011 9.964 1.641 14.056zm-1.61-13.8 3.994-.228q-.46-8.047-.92-16.324l-3.994.222-3.993.222q.46 8.283.92 16.336zm-.92-16.33v-4c.017 0-.058.001-.25-.037a7 7 0 0 1-.785-.218l-1.265 3.795-1.264 3.795c1.119.373 2.346.665 3.564.665zm-2.3-.46 1.789-3.578-.345-.172-.345-.173-.345-.172-.345-.173-.086-.043-.086-.043-.086-.043-.087-.043-.086-.043-.086-.043c-.153-.077.067.033-.086-.044l-.087-.043-.086-.043-.086-.043-.086-.043-.087-.043-.086-.043-.086-.043c-.153-.077.067.033-.086-.044l-.087-.043-1.789 3.578-1.788 3.578.345.172.345.173.345.172.345.173.086.043.086.043.086.043.087.043.086.043.086.043c.153.077-.067-.033.086.044l.087.043.086.043.086.043.086.043.087.043.086.043.086.043c.153.077-.067-.033.086.044l.087.043zm-2.76-1.38 2.219-3.328c-.757-.505-1.306-.956-1.69-1.34l-2.829 2.828-2.828 2.828c.842.843 1.827 1.618 2.91 2.34zm-2.3-1.84 2.829-2.828c-.011-.011.063.061.137.226.077.174.114.365.114.532h-8c0 1.97.836 3.642 2.092 4.898zm-.92-2.07h4c0-.284.058-.405.095-.468.044-.078.18-.271.583-.527l-2.148-3.375-2.147-3.375c-2.721 1.732-4.383 4.402-4.383 7.745zm2.53-4.37 2.353 3.235a20 20 0 0 1 4.603-2.492l-1.436-3.733-1.435-3.733a28 28 0 0 0-6.437 3.488zm5.52-2.99 3.976-.442a36 36 0 0 1-.206-3.928h-8q0 2.5.255 4.812zm-.23-4.37h4v-8.51h-8v8.51zm0-8.51h4v-7.36h-8v7.36zm0-7.36h4v-11.27h-8v11.27zm0-11.27h4v-14.03h-8v14.03zm0-14.03 3.999.121q.231-7.652.231-15.531h-8q0 7.76-.228 15.289zm.23-15.41 3.97.496c.103-.829.387-1.98.94-3.499l-3.76-1.367-3.759-1.367c-.674 1.854-1.157 3.617-1.36 5.241zm1.15-4.37 3.795 1.265c.084-.252.156-.394.192-.457.036-.061.023-.021-.066.061a1.4 1.4 0 0 1-.45.274c-.2.077-.373.097-.481.097v-8a6.54 6.54 0 0 0-4.495 1.751c-1.162 1.073-1.855 2.442-2.289 3.744zm2.99-2.76v4a.6.6 0 0 1-.123-.016 1 1 0 0 1-.17-.061c-.108-.054-.107-.087-.019.018l3.072-2.561 3.073-2.561c-1.427-1.713-3.425-2.819-5.833-2.819zm2.76 1.38-2.828 2.828c.288.288.623.765.923 1.566l3.745-1.404 3.746-1.404c-.62-1.653-1.512-3.169-2.757-4.414zm1.84 2.99-3.745 1.405c.337.898.571 1.876.69 2.947l3.975-.442 3.976-.442a20.2 20.2 0 0 0-1.15-4.873zm.92 3.91-3.88.97c.255 1.019.34 1.753.34 2.25h8c0-1.343-.22-2.755-.579-4.19zm.46 3.22h-4v54.97h8v-54.97zm0 54.97v4c1.508 0 3.448-.083 5.787-.239l-.267-3.991-.266-3.991c-2.261.151-4.001.221-5.254.221zm5.52-.23.267 3.991q3.441-.23 7.113-.459l-.25-3.992-.249-3.992q-3.688.23-7.147.461zm7.13-.46.497 3.969q3.695-.462 7.162-.924l-.529-3.965-.528-3.965q-3.433.457-7.098.916zm7.13-.92.497 3.969c2.501-.313 4.601-.633 6.268-.967l-.785-3.922-.784-3.922c-1.4.28-3.287.572-5.692.873zm5.98-.92 3.977-.435-5.29-48.301-3.977.436-3.976.435 5.29 48.3zm-5.29-48.3 3.96-.566q-.224-1.57-.45-3.38l-3.97.496-3.969.496q.234 1.87.47 3.52zm-.46-3.45h4v-2.99h-8v2.99zm0-2.99h4c0-2.794.359-4.659.843-5.822l-3.693-1.538-3.692-1.538c-1.049 2.517-1.458 5.558-1.458 8.898zm1.15-7.36 3.632 1.676c.276-.597.476-.749.466-.741a.5.5 0 0 1-.116.057c-.062.02-.094.018-.072.018v-8c-3.741 0-6.204 2.416-7.541 5.314zm3.91-2.99v4c.232 0 .334.027.342.03.003 0-.017-.005-.053-.023a.86.86 0 0 1-.327-.293c-.021-.035.012.006.051.175l3.897-.899 3.898-.899c-.386-1.674-1.231-3.329-2.79-4.521-1.538-1.176-3.337-1.57-5.018-1.57zm3.91 2.99-3.897.899c.375 1.625.67 4.241.821 8.001l3.996-.16 3.997-.16c-.156-3.906-.474-7.117-1.019-9.479zm.92 8.74-3.992.25.46 7.36 3.992-.25 3.993-.25-.46-7.36zm.46 7.36-3.991.266q.24 3.582.717 7.163l3.964-.529 3.965-.529a101 101 0 0 1-.663-6.637zm.69 6.9-3.963.539 5.29 38.87 3.963-.539 3.964-.539-5.29-38.87zm5.29 38.87v4q2.425 0 4.863.406l.657-3.946.658-3.946a37.6 37.6 0 0 0-6.178-.514zm5.52.46-.306 3.988c.28.022.413.057.438.065s-.119-.032-.328-.193a2.15 2.15 0 0 1-.628-.796 1.9 1.9 0 0 1-.186-.764h8c0-1.793-.72-3.559-2.308-4.78-1.379-1.061-3.021-1.404-4.375-1.508zm128.763 30.36-3.385-2.131-.011.017-.011.018zm-10.12 11.73 2.664 2.984zm-14.95 9.89 1.67 3.635.04-.019.04-.019zm-26.45 2.53 1.149-3.831zm-8.97-3.91-2.136 3.382.065.041.067.039zm-7.82-6.44-3 2.646.04.046.042.044zm-5.06-8.74 3.794-1.265-2.046-6.14-4.577 4.577zm-3.45 4.6-3.365-2.163-.056.088-.052.09zm-4.14 6.67 3.255 2.325.037-.053.036-.053zm-5.06 5.75 2.56 3.073.073-.061.07-.063zm-10.81-.69-3.473 1.985.086.15.098.142zm-2.99-6.9-3.838 1.129.01.032.01.032zm-1.61-7.36-3.965.529zm1.15-14.26 3.913.83.002-.012.003-.011zm4.83-16.1 3.728 1.45zm8.05-14.72-3.146-2.471-.027.035-.027.036zm14.95-4.14-3.832 1.149.073.244.103.232zm.92 11.04h-4v1.922l1.501 1.201zm2.3 1.38-1.486 3.714.402.16.426.072zm2.3.92-2.4 3.2.423.317.491.197zm1.61 1.61-3.714 1.486.119.297.165.275zm.46 6.67 3.922.784.013-.063.01-.063zm.69 14.03 3.949-.632zm3.68 10.35-3.43 2.058.023.039.025.039zm7.59 7.36-2.106 3.401.06.037.061.035zm29.9-1.38 2.058 3.43.016-.01.016-.01zm11.73-9.43-2.954-2.697-.006.006zm7.59-9.43 3.328 2.219.027-.041.027-.042zm-73.6-13.11-3.578 1.789.111.223.139.207zm0-3.22 3.328 2.219zm0-2.76-2.829 2.828.459.459.581.291zm-.46-.92h4v-4.986l-4.868 1.081zm-4.37 3.91-3.328-2.219-.053.079-.049.082zm-4.14 8.05-3.648-1.641-.035.077-.031.078zm-2.99 9.43 3.88.97.006-.022.005-.022zm-.23 12.88-3.881.97zm2.07 4.83-2.829 2.828 3.972 3.973 2.455-5.053zm7.13-15.64-3.642-1.655-.021.046-.02.047zm84.18-4.83h-4c0 1.623-.82 4.288-3.295 8.219l3.385 2.131 3.385 2.131c2.738-4.349 4.525-8.584 4.525-12.481zm-3.91 10.35-3.407-2.096c-2.21 3.591-5.31 7.21-9.377 10.842l2.664 2.984 2.664 2.984c4.519-4.035 8.166-8.235 10.862-12.618zm-10.12 11.73-2.664-2.984c-3.994 3.566-8.663 6.663-14.036 9.277l1.75 3.597 1.75 3.597c5.973-2.906 11.27-6.402 15.864-10.503zm-14.95 9.89-1.67-3.635c-5.159 2.371-10.494 3.545-16.04 3.545v8c6.72 0 13.192-1.432 19.38-4.275zm-17.71 3.91v-4c-2.315 0-4.839-.386-7.591-1.211l-1.149 3.831-1.15 3.831c3.382 1.015 6.684 1.549 9.89 1.549zm-8.74-1.38 1.149-3.831c-2.753-.826-5.458-2.002-8.115-3.541l-2.004 3.462-2.004 3.462c3.169 1.834 6.444 3.265 9.824 4.279zm-8.97-3.91 2.136-3.382a35.7 35.7 0 0 1-7.038-5.794l-2.918 2.736-2.918 2.736a43.8 43.8 0 0 0 8.602 7.086zm-7.82-6.44 2.999-2.646c-1.954-2.215-3.365-4.661-4.265-7.359l-3.794 1.265-3.795 1.265c1.247 3.742 3.209 7.122 5.855 10.121zm-5.06-8.74-2.829-2.828c-1.232 1.232-2.569 3.061-3.986 5.265l3.365 2.163 3.364 2.163c1.343-2.089 2.307-3.327 2.914-3.935zm-3.45 4.6-3.473-1.985a110 110 0 0 1-3.995 6.436l3.328 2.219 3.328 2.219a119 119 0 0 0 4.285-6.904zm-4.14 6.67-3.255-2.325a32.7 32.7 0 0 1-4.508 5.126l2.703 2.949 2.703 2.949a40.8 40.8 0 0 0 5.612-6.374zm-5.06 5.75-2.561-3.073c-1.272 1.06-2.311 1.373-3.189 1.373v8c3.108 0 5.903-1.221 8.31-3.227zm-5.75 2.3v-4c-.389 0-.955-.088-1.771-1.267l-3.289 2.277-3.289 2.277c1.944 2.807 4.75 4.713 8.349 4.713zm-5.06-2.99 3.473-1.985a30.7 30.7 0 0 1-2.645-6.108L655.898 852l-3.818 1.193a38.7 38.7 0 0 0 3.335 7.692zm-2.99-6.9 3.837-1.129c-.718-2.442-1.207-4.693-1.482-6.76l-3.965.529-3.965.529c.338 2.533.922 5.189 1.737 7.96zm-1.61-7.36 3.965-.529a173 173 0 0 1-.338-2.641 51 51 0 0 1-.077-.702c-.02-.215-.01-.176-.01-.038h-8c0 .444.077 1.121.142 1.675q.12 1.025.353 2.764zm-.46-3.91h4c0-1.357.439-4.41 1.523-9.52l-3.913-.83-3.913-.83c-1.063 5.01-1.697 8.857-1.697 11.18zm1.61-10.35 3.918.807c1.023-4.971 2.565-10.123 4.64-15.457l-3.728-1.45-3.728-1.45c-2.219 5.706-3.897 11.288-5.02 16.743zm4.83-16.1 3.728 1.45c2.028-5.216 4.541-9.796 7.522-13.77l-3.2-2.4-3.2-2.4c-3.46 4.613-6.313 9.846-8.578 15.67zm8.05-14.72 3.145 2.471c2.806-3.571 5.645-4.911 8.585-4.911v-8c-5.954 0-10.935 2.954-14.876 7.969zm11.73-6.44v4c.242 0 .054.051-.255-.17a1.3 1.3 0 0 1-.313-.317c-.06-.09-.062-.126-.044-.064l3.832-1.149 3.831-1.149c-.429-1.43-1.254-2.829-2.656-3.831-1.383-.988-2.951-1.32-4.395-1.32zm3.22 2.3-3.656 1.625c.408.917.576 1.746.576 2.515h8c0-1.991-.446-3.922-1.265-5.765zm.92 4.14h-4v6.9h8v-6.9zm0 6.9-2.499 3.123c1.017.814 2.12 1.494 3.313 1.971l1.486-3.714 1.485-3.714c-.34-.136-.771-.377-1.286-.789zm2.3 1.38-.658 3.946c.423.07.557.173.558.174l2.4-3.2 2.4-3.2c-1.226-.919-2.626-1.429-4.043-1.666zm2.3.92-1.486 3.714a1.2 1.2 0 0 1-.365-.253 1.2 1.2 0 0 1-.253-.365l3.714-1.486 3.714-1.486a6.78 6.78 0 0 0-3.839-3.838zm1.61 1.61-3.43 2.058c-.09-.15-.044-.144.016.174.056.303.104.772.104 1.448h8c0-1.871-.223-4.009-1.26-5.738zm.69 3.68h-4c0 .885-.064 1.659-.176 2.332l3.946.658 3.945.658c.195-1.167.285-2.386.285-3.648zm-.23 2.99-3.923-.784a15.7 15.7 0 0 0-.307 3.084h8q-.001-.746.152-1.516zm-.23 2.3h-4q-.001 6.29.97 12.362l3.95-.632 3.949-.632a70 70 0 0 1-.869-11.098zm.92 11.73-3.95.632c.687 4.294 2.075 8.235 4.2 11.776l3.43-2.058 3.43-2.058c-1.556-2.593-2.621-5.551-3.161-8.924zm3.68 10.35-3.382 2.136c2.195 3.476 5.182 6.344 8.866 8.625l2.106-3.401 2.105-3.401c-2.756-1.706-4.828-3.744-6.313-6.095zm7.59 7.36-1.985 3.473c4.036 2.306 9.094 3.287 14.865 3.287v-8c-4.963 0-8.491-.859-10.896-2.233zm12.88 2.76v4c7.287 0 13.715-1.492 19.078-4.71l-2.058-3.43-2.058-3.43c-3.837 2.302-8.756 3.57-14.962 3.57zm17.02-4.14 2.09 3.41c5.007-3.068 9.229-6.442 12.6-10.149l-2.96-2.691-2.96-2.691c-2.763 3.04-6.361 5.953-10.86 8.711zm11.73-9.43 2.954 2.697c3.302-3.617 5.974-6.924 7.964-9.908l-3.328-2.219-3.328-2.219c-1.691 2.536-4.079 5.516-7.216 8.952zm7.59-9.43 3.382 2.136c.839-1.329 1.478-2.11 1.903-2.514.205-.195.275-.218.204-.181-.078.041-.392.189-.889.189v-8c-2.165 0-3.813 1.231-4.825 2.192-1.109 1.054-2.156 2.457-3.157 4.042zm4.6-4.37v4c.38 0-.07.092-.586-.424-.517-.516-.424-.966-.424-.586h8c0-1.613-.406-3.558-1.919-5.071s-3.458-1.919-5.071-1.919zm-77.74-7.13h4c0-1.313-.34-2.641-1.132-3.829l-3.328 2.219-3.328 2.219a1.3 1.3 0 0 1-.173-.373 1 1 0 0 1-.039-.236zm-.46-1.61 3.577-1.789c-.066-.133-.081-.188-.076-.172.004.015.039.14.039.351h-8c0 1.311.423 2.48.882 3.399zm-.46-1.61h4a1 1 0 0 1-.039.236 1.4 1.4 0 0 1-.173.373l-3.328-2.219-3.328-2.219c-.792 1.188-1.132 2.516-1.132 3.829zm.46-1.61 3.328 2.219c.884-1.326 1.132-2.798 1.132-4.059h-8c0 .123-.013.134.004.065.019-.075.073-.242.208-.444zm.46-1.84h4c0-1.371-.543-3.433-2.671-4.498l-1.789 3.578-1.789 3.578a3.25 3.25 0 0 1-1.444-1.444 2.76 2.76 0 0 1-.307-1.214zm-.46-.92 2.828-2.828c.129.129.712.78.712 1.908h-8c0 1.742.889 3.006 1.631 3.748zm-.46-.92-.868-3.905c-2.993.665-5.202 3.153-6.83 5.596l3.328 2.219 3.328 2.219c.65-.975 1.185-1.585 1.581-1.941.404-.361.515-.325.328-.283zm-4.37 3.91-3.43-2.058c-1.478 2.463-2.929 5.291-4.358 8.467l3.648 1.641 3.647 1.641c1.331-2.957 2.641-5.496 3.923-7.633zm-4.14 8.05-3.714-1.486a71 71 0 0 0-3.167 9.99l3.891.926 3.891.926a63 63 0 0 1 2.813-8.87zm-2.99 9.43-3.881-.97c-.805 3.222-1.269 6.107-1.269 8.56h8c0-1.533.303-3.709 1.03-6.62zm-1.15 7.59h-4c0 1.613.424 3.801 1.039 6.26l3.881-.97 3.88-.97c-.612-2.447-.8-3.787-.8-4.32zm.92 5.29-3.881.97c.338 1.351.725 2.587 1.182 3.653.437 1.02 1.044 2.139 1.94 3.035l2.829-2.828 2.828-2.828c.13.13.009.06-.244-.53-.233-.544-.498-1.34-.774-2.442zm2.07 4.83 3.598 1.748a341 341 0 0 0 7.214-15.826l-3.682-1.562-3.683-1.562a334 334 0 0 1-7.045 15.454zm7.13-15.64 3.641 1.655c2.505-5.511 3.809-11.056 3.809-16.605h-8c0 4.264-.997 8.686-3.092 13.295zm152.56 5.98 3.831 1.149.015-.048.013-.049zm-1.38 3.91 3.328 2.219.204-.306.144-.337zm-4.37 4.83-2.908-2.746-.005.005zm-9.43 8.28-2.421-3.185-.031.024-.031.025zm-12.65 8.05 1.789 3.578.023-.012.022-.012zm-21.39 2.07-1.331 3.772.033.012.033.011zm-7.36-4.37-2.729 2.924.053.05.056.049zm-5.75-7.82-3.648 1.641.034.075.036.073zm1.61-31.28 3.7 1.518zm7.36-14.26 3.283 2.284.047-.067.044-.069zm4.14-5.06 2.828 2.828zm5.29-4.83 2.533 3.096.08-.066.077-.07zm4.6-3.68-2.058-3.43-.082.049-.079.053zm6.9-.23-2.325 3.255.1.072.105.065zm.69 5.52-3.073-2.561-.026.031-.025.031zm-2.76 2.76 2.4 3.2.12-.09.114-.1zm-4.37 3.91 2.691 2.96.07-.064.067-.068zm-5.29 6.21 3.235 2.353.016-.023.017-.023zm-8.28 15.64-3.784-1.297-.011.033-.011.033zm1.84 23.46-2.577 3.06.087.072.09.068zm24.84-.46-1.972-3.48-.026.014-.025.015zm11.73-8.74-2.829-2.828zm7.82-8.74-3.178-2.43zm6.9 0h-4c0 1.132-.17 2.387-.549 3.778l3.859 1.052 3.859 1.052c.541-1.982.831-3.947.831-5.882zm-.69 4.83-3.831-1.149c-.432 1.437-.843 2.589-1.226 3.483l3.677 1.576 3.676 1.576c.537-1.253 1.046-2.707 1.535-4.337zm-1.38 3.91-3.328-2.219c.047-.071-.16.203-.961 1.088-.7.774-1.693 1.842-2.989 3.215l2.908 2.746 2.908 2.746a218 218 0 0 0 3.105-3.34c.657-.725 1.331-1.486 1.685-2.017zm-4.37 4.83-2.913-2.741c-2.26 2.401-5.224 5.014-8.938 7.836l2.421 3.185 2.42 3.185c3.954-3.005 7.276-5.912 9.923-8.724zm-9.43 8.28-2.483-3.136c-3.452 2.733-7.446 5.28-12.002 7.632l1.835 3.554 1.834 3.554c4.952-2.555 9.391-5.374 13.299-8.468zm-12.65 8.05-1.789-3.578c-4.153 2.077-7.99 3.028-11.551 3.028v8c5.025 0 10.082-1.349 15.129-3.872zm-13.34 3.45v-4c-2.13 0-4.386-.375-6.785-1.175l-1.265 3.795-1.265 3.795c3.121 1.04 6.231 1.585 9.315 1.585zm-8.05-1.38 1.331-3.772c-2.088-.737-4.112-1.922-6.071-3.621l-2.62 3.023-2.62 3.023c2.641 2.288 5.524 4.016 8.649 5.119zm-7.36-4.37 2.729-2.924c-1.922-1.794-3.562-4.006-4.901-6.685l-3.578 1.789-3.578 1.789c1.727 3.454 3.92 6.456 6.599 8.955zm-5.75-7.82 3.648-1.641c-1.086-2.413-1.718-5.575-1.718-9.629h-8c0 4.839.748 9.191 2.422 12.911zm-2.07-11.27h4c0-6.911 1.15-13.056 3.38-18.492l-3.7-1.518-3.701-1.518c-2.676 6.524-3.979 13.719-3.979 21.528zm3.68-20.01 3.7 1.518c2.393-5.831 4.718-10.294 6.943-13.494l-3.283-2.284-3.284-2.284c-2.681 3.853-5.262 8.897-7.777 15.026zm7.36-14.26 3.374 2.148c.89-1.399 2.076-2.861 3.594-4.38l-2.828-2.828-2.829-2.828c-1.854 1.854-3.429 3.766-4.686 5.74zm4.14-5.06 2.828 2.828c1.764-1.763 3.428-3.281 4.995-4.562l-2.533-3.096-2.533-3.096c-1.807 1.479-3.669 3.181-5.586 5.098zm5.29-4.83 2.69 2.96c1.59-1.445 2.963-2.535 4.129-3.312l-2.219-3.328-2.219-3.328c-1.595 1.063-3.288 2.426-5.072 4.048zm4.6-3.68 2.058 3.43c.684-.41 1.165-.656 1.472-.788.151-.065.211-.081.196-.077a2 2 0 0 1-.134.028 2.4 2.4 0 0 1-.372.027v-8c-1.142 0-2.175.383-2.841.668-.765.328-1.588.772-2.437 1.282zm3.22-1.38v4c.587 0 .993.146 1.355.405l2.325-3.255 2.325-3.255c-1.785-1.274-3.833-1.895-6.005-1.895zm3.68 1.15-2.12 3.392c.394.247.451.35.376.257-.099-.124-.416-.595-.416-1.349h8c0-3.013-2.324-4.82-3.72-5.692zm1.84 2.3h-4c0 .316-.071.477-.223.659l3.073 2.561 3.073 2.561c1.381-1.658 2.077-3.643 2.077-5.781zm-1.15 3.22-3.124-2.499c-.401.502-1.122 1.244-2.27 2.249l2.634 3.01 2.634 3.01c1.305-1.141 2.424-2.239 3.249-3.271zm-2.76 2.76-2.4-3.2c-1.437 1.078-3.043 2.526-4.799 4.282l2.829 2.828 2.828 2.828c1.618-1.617 2.925-2.776 3.942-3.538zm-4.37 3.91-2.691-2.96c-1.969 1.79-3.92 4.105-5.867 6.863l3.268 2.307 3.268 2.307c1.733-2.456 3.308-4.28 4.713-5.557zm-5.29 6.21-3.235-2.353c-3.891 5.35-6.847 10.915-8.829 16.696l3.784 1.297 3.784 1.297c1.698-4.953 4.261-9.814 7.731-14.584zm-8.28 15.64-3.806-1.231c-1.771 5.473-2.724 10.503-2.724 15.031h8c0-3.445.733-7.615 2.336-12.569zm-2.53 13.8h-4c0 5.103 1.93 9.467 5.793 12.72l2.577-3.06 2.576-3.06c-1.963-1.653-2.946-3.73-2.946-6.6zm4.37 9.66-2.4 3.2c3.623 2.717 7.589 4.25 11.83 4.25v-8c-2.199 0-4.52-.767-7.03-2.65zm9.43 3.45v4c6.443 0 12.296-1.448 17.433-4.459l-2.023-3.451-2.023-3.451c-3.756 2.202-8.177 3.361-13.387 3.361zm15.41-3.91 1.972 3.48c4.864-2.756 9.074-5.88 12.586-9.392l-2.828-2.828-2.829-2.828c-2.928 2.928-6.538 5.631-10.873 8.088zm11.73-8.74 2.828 2.828c3.301-3.301 6.036-6.349 8.169-9.138l-3.177-2.43-3.178-2.43c-1.853 2.424-4.332 5.203-7.471 8.342zm7.82-8.74 3.177 2.43c.932-1.219 1.619-1.972 2.077-2.382.228-.203.307-.239.249-.206-.034.018-.447.248-1.133.248v-8c-1.146 0-2.086.393-2.714.737-.653.358-1.235.812-1.736 1.26-.998.893-2.036 2.095-3.098 3.483zm4.37-3.91v4c-.098 0-.379-.021-.725-.2a1.95 1.95 0 0 1-.736-.649c-.116-.179-.109-.254-.077-.108.03.143.068.419.068.867h8c0-1.607-.237-3.502-1.274-5.106-1.232-1.903-3.196-2.804-5.256-2.804zm102.158 23.92 3.328 2.219.138-.207.111-.223zm-2.3 1.15-.971-3.881-.149.038-.145.048zm-5.29 1.61.899 3.898.1-.024.099-.028zm-6.67 1.61.737 3.931.117-.021.116-.029zm-7.59 1.38.496 3.969.1-.012.099-.018zm-15.64 0-.398 3.98.009.001.009.001zm-8.97-1.38-1.018 3.868.096.026.098.02zm-8.05-2.3-1.486 3.714.144.058.148.046zm-5.06-3.22 3.01-2.634-6.902 3.56zm2.07 9.66-3.93.748zm1.38 9.66h4v-.19l-.018-.189zm-.69 2.07-3.2-2.4-.067.089-.062.092zm-5.29.23-2.4 3.2.423.317.491.197zm-1.61-2.53 3.745-1.404-.045-.121-.053-.116zm-3.45-8.51-3.795 1.265.011.033.012.033zm-2.53-8.28-3.905.868.022.102.028.101zm-2.07-8.74-3.881.97zm-2.76-10.12-3.85 1.086.005.017.005.017zm-5.29-19.09-3.865 1.031.003.011.002.01zm-5.06-19.55-3.887.948.003.011.003.011zm-3.68-16.56-3.932.737.002.012.002.011zm-1.38-14.03-3.981-.398-.019.198v.2zm.69-4.37-3.832-1.149-.042.139-.031.142zm1.61-3.68-3.255-2.325-.038.053-.036.053zm5.29 2.07-3.818 1.193.046.148.058.145zm2.3 7.82-3.915.824.026.124.034.123zm1.84 8.05-3.94.695.025.139.034.136zm.92 3.91h-4v.361l.064.355zm2.07 11.27-3.934.728.016.086.02.085zm2.76 12.19-3.905.868zm2.99 11.96-3.852 1.079.006.02.006.021zm3.45 9.43-3.62 1.703 6.16 13.09 1.44-14.395zm1.61-6.67-3.815-1.205zm3.68-9.43-3.642-1.655zm5.06-10.35-3.518-1.905-.014.027-.015.028zm5.98-9.89-3.221-2.373-.041.057-.04.057zm6.21-7.13-2.604-3.037-.055.048-.055.05zm11.96-1.61-2.325 3.255.1.072.105.065zm-2.07 8.28 2.828 2.828.04-.04.04-.042zm-8.74 10.58 3.2 2.4.02-.027.019-.027zm-8.74 15.41 3.651 1.633.008-.017.007-.018zm-1.84 26.45-3.289 2.277.101.147.115.137zm5.75 4.6-1.883 3.529.047.025.047.024zm8.05 2.99-1.018 3.868.116.031.117.023zm17.48.69-.2-3.995zm8.51-.46.234 3.993.104-.006.103-.011zm6.9-.69-.307-3.988-.013.001-.013.001zm5.75.46 2.4-3.2zm.92 2.3h-4c0 .457-.03.765-.061.952-.033.198-.053.171.023.019l3.578 1.789 3.577 1.789c.725-1.449.883-3.118.883-4.549zm-.46 2.76-3.329-2.219c.206-.308.417-.498.541-.596s.202-.134.194-.13c-.006.003-.06.029-.181.071-.119.041-.281.09-.496.143l.971 3.881.97 3.881c.776-.195 1.578-.453 2.313-.821.694-.346 1.649-.948 2.345-1.991zm-2.3 1.15-1.265-3.795c-1.305.435-3.007.954-5.124 1.559l1.099 3.846 1.098 3.846a136 136 0 0 0 5.456-1.661zm-5.29 1.61-.9-3.898q-3.033.701-6.741 1.627l.971 3.881.97 3.881q3.652-.913 6.599-1.593zm-6.67 1.61-.738-3.931q-3.657.685-7.548 1.372l.696 3.939.695 3.939q3.93-.693 7.632-1.388zm-7.59 1.38-.497-3.969c-2.312.289-4.445.429-6.403.429v8c2.335 0 4.802-.167 7.396-.491zm-6.9.46v-4c-2.455 0-5.239-.145-8.361-.442l-.379 3.982-.38 3.982c3.318.316 6.36.478 9.12.478zm-8.74-.46.398-3.98a80 80 0 0 1-8.544-1.314l-.824 3.914-.824 3.914a88 88 0 0 0 9.396 1.446zm-8.97-1.38 1.018-3.868a180 180 0 0 1-7.875-2.25l-1.193 3.818-1.194 3.818a189 189 0 0 0 8.226 2.35zm-8.05-2.3 1.485-3.714c-1.992-.797-3.038-1.572-3.535-2.14l-3.01 2.634-3.011 2.634c1.65 1.885 3.977 3.257 6.585 4.3zm-5.06-3.22-3.892.926q1.13 4.743 2.032 9.482l3.93-.748 3.929-.748a222 222 0 0 0-2.108-9.838zm2.07 9.66-3.93.748q.886 4.65 1.328 9.291l3.982-.379 3.982-.379a109 109 0 0 0-1.433-10.029zm1.38 9.66h-4c0-.023.004-.088.032-.172a.6.6 0 0 1 .078-.158l3.2 2.4 3.2 2.4a7.37 7.37 0 0 0 1.49-4.47zm-.69 2.07-3.329-2.219a3.06 3.06 0 0 1 1.098-1.014c.236-.126.385-.154.354-.147a3 3 0 0 1-.319.041q-.295.027-.794.029v8c.978 0 1.99-.062 2.912-.275.736-.17 2.368-.639 3.406-2.196zm-2.99.69v-4c-.22 0-.484-.042-.815-.174l-1.485 3.714-1.486 3.714c1.202.481 2.472.746 3.786.746zm-2.3-.46 2.4-3.2c.176.132.196.207.112.075-.082-.128-.216-.381-.377-.809l-3.745 1.404-3.746 1.404c.56 1.493 1.437 3.187 2.956 4.326zm-1.61-2.53 3.647-1.641q-2.013-4.478-3.325-8.2l-3.772 1.331-3.772 1.331c.964 2.732 2.158 5.673 3.574 8.82zm-3.45-8.51 3.794-1.265a166 166 0 0 1-2.47-8.086l-3.854 1.071-3.855 1.071a176 176 0 0 0 2.59 8.474zm-2.53-8.28 3.904-.868a344 344 0 0 0-2.094-8.842l-3.88.97-3.881.97a340 340 0 0 1 2.046 8.638zm-2.07-8.74 3.88-.97a277 277 0 0 0-2.8-10.27l-3.84 1.12-3.84 1.12a270 270 0 0 1 2.719 9.97zm-2.76-10.12 3.849-1.086a2288 2288 0 0 1-5.28-19.056l-3.859 1.052-3.86 1.052a2317 2317 0 0 0 5.3 19.124zm-5.29-19.09 3.864-1.031a1297 1297 0 0 1-5.044-19.489l-3.88.97-3.881.97a1298 1298 0 0 0 5.076 19.611zm-5.06-19.55 3.886-.948q-2.284-9.363-3.639-16.372l-3.927.76-3.928.76q1.405 7.251 3.721 16.748zm-3.68-16.56 3.931-.737c-.922-4.919-1.311-8.035-1.311-9.613h-8c0 2.408.53 6.192 1.448 11.087zm-1.38-10.35h4v-3.68h-8v3.68zm0-3.68 3.98.398q.21-2.083.614-3.9l-3.904-.868-3.905-.868a41 41 0 0 0-.766 4.84zm.69-4.37 3.831 1.149c.392-1.308.787-2.131 1.107-2.61l-3.328-2.219-3.329-2.219c-.907 1.361-1.585 2.991-2.113 4.75zm1.61-3.68 3.254 2.325c.046-.063.068-.082.061-.075a.7.7 0 0 1-.264.129c-.051.012-.075.011-.061.011v-8c-2.629 0-4.794 1.253-6.245 3.285zm2.99-1.61v4a3.1 3.1 0 0 1-1.924-.647c-.285-.228-.373-.401-.318-.313.041.067.138.241.274.568.134.32.285.737.45 1.265l3.818-1.193 3.817-1.193c-.419-1.342-.923-2.643-1.575-3.687-.49-.783-1.913-2.8-4.542-2.8zm2.3 3.68-3.714 1.486c.819 2.048 1.524 4.427 2.099 7.158l3.915-.824 3.914-.824c-.652-3.096-1.48-5.93-2.501-8.482zm2.3 7.82-3.855 1.071a82 82 0 0 1 1.755 7.674l3.94-.695 3.939-.695a90 90 0 0 0-1.925-8.426zm1.84 8.05-3.881.97c.305 1.222.53 2.139.677 2.764.074.315.123.533.152.669l.016.081-.015-.104c-.003-.024-.029-.215-.029-.47h8c0-.42-.073-.792-.074-.797a10 10 0 0 0-.07-.358 41 41 0 0 0-.193-.854 233 233 0 0 0-.703-2.871zm.92 3.91-3.936.716q.921 5.067 2.072 11.282l3.934-.728 3.933-.728a3427 3427 0 0 1-2.068-11.258zm2.07 11.27-3.898.899q1.376 5.964 2.753 12.159l3.905-.868 3.904-.868q-1.383-6.225-2.767-12.221zm2.76 12.19-3.905.868a232 232 0 0 0 3.043 12.171l3.852-1.079 3.851-1.079a224 224 0 0 1-2.937-11.749zm2.99 11.96-3.84 1.12c1.113 3.819 2.332 7.168 3.67 10.013l3.62-1.703 3.619-1.703c-1.115-2.369-2.197-5.306-3.229-8.847zm3.45 9.43 3.98.398c.11-1.108.543-3.01 1.444-5.863l-3.814-1.205-3.815-1.205c-.939 2.973-1.58 5.518-1.776 7.477zm1.61-6.67 3.814 1.205c.862-2.732 2.027-5.723 3.507-8.98l-3.641-1.655-3.642-1.655c-1.586 3.49-2.875 6.785-3.853 9.88zm3.68-9.43 3.641 1.655a208 208 0 0 1 4.965-10.155l-3.546-1.85-3.547-1.85a216 216 0 0 0-5.155 10.545zm5.06-10.35 3.517 1.905c1.939-3.58 3.861-6.756 5.764-9.536l-3.301-2.259-3.302-2.259c-2.084 3.046-4.148 6.464-6.196 10.244zm5.98-9.89 3.22 2.373c2.042-2.772 3.946-4.942 5.703-6.564l-2.713-2.939-2.714-2.939c-2.229 2.058-4.466 4.642-6.717 7.696zm6.21-7.13 2.603 3.037c1.794-1.538 2.888-1.797 3.377-1.797v-8c-3.192 0-6.084 1.581-8.584 3.723zm5.98-2.76v4c1.302 0 2.258.087 2.924.216.706.135.847.272.731.189l2.325-3.255 2.325-3.255c-1.19-.849-2.583-1.288-3.87-1.536-1.327-.255-2.825-.359-4.435-.359zm5.98 1.15-2.12 3.392c.273.171.261.226.171.092a1.37 1.37 0 0 1-.211-.724h8c0-2.914-1.779-4.938-3.72-6.152zm1.84 2.76h-4c0-.626.194-.965.138-.846-.028.06-.132.254-.38.604-.495.699-1.328 1.693-2.577 3.015l2.909 2.747 2.908 2.746c1.357-1.437 2.48-2.743 3.288-3.884.404-.57.789-1.181 1.086-1.811.27-.571.628-1.485.628-2.571zm-3.91 5.52-2.829-2.828c-2.81 2.809-5.861 6.518-9.151 11.062l3.24 2.346 3.239 2.346c3.15-4.35 5.925-7.694 8.329-10.098zm-8.74 10.58-3.2-2.4c-3.441 4.588-6.502 10.006-9.207 16.212l3.667 1.598 3.666 1.598c2.509-5.754 5.275-10.609 8.274-14.608zm-8.74 15.41-3.652-1.633c-2.864 6.403-4.258 13.486-4.258 21.183h8c0-6.716 1.212-12.666 3.561-17.917zm-3.91 19.55h-4c0 3.356.902 6.464 2.781 9.177l3.289-2.277 3.288-2.277c-.881-1.273-1.358-2.766-1.358-4.623zm2.07 6.9-3.073 2.561c1.892 2.27 4.225 4.12 6.94 5.568l1.883-3.529 1.882-3.529c-1.885-1.006-3.385-2.222-4.56-3.632zm5.75 4.6-1.789 3.578c2.722 1.361 5.667 2.45 8.821 3.28l1.018-3.868 1.018-3.868c-2.673-.704-5.095-1.608-7.28-2.7zm8.05 2.99-.785 3.922c3.306.662 6.559.998 9.755.998v-8c-2.632 0-5.359-.277-8.186-.842zm8.97.92v4q4.025 0 8.709-.235l-.199-3.995-.2-3.995q-4.517.226-8.31.225zm8.51-.23.199 3.995q4.615-.231 8.545-.462l-.234-3.993-.235-3.993q-3.89.228-8.475.458zm8.51-.46.441 3.976c2.74-.305 5.001-.531 6.791-.68l-.332-3.986-.333-3.986a266 266 0 0 0-7.009.7zm6.9-.69.306 3.988c2.06-.158 3.104-.218 3.374-.218v-8c-.651 0-2.06.094-3.987.242zm3.68-.23v4a.6.6 0 0 1-.173-.033.6.6 0 0 1-.157-.077l2.4-3.2 2.4-3.2a7.37 7.37 0 0 0-4.47-1.49zm2.07.69-2.4 3.2a1.9 1.9 0 0 1-.624-.794c-.083-.208-.056-.279-.056-.106h8c0-1.796-.537-4.012-2.52-5.5zm116.254-10.58-3.39-2.131-.01.017-.01.018zM1034 849.24l2.66 2.984zm-14.95 9.89 1.67 3.635.04-.019.04-.019zm-26.454 2.53 1.15-3.831zm-8.97-3.91-2.136 3.382.065.041.067.039zm-7.82-6.44-2.999 2.646.04.046.041.044zm-5.06-8.74 3.795-1.265-2.047-6.14-4.576 4.577zm-3.45 4.6-3.365-2.163-.056.088-.052.09zm-4.14 6.67 3.255 2.325.038-.053.035-.053zm-5.06 5.75 2.561 3.073.072-.061.07-.063zm-10.81-.69-3.473 1.985.086.15.098.142zm-2.99-6.9-3.837 1.129.009.032.01.032zm-1.61-7.36-3.965.529zm1.15-14.26 3.913.83.003-.012.002-.011zm4.83-16.1 3.728 1.45zm8.05-14.72-3.145-2.471-.028.035-.027.036zm14.95-4.14-3.831 1.149.073.244.103.232zm.92 11.04h-4v1.922l1.501 1.201zm2.3 1.38-1.485 3.714.401.16.427.072zm2.3.92-2.4 3.2.423.317.492.197zm1.61 1.61-3.714 1.486.119.297.165.275zm.46 6.67 3.922.784.013-.063.011-.063zm.69 14.03 3.95-.632zm3.68 10.35-3.43 2.058.024.039.024.039zm7.59 7.36-2.105 3.401.06.037.061.035zm29.904-1.38 2.05 3.43.02-.01.02-.01zm11.73-9.43-2.96-2.697v.006zm7.59-9.43 3.32 2.219.03-.041.03-.042zm-73.604-13.11-3.578 1.789.112.223.138.207zm0-3.22 3.328 2.219zm0-2.76-2.828 2.828.459.459.58.291zm-.46-.92h4v-4.986l-4.868 1.081zm-4.37 3.91-3.328-2.219-.053.079-.049.082zm-4.14 8.05-3.647-1.641-.035.077-.032.078zm-2.99 9.43 3.881.97.005-.022.005-.022zm-.23 12.88-3.88.97zm2.07 4.83-2.828 2.828 3.972 3.973 2.454-5.053zm7.13-15.64-3.641-1.655-.021.046-.02.047zm84.184-4.83h-4c0 1.623-.82 4.288-3.3 8.219l3.39 2.131 3.38 2.131c2.74-4.349 4.53-8.584 4.53-12.481zm-3.91 10.35-3.41-2.096c-2.21 3.591-5.31 7.21-9.38 10.842l2.67 2.984 2.66 2.984c4.52-4.035 8.17-8.235 10.86-12.618zM1034 849.24l-2.67-2.984c-3.99 3.566-8.66 6.663-14.03 9.277l1.75 3.597 1.75 3.597c5.97-2.906 11.27-6.402 15.86-10.503zm-14.95 9.89-1.67-3.635c-5.16 2.371-10.5 3.545-16.04 3.545v8c6.72 0 13.19-1.432 19.38-4.275zm-17.71 3.91v-4c-2.318 0-4.842-.386-7.594-1.211l-1.15 3.831-1.149 3.831c3.381 1.015 6.683 1.549 9.893 1.549zm-8.744-1.38 1.15-3.831c-2.754-.826-5.458-2.002-8.116-3.541l-2.004 3.462-2.004 3.462c3.169 1.834 6.445 3.265 9.825 4.279zm-8.97-3.91 2.136-3.382a35.8 35.8 0 0 1-7.038-5.794l-2.918 2.736-2.918 2.736a43.8 43.8 0 0 0 8.602 7.086zm-7.82-6.44 3-2.646c-1.954-2.215-3.366-4.661-4.265-7.359l-3.795 1.265-3.795 1.265c1.248 3.742 3.209 7.122 5.856 10.121zm-5.06-8.74-2.828-2.828c-1.233 1.232-2.57 3.061-3.987 5.265l3.365 2.163 3.365 2.163c1.343-2.089 2.306-3.327 2.914-3.935zm-3.45 4.6-3.473-1.985a110 110 0 0 1-3.995 6.436l3.328 2.219 3.328 2.219a118 118 0 0 0 4.285-6.904zm-4.14 6.67-3.255-2.325a32.6 32.6 0 0 1-4.508 5.126l2.703 2.949 2.703 2.949a40.7 40.7 0 0 0 5.612-6.374zm-5.06 5.75-2.561-3.073c-1.272 1.06-2.311 1.373-3.189 1.373v8c3.109 0 5.903-1.221 8.311-3.227zm-5.75 2.3v-4c-.388 0-.955-.088-1.771-1.267l-3.289 2.277-3.289 2.277c1.944 2.807 4.751 4.713 8.349 4.713zm-5.06-2.99 3.473-1.985a30.7 30.7 0 0 1-2.645-6.108L944.296 852l-3.818 1.193a38.8 38.8 0 0 0 3.335 7.692zm-2.99-6.9 3.838-1.129c-.719-2.442-1.207-4.693-1.483-6.76l-3.965.529-3.965.529c.338 2.533.923 5.189 1.738 7.96zm-1.61-7.36 3.965-.529a184 184 0 0 1-.337-2.641 31 31 0 0 1-.077-.702c-.021-.215-.011-.176-.011-.038h-8c0 .444.077 1.121.143 1.675q.12 1.025.352 2.764zm-.46-3.91h4c0-1.357.439-4.41 1.523-9.52l-3.913-.83-3.913-.83c-1.062 5.01-1.697 8.857-1.697 11.18zm1.61-10.35 3.918.807c1.023-4.971 2.566-10.123 4.64-15.457l-3.728-1.45-3.728-1.45c-2.219 5.706-3.896 11.288-5.02 16.743zm4.83-16.1 3.728 1.45c2.028-5.216 4.542-9.796 7.522-13.77l-3.2-2.4-3.2-2.4c-3.46 4.613-6.313 9.846-8.578 15.67zm8.05-14.72 3.145 2.471c2.807-3.571 5.645-4.911 8.585-4.911v-8c-5.953 0-10.935 2.954-14.875 7.969zm11.73-6.44v4c.243 0 .055.051-.255-.17a1.3 1.3 0 0 1-.313-.317c-.06-.09-.062-.126-.043-.064l3.831-1.149 3.831-1.149c-.428-1.43-1.254-2.829-2.656-3.831-1.383-.988-2.951-1.32-4.395-1.32zm3.22 2.3-3.655 1.625c.408.917.575 1.746.575 2.515h8c0-1.991-.446-3.922-1.265-5.765zm.92 4.14h-4v6.9h8v-6.9zm0 6.9-2.499 3.123c1.018.814 2.121 1.494 3.314 1.971l1.485-3.714 1.486-3.714c-.341-.136-.771-.377-1.287-.789zm2.3 1.38-.657 3.946c.423.07.556.173.557.174l2.4-3.2 2.4-3.2c-1.225-.919-2.625-1.429-4.042-1.666zm2.3.92-1.485 3.714a1.2 1.2 0 0 1-.366-.253 1.2 1.2 0 0 1-.253-.365l3.714-1.486 3.714-1.486a6.77 6.77 0 0 0-3.838-3.838zm1.61 1.61-3.43 2.058c-.09-.15-.043-.144.016.174.057.303.104.772.104 1.448h8c0-1.871-.223-4.009-1.26-5.738zm.69 3.68h-4c0 .885-.063 1.659-.175 2.332l3.945.658 3.946.658c.194-1.167.284-2.386.284-3.648zm-.23 2.99-3.922-.784a15.7 15.7 0 0 0-.308 3.084h8q0-.746.152-1.516zm-.23 2.3h-4q0 6.29.97 12.362l3.95-.632 3.95-.632a70 70 0 0 1-.87-11.098zm.92 11.73-3.95.632c.687 4.294 2.076 8.235 4.2 11.776l3.43-2.058 3.43-2.058c-1.556-2.593-2.62-5.551-3.16-8.924zm3.68 10.35-3.382 2.136c2.195 3.476 5.183 6.344 8.867 8.625l2.105-3.401 2.106-3.401c-2.756-1.706-4.829-3.744-6.314-6.095zm7.59 7.36-1.984 3.473c4.035 2.306 9.093 3.287 14.868 3.287v-8c-4.966 0-8.495-.859-10.899-2.233zm12.884 2.76v4c7.28 0 13.71-1.492 19.07-4.71l-2.05-3.43-2.06-3.43c-3.84 2.302-8.76 3.57-14.96 3.57zm17.02-4.14 2.09 3.41c5-3.068 9.23-6.442 12.6-10.149l-2.96-2.691-2.96-2.691c-2.77 3.04-6.36 5.953-10.86 8.711zm11.73-9.43 2.95 2.697c3.3-3.617 5.97-6.924 7.96-9.908l-3.32-2.219-3.33-2.219c-1.69 2.536-4.08 5.516-7.22 8.952zm7.59-9.43 3.38 2.136c.84-1.329 1.48-2.11 1.9-2.514.21-.195.28-.218.21-.181-.08.041-.4.189-.89.189v-8c-2.17 0-3.82 1.231-4.83 2.192-1.11 1.054-2.15 2.457-3.16 4.042zm4.6-4.37v4c.38 0-.07.092-.59-.424s-.42-.966-.42-.586h8c0-1.613-.41-3.558-1.92-5.071-1.52-1.513-3.46-1.919-5.07-1.919zm-77.744-7.13h4c0-1.313-.34-2.641-1.132-3.829l-3.328 2.219-3.328 2.219a1.4 1.4 0 0 1-.173-.373 1 1 0 0 1-.039-.236zm-.46-1.61 3.578-1.789c-.067-.133-.081-.188-.077-.172.005.015.039.14.039.351h-8c0 1.311.423 2.48.882 3.399zm-.46-1.61h4a1 1 0 0 1-.039.236 1.3 1.3 0 0 1-.173.373l-3.328-2.219-3.328-2.219c-.792 1.188-1.132 2.516-1.132 3.829zm.46-1.61 3.328 2.219c.884-1.326 1.132-2.798 1.132-4.059h-8c0 .123-.013.134.005.065.018-.075.072-.242.207-.444zm.46-1.84h4c0-1.371-.542-3.433-2.671-4.498l-1.789 3.578-1.789 3.578a3.26 3.26 0 0 1-1.444-1.444 2.76 2.76 0 0 1-.307-1.214zm-.46-.92 2.829-2.828c.129.129.711.78.711 1.908h-8c0 1.742.889 3.006 1.632 3.748zm-.46-.92-.868-3.905c-2.993.665-5.201 3.153-6.83 5.596l3.328 2.219 3.328 2.219c.65-.975 1.185-1.585 1.582-1.941.404-.361.514-.325.328-.283zm-4.37 3.91-3.43-2.058c-1.478 2.463-2.929 5.291-4.357 8.467l3.647 1.641 3.648 1.641c1.331-2.957 2.64-5.496 3.922-7.633zm-4.14 8.05-3.714-1.486a71.4 71.4 0 0 0-3.167 9.99l3.891.926 3.891.926a63.4 63.4 0 0 1 2.813-8.87zm-2.99 9.43-3.88-.97c-.806 3.222-1.27 6.107-1.27 8.56h8c0-1.533.303-3.709 1.031-6.62zm-1.15 7.59h-4c0 1.613.425 3.801 1.04 6.26l3.88-.97 3.881-.97c-.612-2.447-.801-3.787-.801-4.32zm.92 5.29-3.88.97c.337 1.351.724 2.587 1.181 3.653.437 1.02 1.044 2.139 1.941 3.035l2.828-2.828 2.829-2.828c.13.13.008.06-.245-.53-.233-.544-.498-1.34-.773-2.442zm2.07 4.83 3.598 1.748a343 343 0 0 0 7.215-15.826l-3.683-1.562-3.682-1.562a333 333 0 0 1-7.046 15.454zm7.13-15.64 3.642 1.655c2.505-5.511 3.808-11.056 3.808-16.605h-8c0 4.264-.996 8.686-3.091 13.295zm147.964-60.95 3.02 2.62 1.99-2.303-1.69-2.536zm-8.51 6.9 2.01 3.455.05-.031.06-.032zm-11.04 5.98-1.79-3.578zm-9.66 4.83 1.62 3.655.08-.037.09-.04zm-3.22 6.67-3.87 1.031zm2.07 8.28-3.89.926.02.113.03.11zm2.76 9.66-3.86 1.052zm2.3 8.97 3.92-.784-.01-.067-.02-.065zm1.15 5.98-3.94.737zm1.15 7.36-3.97.496.01.121.02.12zm1.15 6.67-3.96.608.01.025v.025zm-.69 10.12 3.81 1.193zm-8.28 0-3.48 1.985.07.119.08.115zm-1.38-2.99 3.79-1.265zm-.46-3.45-3.88-.97-.12.478v.492zM1078 831.3l3.94-.658v-.029l-.01-.029zm-4.6-18.63 3.88-.97zm-3.68-14.03 3.86-1.052-.01-.024-.01-.023zm-6.67-1.15 1.79 3.578.04-.021.04-.022zm-8.51 4.83 1.98 3.473.06-.035.06-.037zm-10.12 6.21 2.08 3.417.05-.033.05-.034zm-9.89 6.21 2.05 3.43.07-.037.06-.039zm-7.82 4.83 1.88 3.529.14-.076.14-.088zm-6.9-8.74 2.17 3.358.12-.075.11-.083zm9.43-5.98 1.95 3.49.03-.017.03-.018zm12.19-6.67 1.83 3.553.03-.013.03-.014zm11.96-6.21-1.73-3.606-.03.014-.03.014zm9.43-4.6-1.71-3.619-.04.02-.04.021zm3.91-1.84 1.7 3.619 2.82-1.327-.6-3.06zm-3.45-18.86-3.95.637v.021zm-2.3-13.11-3.96.608.01.074.02.073zm.23-10.81-3.04-2.603-.02.021-.02.021zm6.21 1.84-3.93.784.01.007v.007zm4.6 22.08-3.91.838v.044l.01.044zm4.37 15.64-3.78 1.308 1.16 3.37 3.48-.773zm7.13-2.53 1.51 3.702.07-.029.07-.032zm10.58-4.83-1.67-3.636zm9.89-4.37 1.55 3.687.04-.019.05-.02zm6.9-1.15-3.88.97.1.426.2.393zm.92 1.61-3.03-2.62c-1.64 1.901-4.13 3.957-7.6 6.128l2.12 3.392 2.12 3.392c3.88-2.429 7.07-4.973 9.41-7.672zm-8.51 6.9-2.02-3.455a191 191 0 0 1-10.81 5.857l1.79 3.578 1.79 3.578c3.75-1.88 7.51-3.914 11.26-6.103zm-11.04 5.98-1.79-3.578-9.66 4.83 1.79 3.578 1.79 3.578 9.66-4.83zm-9.66 4.83-1.63-3.655c-1.43.634-2.65 1.235-3.56 1.794-.45.27-.97.625-1.44 1.066-.24.222-.56.563-.85 1.025a4.35 4.35 0 0 0-.66 2.3h8c0 .939-.35 1.609-.54 1.919-.2.323-.4.513-.46.572-.12.115-.13.096.12-.055.46-.285 1.31-.719 2.64-1.311zm-4.14 2.53h-4c0 .745.19 1.639.32 2.248.17.769.42 1.75.73 2.923l3.87-1.031 3.86-1.031c-.3-1.127-.51-1.986-.65-2.597a9 9 0 0 1-.13-.652c-.03-.186 0-.09 0 .14zm.92 4.14-3.87 1.031c.6 2.255 1.28 4.978 2.05 8.175l3.89-.926 3.89-.926q-1.155-4.866-2.1-8.385zm2.07 8.28-3.84 1.149c.91 3.032 1.83 6.22 2.74 9.563l3.86-1.052 3.86-1.052a413 413 0 0 0-2.79-9.757zm2.76 9.66-3.86 1.052c.91 3.341 1.66 6.284 2.26 8.834l3.9-.916 3.89-.916c-.63-2.664-1.41-5.701-2.33-9.106zm2.3 8.97-3.93.784q.465 2.267 1.14 5.933l3.94-.737 3.93-.737a518 518 0 0 0-1.16-6.027zm1.15 5.98-3.94.737c.45 2.374.82 4.747 1.12 7.119l3.97-.496 3.97-.496a133 133 0 0 0-1.19-7.601zm1.15 7.36-3.94.737c.46 2.42.83 4.6 1.13 6.541l3.96-.608 3.95-.608a217 217 0 0 0-1.17-6.799zm1.15 6.67-3.95.658c.15.914.26 1.604.34 2.078.03.239.06.405.07.51.01.053.01.072.01.066v-.065c-.01-.025-.01-.124-.01-.257h8c0-.361-.06-.747-.07-.802-.02-.182-.06-.409-.1-.669-.08-.523-.19-1.251-.35-2.177zm.46 2.99h-4c0 1.851-.31 3.825-.97 5.937l3.82 1.193 3.81 1.193c.88-2.795 1.34-5.574 1.34-8.323zm-1.15 7.13-3.82-1.193c-.13.42-.26.709-.36.898-.1.188-.16.242-.15.227.03-.024.12-.102.27-.169.16-.067.3-.083.38-.083v8c1.93 0 3.67-.752 5.01-2.092 1.24-1.237 1.99-2.825 2.48-4.395zm-3.68 3.68v-4c.05 0 .11.005.17.019a1 1 0 0 1 .16.052c.08.038.07.051-.04-.049l-2.82 2.828-2.83 2.828c1.37 1.373 3.19 2.322 5.36 2.322zm-2.53-1.15 2.82-2.828c-.57-.577-1.1-1.216-1.57-1.921l-3.32 2.219-3.33 2.219a20 20 0 0 0 2.57 3.139zm-2.07-2.53 3.47-1.985c-.52-.903-.85-1.657-1.06-2.27l-3.79 1.265-3.8 1.265c.41 1.227.99 2.467 1.7 3.71zm-1.38-2.99 3.79-1.265c-.12-.374-.2-.638-.23-.81a2 2 0 0 1-.03-.136c0-.011.01.041.01.141h-8c0 1.146.34 2.356.66 3.335zm-.46-2.07h4v-1.38h-8v1.38zm0-1.38 3.88.97c.24-.989.35-2.013.35-3.04h-8c0 .506-.05.863-.11 1.1zm.23-2.07h4c0-3.251-.51-7.73-1.44-13.308l-3.94.658-3.95.658c.91 5.462 1.33 9.417 1.33 11.992zM1078 831.3l3.93-.716c-.33-1.843-.98-4.573-1.9-8.114l-3.87 1.01-3.87 1.01c.91 3.512 1.49 5.996 1.77 7.526zm-1.84-7.82 3.87-1.01c-.92-3.513-1.84-7.103-2.75-10.77l-3.88.97-3.88.97c.92 3.693 1.84 7.309 2.77 10.85zm-2.76-10.81 3.88-.97c-1.08-4.325-2.32-9.03-3.7-14.112l-3.86 1.052-3.86 1.052q2.055 7.557 3.66 13.948zm-3.68-14.03 3.84-1.099a50 50 0 0 0-.82-2.661c-.12-.311-.26-.694-.44-1.048a5 5 0 0 0-.52-.833c-.14-.172-.4-.486-.81-.787a4.06 4.06 0 0 0-2.4-.792v8c-1.17 0-1.98-.499-2.35-.767a4 4 0 0 1-.73-.711c-.22-.281-.33-.51-.34-.532-.05-.085-.03-.065.05.16.15.412.37 1.116.67 2.169zm-1.15-3.22v-4c-1.27 0-2.53.375-3.59.772-1.14.427-2.42 1.028-3.81 1.763l1.88 3.535 1.87 3.535c1.22-.645 2.16-1.079 2.87-1.342.78-.293.97-.263.78-.263zm-5.52 2.07-1.79-3.578c-2.6 1.297-5.54 2.972-8.83 5.007l2.11 3.401 2.1 3.401c3.15-1.952 5.88-3.497 8.2-4.653zm-8.51 4.83-1.99-3.473a208 208 0 0 0-10.32 6.333l2.19 3.35 2.18 3.35a201 201 0 0 1 9.92-6.087zm-10.12 6.21-2.08-3.417a389 389 0 0 0-9.99 6.273l2.18 3.354 2.18 3.354c3.03-1.97 6.29-4.018 9.79-6.147zm-9.89 6.21-2.06-3.43a324 324 0 0 0-7.93 4.895l2.17 3.365 2.16 3.365q3.15-2.026 7.71-4.765zm-7.82 4.83-1.89-3.529a41 41 0 0 1-2.5 1.254 6 6 0 0 1-.5.205c-.03.01.01-.004.09-.023.07-.015.31-.067.66-.067v8c.8 0 1.49-.224 1.78-.32.4-.133.82-.304 1.22-.485.82-.363 1.84-.874 3.02-1.506zm-4.14 1.84v-4c-.96 0-1.44-.275-1.84-.727l-2.99 2.657-2.99 2.657c2.05 2.308 4.78 3.413 7.82 3.413zm-4.83-2.07 2.99-2.657c-.65-.723-.83-1.332-.83-1.943h-8c0 2.762 1.04 5.22 2.85 7.257zm-1.84-4.6h4c0 .71-.25 1.159-.31 1.261-.06.112-.07.079.11-.1.37-.363 1.08-.934 2.28-1.713l-2.17-3.358-2.18-3.358c-1.4.907-2.64 1.832-3.58 2.772-.75.749-2.15 2.315-2.15 4.496zm3.91-3.91 2.4 3.2c2.26-1.699 5.24-3.596 8.98-5.69l-1.95-3.49-1.96-3.49c-3.93 2.2-7.23 4.289-9.87 6.27zm9.43-5.98 2.01 3.455c3.61-2.107 7.62-4.298 12.01-6.572l-1.83-3.553-1.84-3.553c-4.5 2.326-8.62 4.582-12.37 6.768zm12.19-6.67 1.89 3.526a452 452 0 0 1 11.86-6.158l-1.79-3.578-1.79-3.578q-5.58 2.79-12.06 6.262zm11.96-6.21 1.73 3.606c3.84-1.845 7.01-3.388 9.49-4.628l-1.79-3.578-1.79-3.578a696 696 0 0 1-9.37 4.572zm9.43-4.6 1.7 3.619.92-.431c.21-.101.2-.097.41-.194a1 1 0 0 1 .1-.046c0-.003.01-.009.02-.012l.02-.011.02-.006c0-.002.01-.004.01-.005 0-.002.01-.004.01-.006.01-.002.01-.004.01-.006.02-.005.01-.005.03-.011.02-.009 0-.002.02-.011.02-.01.03-.012.05-.022l.02-.011c.01-.004.02-.007.02-.011l.05-.022.67-.316.55-.259c.37-.171.53-.25.74-.345l.01-.007.01-.007.01-.001v-.002l.01-.003v-.002l.01-.002v-.003c.01-.004.05-.02.05-.023l.04-.02c.03-.01.02-.006.04-.016l.04-.022.02-.005v-.002l-1.7-3.619-1.71-3.619v.002l-.01.002v.003l-.02.009v.001l-.01.001v.004l-.02.006a3 3 0 0 1-.18.087c-.18.085-.08.039-.31.143l-.42.202-.13.059-.03.015c-.01.002-.01.003-.01.004 0 .002-.01.003-.01.004l-.01.004c0 .001 0 .003-.01.004l-.06.032-.02.008-.01.004-.01.004c0 .002 0 .003-.01.004 0 .002 0 .003-.01.004-.01.005 0 .004-.01.009l-.04.016c-.01.003-.01.006-.02.009 0 .003-.01.006-.02.008l-.07.035-.04.018c0 .001 0 .003-.01.004 0 .002 0 .003-.01.005 0 .004-.01.004-.01.008-.12.057-.04.017-.16.074-.05.021-.04.017-.08.038l-.09.039c-.05.025-.28.136-.35.166l-.38.179-.2.096c-.07.032-.03.016-.1.049-.02.007-.09.042-.11.049l-.44.209c-.06.025-.18.083-.24.11-.01.008-.22.103-.24.113zm3.91-1.84 3.92-.768c-1.37-7.026-2.52-13.275-3.43-18.75l-3.94.658-3.95.658c.93 5.565 2.09 11.89 3.47 18.97zm-3.45-18.86 3.95-.637c-.78-4.786-1.55-9.196-2.33-13.228l-3.92.755-3.93.755q1.14 5.911 2.28 12.992zm-2.3-13.11 3.95-.608c-.31-1.989-.53-3.506-.68-4.558-.08-.528-.13-.923-.17-1.195-.05-.401-.02-.308-.02-.079h-8c0 .382.06.858.08 1.071.05.341.11.789.19 1.335.15 1.094.39 2.645.69 4.642zm-.92-6.44h4c0-.757.07-1.261.15-1.57.08-.303.14-.33.07-.239l-3.07-2.561-3.08-2.561c-1.65 1.982-2.07 4.575-2.07 6.931zm1.15-4.37 3.03 2.603c.22-.252.33-.304.3-.289-.02.009-.06.031-.13.049a.8.8 0 0 1-.21.027v-8c-2.59 0-4.61 1.346-6.03 3.007zm2.99-1.61v4c-.04 0-.19-.008-.39-.092-.21-.087-.37-.21-.47-.316-.09-.095-.09-.131-.04-.027.05.106.12.317.19.669l3.93-.784 3.92-.784c-.31-1.545-.92-3.21-2.15-4.533-1.35-1.449-3.13-2.133-4.99-2.133zm3.22 3.45-3.92.798c1.69 8.29 3.22 15.664 4.61 22.12l3.91-.838 3.91-.838q-2.07-9.635-4.59-22.04zm4.6 22.08-3.9.926c1.55 6.506 3.05 11.861 4.49 16.022l3.78-1.308 3.78-1.308c-1.32-3.812-2.74-8.884-4.26-15.258zm4.37 15.64.86 3.905c1.76-.39 4.42-1.36 7.78-2.733l-1.51-3.702-1.52-3.702c-3.39 1.387-5.48 2.104-6.48 2.327zm7.13-2.53 1.65 3.641q5.07-2.302 10.59-4.835l-1.66-3.636-1.67-3.636c-3.68 1.685-7.2 3.293-10.57 4.825zm10.58-4.83 1.66 3.636q5.475-2.51 9.78-4.319l-1.55-3.687-1.56-3.687a358 358 0 0 0-10 4.421zm9.89-4.37 1.64 3.648c1.51-.68 2.65-1.166 3.44-1.476.4-.156.65-.247.8-.292.08-.023.08-.021.03-.011-.01.002-.26.061-.62.061v-8c-.8 0-1.53.231-1.78.309-.41.127-.87.295-1.35.484-.97.38-2.25.929-3.81 1.629zm5.29-2.07v4c.08 0-.33.024-.9-.297-.3-.174-.62-.432-.88-.785a2.8 2.8 0 0 1-.49-1.028l3.88-.97 3.88-.97a5.08 5.08 0 0 0-2.42-3.193c-1.09-.627-2.23-.757-3.07-.757zm1.61.92-3.58 1.789c.36.728.75 1.414 1.17 2.04l3.33-2.219 3.32-2.219c-.19-.294-.42-.681-.67-1.18zm87.01 63.02 2.83-2.828-.15-.157-.18-.138zm-.23 4.14-3.43-2.058-.08.132-.06.137zm-3.22 4.83 3.1 2.533zm-4.6 4.6 2.5 3.123.02-.013.02-.014zm-12.42 0-2.27 3.289.09.061.09.057zm-5.06-5.06-3.4 2.096.05.092.06.089zm-2.99-6.44-3.88.97.04.149.05.146zm-1.61-6.9 3.91-.838-.02-.132-.04-.129zm-3.68 3.45 3.68 1.576.01-.031.02-.03zm-4.6 10.81-3.68-1.559-.02.037-.01.036zm-4.6 10.81-3.64-1.655-.02.039-.01.04zm-9.89 1.38-3.2 2.4.09.113.09.107zm-4.6-8.28-3.79 1.265.04.111.04.11zm-2.53-9.66-3.93.716v.032zm-1.15-7.82 3.99-.332v-.055l-.01-.055zm-2.99-20.7-3.95.627zm-3.91-35.19 3.99-.31v-.055l-.01-.054zm-1.15-7.82-3.97.496.02.145.03.143zm-1.15-8.05 3.95-.624zm-1.15-9.89-3.98.332zm-.23-16.56-3.98-.362zm2.07-10.81-3.57-1.789-.08.149-.06.154zm5.52-.23-3.32 2.219.06.092.06.089zm2.3 4.37-3.76 1.367.06.146.06.142zm1.61 4.83 3.93-.784zm0 9.66 3.96.608zm0 14.26-3.98.347.01.085.01.085zm1.61 10.81-3.94.658zm1.61 10.81-3.96.517v.023zm1.15 8.28h4v-.284l-.04-.282zm.46 3.22-3.95.608zm.92 7.59-3.98.398.01.113.02.113zm1.15 9.66-3.98.347.01.097.01.096zm1.38 10.12-3.96.54v.026zm1.15 8.74-3.97.467.02.136.02.134zm.92 5.29h4v-.284l-.04-.282zm.23 2.07-3.94.658.07.426.16.402zm.69 2.76-3.96.566.04.27.08.263zm.92 2.99 3.8-1.265zm1.15 2.07-2.82 2.828 3.92 3.925 2.48-4.964zm3.45-8.51-3.71-1.486-.03.065-.02.066zm4.6-11.73-3.68-1.559-.03.061-.02.062zm4.6-10.35-3.57-1.789-.02.038-.02.039zm6.9-3.91-2.05 3.43zm2.99 1.15 1.49-3.714-.25-.101-.27-.066zm2.76 5.98 3.95-.658-.02-.105-.02-.105zm1.38 7.36-3.92.784.02.118.04.116zm2.53 8.74-3.81 1.205.01.03.01.03zm3.22 7.13 3.41-2.096zm6.21.69 3.28 2.294.05-.072.05-.074zm4.37-2.76v-4h-.16l-.17.014zm1.61.69-2.05 3.43.27.165.3.119zm2.3 1.38-2.82 2.828c.35.355.54.562.61.653.05.053-.01-.009-.1-.154-.05-.072-.15-.24-.25-.48a3.4 3.4 0 0 1-.17-.529c-.06-.22-.12-.542-.12-.938h8c0-.775-.22-1.361-.32-1.61a4.4 4.4 0 0 0-.36-.682 6 6 0 0 0-.53-.729c-.31-.369-.7-.775-1.11-1.187zm1.15 1.38h-4a3.4 3.4 0 0 1 .1-.826c.03-.134.07-.217.07-.233.01-.03-.01.023-.09.19-.16.326-.45.838-.89 1.571l3.43 2.058 3.43 2.058c.48-.801.89-1.515 1.19-2.109.14-.293.3-.623.42-.96.08-.209.34-.902.34-1.749zm-1.38 2.76-3.57-1.789c-.61 1.208-1.5 2.57-2.74 4.086l3.09 2.533 3.1 2.533c1.52-1.858 2.77-3.716 3.7-5.574zm-3.22 4.83-3.09-2.533a28.6 28.6 0 0 1-4.04 4.037l2.53 3.096 2.54 3.096a37 37 0 0 0 5.16-5.163zm-4.6 4.6-2.5-3.123c-1.02.82-1.7.963-2.1.963v8c2.67 0 5.06-1.084 7.1-2.717zm-4.6 1.84v-4c-2.74 0-4.55-.528-5.72-1.247l-2.1 3.407-2.09 3.407c2.82 1.734 6.22 2.433 9.91 2.433zm-7.82-1.84 2.28-3.289a15.9 15.9 0 0 1-4.05-4.048l-3.29 2.277-3.29 2.277a24 24 0 0 0 6.08 6.072zm-5.06-5.06 3.41-2.096a26.7 26.7 0 0 1-2.6-5.609l-3.8 1.265-3.79 1.265a34.5 34.5 0 0 0 3.38 7.271zm-2.99-6.44 3.88-.97c-.6-2.416-1.13-4.672-1.58-6.768l-3.91.838-3.91.838a219 219 0 0 0 1.64 7.032zm-1.61-6.9 3.85-1.099c-.18-.641-.44-1.407-.83-2.093-.2-.342-.54-.858-1.07-1.328-.57-.492-1.54-1.09-2.87-1.09v8c-1.17 0-1.99-.531-2.4-.889-.38-.336-.57-.65-.61-.724-.08-.15-.04-.111.09.322zm-.92-1.61v-4c-1.26 0-2.15.557-2.56.853a5.5 5.5 0 0 0-.96.93c-.41.496-.75 1.065-1.02 1.567-.57 1.041-1.21 2.47-1.92 4.195l3.7 1.515 3.71 1.515c.67-1.648 1.18-2.749 1.53-3.395.19-.341.25-.405.19-.331-.03.034-.19.234-.5.456-.26.191-1.02.695-2.17.695zm-2.76 5.06-3.67-1.576c-1.39 3.227-2.92 6.836-4.61 10.827l3.68 1.559 3.69 1.559q2.52-5.974 4.59-10.793zm-4.6 10.81-3.71-1.486a242 242 0 0 1-4.53 10.641l3.64 1.655 3.64 1.655c1.57-3.435 3.12-7.095 4.68-10.979zm-4.6 10.81-3.67-1.576c-.68 1.57-1.18 2.61-1.52 3.214-.19.32-.24.369-.17.287.03-.039.2-.234.5-.447a3.67 3.67 0 0 1 2.1-.648v8a4.3 4.3 0 0 0 2.49-.799c.45-.314.78-.66.98-.9.42-.484.76-1.039 1.04-1.524.58-1.006 1.22-2.381 1.93-4.031zm-2.76 4.83v-4c-1.47 0-2.78-.545-4.1-2.07l-3.03 2.62-3.02 2.62c2.67 3.075 6.11 4.83 10.15 4.83zm-7.13-3.45 3.2-2.4c-1.61-2.152-2.98-4.6-4.08-7.366l-3.72 1.486-3.71 1.486c1.35 3.367 3.05 6.439 5.11 9.194zm-4.6-8.28 3.8-1.265a71 71 0 0 1-2.4-9.143l-3.93.748-3.93.748a79 79 0 0 0 2.67 10.177zm-2.53-9.66 3.94-.716c-.61-3.334-.96-5.79-1.1-7.436l-3.99.332-3.98.332c.17 2.034.58 4.791 1.2 8.204zm-1.15-7.82 3.98-.442c-.47-4.242-1.48-11.223-3.02-20.885l-3.95.627-3.95.627c1.54 9.658 2.52 16.477 2.97 20.515zm-2.99-20.7 3.95-.627c-1.51-9.522-2.8-21.14-3.87-34.873l-3.99.31-3.98.31c1.07 13.867 2.39 25.709 3.94 35.507zm-3.91-35.19 3.98-.419c-.32-3.007-.71-5.739-1.2-8.185l-3.93.784-3.92.784c.43 2.154.8 4.635 1.1 7.455zm-1.15-7.82 3.97-.496q-.465-3.755-1.17-8.178l-3.95.624-3.95.624c.46 2.879.83 5.519 1.13 7.922zm-1.15-8.05 3.95-.624q-.66-4.192-1.11-9.598l-3.99.332-3.98.332c.31 3.755.7 7.151 1.18 10.182zm-1.15-9.89 3.99-.332c-.29-3.533-.45-7.937-.45-13.238h-8c0 5.433.16 10.075.48 13.902zm-.46-13.57h4c0 .029.01-.137.05-.671.04-.471.09-1.121.17-1.957l-3.99-.362-3.98-.362c-.14 1.582-.25 2.815-.25 3.352zm.23-2.99 3.99.362q.21-2.384.66-5.274l-3.96-.608-3.95-.608q-.48 3.09-.72 5.766zm.69-5.52 3.96.608c.27-1.756.66-3.215 1.14-4.412l-3.72-1.486-3.71-1.486c-.75 1.87-1.28 3.937-1.62 6.168zm1.38-5.29 3.58 1.789c.12-.245.22-.405.29-.501.07-.098.08-.101.03-.053s-.2.169-.45.277c-.26.113-.57.188-.92.188v-8c-3.41 0-5.25 2.804-6.1 4.511zm2.53-2.3v4c-.17 0-.33-.028-.47-.076a1 1 0 0 1-.25-.118c-.03-.017 0-.003.07.076.08.079.18.208.32.407l3.32-2.219 3.33-2.219c-1.24-1.858-3.29-3.851-6.32-3.851zm2.99 2.07-3.2 2.4c.65.863 1.24 1.959 1.74 3.337l3.76-1.367 3.76-1.367c-.72-1.995-1.66-3.813-2.86-5.403zm2.3 4.37-3.64 1.655c.66 1.458 1.09 2.775 1.33 3.959l3.92-.784 3.93-.784c-.38-1.883-1.02-3.786-1.9-5.701zm1.61 4.83-3.92.784c.15.723.25 1.297.31 1.737q.045.326.06.515c.01.132.01.187.01.184h8c0-1.058-.23-2.489-.53-4.004zm.46 3.22h-4c0 2.124-.14 4.065-.41 5.832l3.95.608 3.96.608c.34-2.22.5-4.572.5-7.048zm-.46 6.44-3.95-.608c-.33 2.157-.51 4.203-.51 6.128h8c0-1.448.14-3.082.42-4.912zm-.46 5.52h-4c0 2.46.17 5.499.48 9.087l3.98-.347 3.99-.347c-.3-3.465-.45-6.253-.45-8.393zm.46 8.74-3.96.517c.46 3.576 1.01 7.226 1.63 10.951l3.94-.658 3.95-.658q-.915-5.453-1.59-10.669zm1.61 10.81-3.94.658q.9 5.453 1.59 10.669l3.96-.517 3.97-.517a323 323 0 0 0-1.63-10.951zm1.61 10.81-3.96.54c.46 3.378.85 6.147 1.15 8.306l3.96-.566 3.96-.566q-.45-3.202-1.14-8.254zm1.15 8.28h-4c0 .344.06.724.06.784.03.187.06.425.1.702.08.558.2 1.341.35 2.342l3.95-.608 3.96-.608c-.16-.993-.27-1.742-.34-2.258-.04-.259-.06-.443-.08-.563 0-.028 0-.05-.01-.066v-.022.013c0 .007 0 .021.01.039v.245zm.46 3.22-3.95.608c.29 1.898.59 4.351.89 7.38l3.98-.398 3.98-.398c-.31-3.105-.62-5.711-.94-7.8zm.92 7.59-3.95.624c.45 2.805.82 5.931 1.12 9.383l3.98-.347 3.99-.347c-.31-3.601-.71-6.916-1.19-9.937zm1.15 9.66-3.96.54 1.38 10.12 3.96-.54 3.97-.54-1.38-10.12zm1.38 10.12-3.96.566q.69 4.79 1.14 8.641l3.97-.467 3.98-.467c-.32-2.646-.7-5.593-1.17-8.839zm1.15 8.74-3.93.737c.46 2.45.75 4.139.89 5.119l3.96-.566 3.96-.566c-.16-1.167-.48-3.005-.94-5.461zm.92 5.29h-4c0 .805.13 1.764.29 2.728l3.94-.658 3.95-.658c-.15-.876-.18-1.297-.18-1.412zm.23 2.07-3.71 1.486c.16.395.32.99.44 1.84l3.96-.566 3.96-.566c-.18-1.296-.48-2.542-.93-3.68zm.69 2.76-3.84 1.099c.32 1.121.64 2.173.97 3.156l3.79-1.265 3.8-1.265q-.435-1.285-.87-2.824zm.92 2.99-3.79 1.265c.41 1.244 1.05 2.572 2.12 3.633l2.82-2.828 2.83-2.828c.08.081.09.11.04.023a3 3 0 0 1-.22-.53zm1.15 2.07 3.58 1.789c1.03-2.059 2.24-5.076 3.64-8.944l-3.77-1.355-3.76-1.355c-1.37 3.799-2.45 6.455-3.26 8.076zm3.45-8.51 3.72 1.486q2.31-5.776 4.62-11.78l-3.74-1.436-3.73-1.436a927 927 0 0 1-4.58 11.68zm4.6-11.73 3.69 1.559c1.67-3.952 3.18-7.348 4.53-10.197l-3.62-1.712-3.61-1.712c-1.41 2.978-2.97 6.481-4.67 10.503zm4.6-10.35 3.58 1.789c.71-1.417 1.25-2.239 1.6-2.648.17-.2.19-.182.05-.092-.14.095-.61.351-1.32.351v-8c-2.4 0-4.03 1.617-4.83 2.559-.95 1.124-1.83 2.602-2.65 4.252zm3.91-4.6v4c.76 0 .98.147.94.12l2.05-3.43 2.06-3.43c-1.58-.947-3.35-1.26-5.05-1.26zm2.99.69-2.05 3.43c1.21.728 2.61 1.234 4.07 1.601l.97-3.881.97-3.881c-.99-.247-1.58-.507-1.9-.699zm2.99 1.15-1.48 3.714c.44.175.41.251.25.069a1.7 1.7 0 0 1-.32-.529c-.1-.252-.15-.504-.15-.724h8c0-3.528-2.7-5.399-4.81-6.244zm2.3 2.53h-4c0 1.323.22 2.787.56 4.318l3.9-.868 3.91-.868c-.27-1.229-.37-2.065-.37-2.582zm.46 3.45-3.94.658c.31 1.901.78 4.402 1.4 7.486l3.92-.784 3.93-.784c-.61-3.049-1.06-5.455-1.36-7.234zm1.38 7.36-3.86 1.018q1.17 4.465 2.58 8.927l3.81-1.205 3.82-1.205c-.9-2.852-1.73-5.703-2.48-8.553zm2.53 8.74-3.79 1.265c.99 2.984 2.19 5.653 3.61 7.961l3.4-2.096 3.41-2.096c-1.03-1.678-1.99-3.763-2.83-6.299zm3.22 7.13-3.4 2.096c1.32 2.144 3.58 4.894 7.08 4.894v-8c.55 0 .79.237.69.148-.14-.113-.48-.455-.96-1.234zm3.68 2.99v4c1.87 0 3.19-1.072 3.79-1.615.73-.669 1.41-1.515 2.02-2.391l-3.28-2.294-3.27-2.294c-.22.313-.41.556-.56.74a5 5 0 0 1-.29.319c-.05.045.03-.039.23-.148.21-.108.68-.317 1.36-.317zm2.53-2.3 3.38 2.148c.46-.733.85-.882 1.33-.922l-.34-3.986-.33-3.986c-3.2.267-5.73 1.958-7.41 4.598zm4.37-2.76v4c-.2 0-.37-.019-.49-.038-.13-.02-.22-.043-.29-.06-.12-.033-.18-.06-.16-.053q.015.005.15.074c.135.069.2.111.35.197l2.05-3.43 2.06-3.43c-.46-.28-.96-.551-1.46-.764-.4-.17-1.22-.496-2.21-.496zm1.61.69-1.48 3.714c.34.136.77.377 1.28.789l2.5-3.123 2.5-3.123c-1.02-.814-2.12-1.494-3.31-1.971zm53.08 11.96-3.32-2.219zm-5.52 5.52 2.1 3.407.03-.021.04-.021zm-16.78-1.84-2.83 2.828zm-5.76-8.51-3.73 1.424.03.076.03.076zm-2.53-9.66-3.98.362.01.102.02.102zm.69-16.79-3.87-1.01-.01.062-.02.062zm3.45-9.66-3.53-1.863-.04.075-.04.076zm5.06-7.36 2.94 2.713zm7.82-2.53-1.26 3.795.08.027.09.024zm3.23 1.38-1.99 3.473zm2.75 2.3-3.07 2.561.12.139.13.128zm1.84 3.22-3.88.97.69 2.756 2.83.258zm5.06 1.84-2.14 3.375zm2.77 2.53-3.89.97.03.104.03.102zm2.29 11.96-3.98.307v.076l.01.075zm-10.34-1.38-3.94.695v.042zm-2.76-7.82 3.53-1.872-1.83-3.453-3.49 1.747zm-2.77 0-1.78 3.578.25.127.27.09zm-5.28 1.38 2.6 3.037.11-.1.11-.109zm-2.54 3.91-3.75-1.367-.04.108-.04.11zm-.91 16.1-3.99.285v.022zm.91 5.75-3.88.97.04.149.05.146zm2.3 4.83-3.32 2.219.06.092.07.089zm7.6-.46 3.27 2.294.05-.072.05-.075zm2.52-5.75 3.85 1.099zm1.15-6.21-3.95-.566-.02.129-.01.13zm10.81-.46h-4c0 3.005-.4 5.836-1.21 8.511l3.83 1.149 3.84 1.149c1.03-3.459 1.54-7.067 1.54-10.809zm-1.38 9.66-3.83-1.149c-.82 2.745-1.89 5.057-3.17 6.98l3.32 2.219 3.33 2.219c1.79-2.677 3.17-5.732 4.19-9.12zm-3.68 8.05-3.32-2.219c-1.26 1.881-2.71 3.316-4.36 4.374l2.16 3.365 2.17 3.365c2.65-1.702 4.87-3.947 6.68-6.666zm-5.52 5.52-2.09-3.407c-1.33.82-2.82 1.247-4.58 1.247v8c3.16 0 6.12-.8 8.77-2.433zm-6.67 1.84v-4c-3.49 0-5.75-.975-7.29-2.508l-2.82 2.828-2.83 2.828c3.37 3.374 7.86 4.852 12.94 4.852zm-10.11-3.68 2.82-2.828a22.9 22.9 0 0 1-4.9-7.258l-3.68 1.576-3.67 1.576a30.9 30.9 0 0 0 6.6 9.762zm-5.76-8.51 3.74-1.424q-1.68-4.438-2.31-8.802l-3.96.566-3.95.566c.5 3.53 1.42 7.037 2.75 10.518zm-2.53-9.66 3.99-.362c-.31-3.347-.44-5.73-.44-7.228h-8c0 1.875.16 4.553.47 7.952zm-.45-7.59h4c0-2.398.33-5.161 1.05-8.314l-3.91-.886-3.9-.886c-.81 3.594-1.24 6.964-1.24 10.086zm1.14-9.2 3.88 1.01c.86-3.316 1.93-6.297 3.19-8.958l-3.62-1.712-3.61-1.712c-1.5 3.166-2.73 6.625-3.71 10.362zm3.45-9.66 3.54 1.863c1.41-2.668 2.9-4.82 4.46-6.51l-2.94-2.713-2.93-2.713c-2.12 2.297-4 5.052-5.66 8.21zm5.06-7.36 2.94 2.713c1.37-1.48 2.3-1.703 2.81-1.703v-8c-3.46 0-6.37 1.771-8.68 4.277zm5.75-2.99v4c-.1 0-.15-.008-.14-.006.01.001.06.007.14.026.17.038.44.11.81.235l1.26-3.795 1.27-3.795c-.98-.326-2.19-.665-3.34-.665zm2.07.46-1.09 3.846c.73.21 1.51.536 2.33 1.007l1.99-3.473 1.98-3.473a18.4 18.4 0 0 0-4.11-1.753zm3.23 1.38-1.99 3.473c.67.384 1.22.846 1.67 1.388l3.07-2.561 3.08-2.561a14.1 14.1 0 0 0-3.85-3.212zm2.75 2.3-2.82 2.828c.42.423.66.86.78 1.362l3.88-.97 3.89-.97a10.83 10.83 0 0 0-2.9-5.078zm1.84 3.22-.36 3.984c.95.086 2.03.438 3.28 1.231l2.14-3.375 2.15-3.375c-2.13-1.354-4.42-2.228-6.84-2.449zm5.06 1.84-2.14 3.375c.75.476 1.18.812 1.4 1.011.1.097.09.101.03.014-.06-.072-.28-.379-.41-.9l3.89-.97 3.88-.97c-.38-1.51-1.42-2.548-1.99-3.071-.7-.645-1.57-1.267-2.51-1.864zm2.77 2.53-3.83 1.176a51 51 0 0 1 2.14 11.091l3.98-.307 3.99-.307a59 59 0 0 0-2.46-12.829zm2.29 11.96-3.97.458c.45 3.907.66 7.037.66 9.432h8c0-2.818-.24-6.281-.71-10.348zm-9.65 5.75h4c0-2.567-.26-5.191-.76-7.867l-3.93.737-3.94.737q.63 3.345.63 6.393zm-.69-7.13 3.93-.695c-.54-3.062-1.61-6.063-3.16-8.997l-3.53 1.872-3.54 1.872c1.21 2.279 1.98 4.491 2.36 6.643zm-2.76-7.82-1.79-3.578c.4-.202.68-.192.63-.192v8c.88 0 1.93-.143 2.94-.652zm-1.16.23v-4c-.29 0-.38-.038-.34-.025l-1.27 3.795-1.26 3.795c.96.32 1.94.435 2.87.435zm-1.61-.23 1.79-3.578a6 6 0 0 0-2.7-.652v8c-.39 0-.69-.101-.87-.192zm-.91-.23v-4c-2.67 0-5.23.804-7.2 2.782l2.83 2.828 2.82 2.828c.17-.168.53-.438 1.55-.438zm-4.37 1.61-2.61-3.037c-1.72 1.473-2.9 3.418-3.68 5.58l3.75 1.367 3.76 1.367c.44-1.211.95-1.873 1.38-2.24zm-2.54 3.91-3.83-1.149c-.55 1.836-.9 3.801-1.07 5.877l3.99.332 3.98.332c.13-1.604.4-3.012.77-4.243zm-.91 5.06-3.99-.332q-.24 2.91-.24 5.622h8q0-2.348.21-4.958zm-.23 5.29h-4c0 1.803.08 3.818.24 6.035l3.99-.285 3.98-.285a82 82 0 0 1-.21-5.465zm.23 5.75-3.99.307a39.4 39.4 0 0 0 1.02 6.413l3.88-.97 3.89-.97a30 30 0 0 1-.82-5.087zm.91 5.75-3.79 1.265c.71 2.122 1.62 4.063 2.77 5.784l3.32-2.219 3.33-2.219c-.69-1.039-1.31-2.318-1.83-3.876zm2.3 4.83-3.19 2.4c1.67 2.234 4.08 3.44 6.88 3.44v-8c-.12 0-.19-.011-.23-.02-.04-.008-.05-.015-.06-.018 0-.002-.02-.01-.04-.034-.03-.025-.09-.075-.16-.168zm3.69 1.84v4c3.13 0 5.55-1.671 7.18-4.006l-3.27-2.294-3.28-2.294c-.29.406-.48.539-.54.571-.01.009-.02.013-.02.015l-.01.003-.02.002c0 .001-.02.003-.04.003zm3.91-2.3 3.37 2.147c1.3-2.047 2.29-4.324 3-6.798l-3.85-1.099-3.84-1.099c-.52 1.819-1.22 3.375-2.06 4.701zm2.52-5.75 3.85 1.099c.68-2.376 1.12-4.712 1.29-7.002l-3.99-.307-3.98-.307c-.13 1.696-.46 3.501-1.01 5.418zm1.15-6.21 3.96.566c.31-2.152.51-3.934.51-5.166h-8c0 .608-.12 1.892-.42 4.034zm102.19 23.69 3.33 2.219zm-2.3 2.53-2.56-3.073-.14.116-.13.129zm-2.76 2.07 1.79 3.578.1-.05.09-.055zm-12.65-.92-1.18 3.823.09.026.08.023zm-9.66-5.52-2.83 2.828zm-6.9-9.2-3.52 1.905.02.032.02.031zm-6.67-16.1 3.78-1.314-4.41-12.667-3.25 13.011zm-5.98 20.01-3.78-1.317-.01.039-.02.04zm-10.58 18.17 2.83 2.828.08-.083.08-.088zm-4.83-1.15-2.64 3.01zm-2.3-10.58-4 .154v.082l.01.083zm-.69-13.11-3.99.25v.008zm-.92-14.72-4 .121v.064l.01.065zm0-18.4 3.99.25v-.015zm1.38-6.67-3.58-1.789-.06.123-.05.128zm1.61-1.84-2.61-3.037-.11.1-.11.109zm5.29.69 3.97-.442zm.46 44.16-3.98.442.03.215.04.211zm1.15 2.99-3.2 2.4 4.03 5.379 2.8-6.112zm4.6-12.88-3.83-1.16-.01.038-.01.039zm4.37-14.26 3.82 1.186v-.018l.01-.019zm4.14-11.5 3.65 1.641.01-.032.01-.033zm7.82-3.91 2.22-3.328zm2.3 3.68 3.94-.68-.05-.298-.1-.287zm1.84 11.96-3.97.517v.023zm1.61 9.2-3.91.868.03.102.02.101zm2.99 7.82-3.58 1.789.07.137.08.132zm5.52 6.44 2.72-2.931-.05-.047-.05-.045zm7.13 4.37-1.33 3.772.03.012.03.011zm10.12.92 1.1 3.846.24-.07.23-.099zm3.91.92-3.68 1.576.09.21.11.199zm.92 2.07h-4c0 .007 0 .041-.03.115-.02.08-.08.221-.22.426l3.33 2.219 3.33 2.219c.96-1.443 1.59-3.122 1.59-4.979zm-.92 2.76-3.33-2.219a7.7 7.7 0 0 1-1.53 1.676l2.56 3.073 2.56 3.073a16 16 0 0 0 3.07-3.384zm-2.3 2.53-2.83-2.828c-.48.483-1.11.964-1.92 1.425l1.99 3.473 1.98 3.473c1.34-.766 2.56-1.664 3.61-2.715zm-2.76 2.07-1.79-3.578c-.55.273-.77.268-.74.268v8c1.56 0 3.02-.465 4.32-1.112zm-2.53.69v-4c-2.12 0-5.13-.447-9.12-1.482l-1 3.872-1.01 3.872c4.29 1.112 8.04 1.738 11.13 1.738zm-10.12-1.61 1.17-3.823c-3.48-1.073-6.1-2.618-8-4.525l-2.83 2.828-2.83 2.828c3 3 6.83 5.135 11.31 6.515zm-9.66-5.52 2.83-2.828c-2.33-2.327-4.42-5.098-6.25-8.34l-3.48 1.968-3.48 1.968c2.15 3.811 4.66 7.174 7.55 10.06zm-6.9-9.2 3.52-1.905c-1.85-3.398-3.99-8.528-6.41-15.509l-3.78 1.314-3.78 1.314c2.48 7.126 4.78 12.729 6.93 16.691zm-6.67-16.1-3.88-.97a228 228 0 0 1-5.88 19.663l3.78 1.317 3.77 1.317a236 236 0 0 0 6.09-20.357zm-5.98 20.01-3.81-1.238c-1.96 6.035-5.2 11.615-9.76 16.751l2.99 2.657 2.99 2.657c5.25-5.904 9.06-12.438 11.39-19.589zm-10.58 18.17-2.83-2.828c.71-.708 1.44-.712 1.45-.712v8c1.23 0 2.88-.31 4.21-1.632zm-1.38.46v-4c.14 0 .16.039.02-.027-.15-.071-.43-.238-.84-.593l-2.63 3.01-2.64 3.01c1.59 1.393 3.65 2.6 6.09 2.6zm-3.45-1.61 2.63-3.01c-.38-.332-.51-.535-.54-.585-.01-.018.01.009.03.081.02.075.04.176.04.294h-8c0 2.716 1.56 4.793 3.2 6.23zm-1.84-3.22h4c0-1.266-.17-3.893-.47-7.679l-3.99.319-3.99.319c.31 3.881.45 6.16.45 7.041zm-.46-7.36 3.99-.154q-.225-6.04-.69-13.214l-3.99.258-3.99.258c.3 4.725.53 9.06.68 13.006zm-.69-13.11 3.99-.25v-.057c0-.01 0-.019-.01-.029v-.144c0-.009-.01-.019-.01-.028v-.115c0-.01 0-.019-.01-.029v-.144c0-.009-.01-.019-.01-.029v-.143c-.01-.01-.01-.019-.01-.029v-.115c0-.01-.01-.019-.01-.029v-.144c-.01-.009-.01-.019-.01-.028v-.115c0-.01 0-.019-.01-.029v-.144c0-.009-.01-.019-.01-.029v-.115c0-.009 0-.019-.01-.028v-.144c0-.01-.01-.019-.01-.029v-.144c-.01-.009-.01-.019-.01-.028v-.115c0-.01-.01-.019-.01-.029v-.144c-.01-.009-.01-.019-.01-.029v-.115c0-.009 0-.019-.01-.028v-.144c-.01-.01-.01-.019-.01-.029v-.115c0-.009 0-.019-.01-.029v-.143c0-.01-.01-.019-.01-.029v-.144c-.01-.009-.01-.019-.01-.029v-.115c0-.009-.01-.019-.01-.028v-.144c-.01-.01-.01-.019-.01-.029v-.115c0-.009 0-.019-.01-.029v-.143c-.01-.01-.01-.019-.01-.029v-.115c0-.01 0-.019-.01-.029v-.144c0-.009-.01-.019-.01-.028v-.115c0-.01 0-.019-.01-.029v-.144c0-.009-.01-.019-.01-.029v-.143c-.01-.01-.01-.019-.01-.029v-.115c0-.01 0-.019-.01-.029v-.144c-.01-.009-.01-.019-.01-.028v-.115c0-.01 0-.019-.01-.029v-.144c0-.009-.01-.019-.01-.029v-.115c0-.009 0-.019-.01-.028v-.144c0-.01-.01-.019-.01-.029v-.144c-.01-.009-.01-.019-.01-.028v-.115c0-.01-.01-.019-.01-.029v-.144c-.01-.009-.01-.019-.01-.029v-.115c0-.009 0-.019-.01-.028v-.144c-.01-.01-.01-.019-.01-.029v-.115c0-.009 0-.019-.01-.029v-.143c0-.01-.01-.019-.01-.029v-.144c-.01-.009-.01-.019-.01-.029v-.115c0-.009-.01-.019-.01-.028v-.144c-.01-.01-.01-.019-.01-.029v-.115c0-.009 0-.019-.01-.029v-.143c-.01-.01-.01-.019-.01-.029v-.115c0-.01 0-.019-.01-.029v-.144c0-.009-.01-.019-.01-.028v-.115c0-.01 0-.019-.01-.029v-.144c0-.009-.01-.019-.01-.029v-.143c-.01-.01-.01-.019-.01-.029v-.115c0-.01 0-.019-.01-.029v-.144c-.01-.009-.01-.019-.01-.028v-.115c0-.01 0-.019-.01-.029v-.144c0-.009-.01-.019-.01-.029v-.115c0-.009 0-.019-.01-.028v-.144c0-.01-.01-.019-.01-.029v-.144c-.01-.009-.01-.019-.01-.028v-.115c0-.01-.01-.019-.01-.029v-.144c-.01-.009-.01-.019-.01-.029v-.115c0-.009 0-.019-.01-.028v-.144c-.01-.01-.01-.019-.01-.029v-.115c0-.009 0-.019-.01-.029v-.143c0-.01-.01-.019-.01-.029v-.144c-.01-.009-.01-.019-.01-.029v-.115c0-.009-.01-.019-.01-.028v-.144c-.01-.01-.01-.019-.01-.029v-.115c0-.009 0-.019-.01-.029v-.143c-.01-.01-.01-.019-.01-.029v-.115c0-.01 0-.019-.01-.029v-.144c0-.009-.01-.019-.01-.028v-.115c0-.01 0-.019-.01-.029v-.144c0-.009-.01-.019-.01-.029v-.143c-.01-.01-.01-.019-.01-.029v-.115c0-.01-.01-.019-.01-.029v-.144c-.01-.009-.01-.019-.01-.028v-.115c0-.01 0-.019-.01-.029v-.144c0-.009-.01-.019-.01-.029v-.115c0-.009 0-.019-.01-.028v-.144c0-.01-.01-.019-.01-.029v-.144c-.01-.009-.01-.019-.01-.028v-.115c0-.01-.01-.019-.01-.029v-.144c-.01-.009-.01-.019-.01-.029v-.115c0-.009 0-.019-.01-.028v-.144c-.01-.01-.01-.019-.01-.029v-.115c0-.009 0-.019-.01-.029v-.143c0-.01-.01-.019-.01-.029v-.144c-.01-.009-.01-.019-.01-.029v-.115c0-.009-.01-.019-.01-.028v-.144c-.01-.01-.01-.019-.01-.029v-.115c0-.009 0-.019-.01-.029v-.143c-.01-.01-.01-.019-.01-.029v-.058l-3.99.25-3.99.25v.143c.01.01.01.019.01.029v.115c0 .01 0 .019.01.029v.144c.01.009.01.019.01.028v.115c0 .01 0 .019.01.029v.144c0 .009.01.019.01.029v.115c0 .009 0 .019.01.028v.144c0 .01.01.019.01.029v.144c.01.009.01.019.01.028v.115c0 .01 0 .019.01.029v.144c.01.009.01.019.01.029v.115c0 .009 0 .019.01.028v.144c0 .01.01.019.01.029v.115c0 .009 0 .019.01.029v.143c0 .01.01.019.01.029v.144c.01.009.01.019.01.029v.115c0 .009 0 .019.01.028v.144c.01.01.01.019.01.029v.115c0 .009 0 .019.01.029v.143c0 .01.01.019.01.029v.115c0 .01 0 .019.01.029v.144c0 .009.01.019.01.028v.144c.01.01.01.019.01.029v.115c0 .009.01.019.01.029v.143c.01.01.01.019.01.029v.115c0 .01 0 .019.01.029v.144c.01.009.01.019.01.028v.115c0 .01 0 .019.01.029v.144c0 .009.01.019.01.029v.143c.01.01.01.019.01.029v.115c0 .01.01.019.01.029v.144c.01.009.01.019.01.028v.115c0 .01 0 .019.01.029v.144c.01.009.01.019.01.029v.115c0 .009 0 .019.01.028v.144c0 .01.01.019.01.029v.115c0 .009 0 .019.01.029v.143c0 .01.01.019.01.029v.144c.01.009.01.019.01.029v.115c0 .009.01.019.01.028v.144c.01.01.01.019.01.029v.115c0 .009 0 .019.01.029v.143c0 .01.01.019.01.029v.115c0 .01 0 .019.01.029v.144c0 .009.01.019.01.028v.144c.01.01.01.019.01.029v.115c0 .009.01.019.01.029v.143c.01.01.01.019.01.029v.115c0 .01 0 .019.01.029v.144c.01.009.01.019.01.028v.115c0 .01 0 .019.01.029v.144c0 .009.01.019.01.029v.143c.01.01.01.019.01.029v.115c0 .01.01.019.01.029v.144c.01.009.01.019.01.028v.115c0 .01 0 .019.01.029v.144c.01.009.01.019.01.029v.115c0 .009 0 .019.01.028v.144c0 .01.01.019.01.029v.115c0 .009 0 .019.01.029v.143c0 .01.01.019.01.029v.144c.01.009.01.019.01.029v.115c0 .009.01.019.01.028v.144c.01.01.01.019.01.029v.115c0 .009 0 .019.01.029v.143c0 .01.01.019.01.029v.115c0 .01 0 .019.01.029v.144c0 .009.01.019.01.028v.144c.01.01.01.019.01.029v.115c0 .009.01.019.01.029v.143c.01.01.01.019.01.029v.115c0 .01 0 .019.01.029v.144c.01.009.01.019.01.028v.115c0 .01 0 .019.01.029v.144c0 .009.01.019.01.029v.143c.01.01.01.019.01.029v.115c0 .01.01.019.01.029v.144c.01.009.01.019.01.028v.115c0 .01 0 .019.01.029v.144c.01.009.01.019.01.029v.115c0 .009 0 .019.01.028v.144c0 .01.01.019.01.029v.115c0 .009 0 .019.01.029v.143c0 .01.01.019.01.029v.144c.01.009.01.019.01.029v.115c0 .009 0 .019.01.028v.144c.01.01.01.019.01.029v.115c0 .009 0 .019.01.029v.143c0 .01.01.019.01.029v.115c0 .01 0 .019.01.029v.144c0 .009.01.019.01.028v.144c.01.01.01.019.01.029v.115c0 .009.01.019.01.029zm-.92-14.72 4-.121c-.16-5.04-.23-9.135-.23-12.299h-8c0 3.276.08 7.461.23 12.541zm-.23-12.42h4c0-1.416.07-3.317.22-5.73l-3.99-.25-3.99-.25c-.16 2.494-.24 4.579-.24 6.23zm.23-5.98 3.99.235c.14-2.29.53-4.047 1.08-5.367l-3.69-1.538-3.69-1.538c-.99 2.36-1.51 5.049-1.69 7.973zm1.38-6.67 3.58 1.789c-.12.233-.22.357-.2.323.01-.009.05-.062.15-.168.18-.213.48-.526.91-.956l-2.83-2.828-2.83-2.828c-.49.49-.92.943-1.27 1.344-.27.309-.76.877-1.09 1.535zm1.61-1.84 2.6 3.037c.47-.399.72-.417.85-.417v-8c-2.33 0-4.37.902-6.06 2.343zm3.45-1.38v4c-.16 0-.45-.026-.8-.168-.36-.148-.68-.38-.93-.657-.45-.514-.44-.922-.41-.663l3.98-.442 3.97-.442c-.12-1.121-.49-2.564-1.56-3.768-1.19-1.341-2.78-1.86-4.25-1.86zm1.84 2.07-3.98.442c.14 1.206.21 2.589.21 4.158h8c0-1.804-.08-3.488-.26-5.042zm.23 4.6h-4v36.34h8v-36.34zm0 36.34h-4c0 .987.09 2.232.25 3.662l3.98-.442 3.97-.442c-.14-1.33-.2-2.232-.2-2.778zm.23 3.22-3.91.868c.35 1.544.88 3.216 1.86 4.522l3.2-2.4 3.2-2.4c.06.079.01.035-.1-.243-.1-.266-.22-.66-.35-1.215zm1.15 2.99 3.63 1.667c1.8-3.91 3.4-8.406 4.82-13.464l-3.85-1.083-3.85-1.083c-1.34 4.756-2.81 8.846-4.39 12.296zm4.6-12.88 3.83 1.16c1.53-5.053 2.98-9.797 4.36-14.234l-3.82-1.186-3.82-1.186c-1.39 4.457-2.84 9.219-4.38 14.286zm4.37-14.26 3.83 1.149c1.35-4.496 2.67-8.152 3.96-11.008l-3.65-1.641-3.65-1.641c-1.47 3.278-2.91 7.288-4.32 11.992zm4.14-11.5 3.67 1.576c.62-1.447 1.12-2.234 1.43-2.595.34-.396.02.189-.96.189v-8c-2.37 0-4.07 1.39-5.11 2.604-1.07 1.249-1.95 2.877-2.71 4.65zm4.14-4.83v4c1.04 0 1.4.212 1.46.248l2.22-3.328 2.22-3.328c-1.79-1.191-3.87-1.592-5.9-1.592zm3.68.92-2.22 3.328c-.14-.089-.08-.102.09.172.17.272.39.73.63 1.445l3.8-1.265 3.79-1.265c-.7-2.115-1.83-4.384-3.87-5.743zm2.3 3.68-3.94.68a290 290 0 0 1 1.81 11.797l3.97-.517 3.96-.517c-.46-3.593-1.09-7.636-1.86-12.123zm1.84 11.96-3.97.54c.48 3.462 1.03 6.64 1.67 9.528l3.91-.868 3.9-.868c-.58-2.632-1.1-5.588-1.55-8.872zm1.61 9.2-3.86 1.071c.84 2.996 1.92 5.845 3.27 8.538l3.58-1.789 3.58-1.789a39 39 0 0 1-2.72-7.102zm2.99 7.82-3.43 2.058c1.62 2.707 3.75 5.171 6.33 7.405l2.62-3.023 2.62-3.023c-2.03-1.753-3.58-3.582-4.71-5.475zm5.52 6.44-2.72 2.931c2.52 2.343 5.36 4.098 8.52 5.211l1.33-3.772 1.33-3.772c-2.06-.727-3.97-1.886-5.74-3.529zm7.13 4.37-1.27 3.795c3 .999 5.83 1.585 8.4 1.585v-8c-1.42 0-3.35-.334-5.87-1.175zm7.13 1.38v4c1.36 0 2.73-.226 4.09-.614l-1.1-3.846-1.1-3.846c-.79.225-1.41.306-1.89.306zm2.99-.46 1.57 3.677c.46-.195.77-.306.96-.363.09-.028.12-.033.1-.029-.01.002-.13.025-.33.025v-8c-1.38 0-2.85.572-3.88 1.013zm2.3-.69v4c-.45 0-.88-.103-1.25-.275a2.5 2.5 0 0 1-.72-.494c-.23-.232-.22-.34-.1-.045l3.68-1.576 3.67-1.576c-.5-1.181-1.98-4.034-5.28-4.034zm1.61 1.61-3.48 1.985q.21.35.33.598.135.25.18.364c.04.085.03.076.01-.003-.02-.042-.04-.132-.07-.259a4 4 0 0 1-.05-.615h8c0-1.097-.44-2.054-.58-2.372a18 18 0 0 0-.87-1.683z" mask="url(#a)"/></g></svg>