<svg xmlns="http://www.w3.org/2000/svg" width="1159.7" height="597.14" fill="none" style="max-height:500px" viewBox="354.35 292.13 1159.7 597.14"><path fill="#fff" d="M440.22 315.13H407.7v87.17h-15.57v-87.18h-32.66V301h80.75zm53.91 87.88q-11.7 0-19.84-4.14a35 35 0 0 1-12.96-11.27 52 52 0 0 1-7.16-16.26 81 81 0 0 1-2.2-18.98V301h15.43v51.36q0 6.99 1.38 13.56a38 38 0 0 0 4.4 11.55 22.6 22.6 0 0 0 8.13 8.13q5.25 3 12.82 3 7.72 0 12.82-3a22.3 22.3 0 0 0 8.13-8.27 40 40 0 0 0 4.4-11.7q1.38-6.42 1.38-13.27V301h15.58v51.36q0 10.41-2.48 19.7a47 47 0 0 1-7.45 16.11 35 35 0 0 1-12.95 10.85q-7.99 4-19.43 4m145.1-.72v-72.2l-28.8 54.8h-9.1l-28.93-54.8v72.2h-15.44V301h16.54l32.38 61.92L638.27 301h16.53v101.3zm-277.6 293.53q0-9.27 3.16-18.12 3.18-8.98 9.24-16.26a45 45 0 0 1 15.02-11.7q8.82-4.42 19.98-4.42 13.23 0 22.87 6.27a38.3 38.3 0 0 1 14.34 15.84l-12.13 8.42q-2.76-6.15-7.03-9.7a24 24 0 0 0-9.1-5 33 33 0 0 0-9.5-1.42q-7.72 0-13.5 3.28a30 30 0 0 0-9.8 8.41 41 41 0 0 0-5.92 11.85 46 46 0 0 0-1.93 13.12q0 7.28 2.35 14.13a41 41 0 0 0 6.47 11.98 32 32 0 0 0 10.06 8.13q5.8 3 12.68 3a30.7 30.7 0 0 0 19.16-6.99 25 25 0 0 0 6.89-9.7l12.81 7.56a31.4 31.4 0 0 1-9.5 12.84q-6.34 5.28-14.34 7.99a48 48 0 0 1-15.57 2.71 40.5 40.5 0 0 1-18.88-4.42 49 49 0 0 1-14.74-11.99 59 59 0 0 1-9.65-16.83 55 55 0 0 1-3.44-18.98m139.84 52.07q-10.61 0-19.16-4.27a47 47 0 0 1-14.74-11.56 57 57 0 0 1-9.65-16.55 56 56 0 0 1-3.3-18.97q0-10.14 3.58-19.26a54 54 0 0 1 9.92-16.41A46 46 0 0 1 483 649.46a42 42 0 0 1 18.74-4.28q10.49 0 19.02 4.43a45.5 45.5 0 0 1 14.75 11.84A55 55 0 0 1 545 678a53.4 53.4 0 0 1-.14 38.1 54 54 0 0 1-9.78 16.4 47 47 0 0 1-15.02 11.27 42 42 0 0 1-18.6 4.14m-31.15-51.35q0 7.13 2.2 13.84a41 41 0 0 0 6.21 11.98 31 31 0 0 0 9.92 8.13q5.79 3 12.96 3a27 27 0 0 0 13.23-3.14 29 29 0 0 0 9.64-8.42 41 41 0 0 0 6.06-11.98 45 45 0 0 0 2.07-13.41q0-7.14-2.2-13.7a35 35 0 0 0-6.2-11.84 30 30 0 0 0-9.93-8.28q-5.64-3-12.67-3a27 27 0 0 0-13.23 3.14 30 30 0 0 0-9.79 8.42 41 41 0 0 0-6.2 11.84 44 44 0 0 0-2.06 13.42m109.55-20.99v71.63h-15.43V645.9h12.67l55.4 73.19v-73.05h15.57V747.2h-13.5zm90.21 71.63V645.9h65.18v14.12H685.5v30.25h41.62v13.27H685.5v43.66zm146.91-14.13v14.13h-67.11V645.9h65.87v14.12H765.3v28.82H809v13.27h-43.7v30.96zm15.92 14.13V645.9h42.58q6.61 0 12.13 2.85a31 31 0 0 1 9.5 7.56 34 34 0 0 1 6.35 10.56q2.34 5.86 2.34 11.98 0 6.71-2.34 12.85a30 30 0 0 1-6.76 10.55 25 25 0 0 1-10.06 6.42l23.02 38.53H892.3l-21.22-35.25h-22.74v35.25zm15.44-49.37h27q4.28 0 7.58-2.57t5.24-6.85a24 24 0 0 0 1.93-9.56q0-5.27-2.2-9.41a19 19 0 0 0-5.8-6.85 12.4 12.4 0 0 0-7.57-2.57h-26.18zm142.78 35.24v14.13h-67.11V645.9h65.87v14.12h-50.44v28.82h43.68v13.27h-43.68v30.96zm31.35-57.5v71.63h-15.43V645.9h12.68l55.39 73.19v-73.05h15.58V747.2h-13.51zm84.01 20.26q0-9.27 3.17-18.12 3.17-8.98 9.23-16.26a45 45 0 0 1 15.02-11.7q8.82-4.42 19.98-4.42 13.23 0 22.88 6.27a38.3 38.3 0 0 1 14.33 15.84l-12.13 8.42q-2.76-6.15-7.03-9.7a24 24 0 0 0-9.09-5 34 34 0 0 0-9.51-1.42q-7.72 0-13.5 3.28a30 30 0 0 0-9.79 8.41 40 40 0 0 0-5.92 11.85 46 46 0 0 0-1.93 13.12q0 7.28 2.34 14.13a41 41 0 0 0 6.48 11.98 32 32 0 0 0 10.06 8.13q5.78 3 12.67 3a30.7 30.7 0 0 0 19.16-6.99 25 25 0 0 0 6.89-9.7l12.81 7.56a31.5 31.5 0 0 1-9.5 12.84 45 45 0 0 1-14.34 7.99 48 48 0 0 1-15.57 2.71 40.5 40.5 0 0 1-18.88-4.42 49 49 0 0 1-14.74-11.99 58 58 0 0 1-9.65-16.83 55 55 0 0 1-3.44-18.98M1274 733.07v14.13h-67.11V645.9h65.87v14.12h-50.44v28.82h43.69v13.27h-43.69v30.96z"/><path fill="#fff" fill-rule="evenodd" d="M358 459.99v119.1h57.52v-19.85h19.17v-29.78h-19.17v-19.85h19.17v-29.77h-19.17v-19.85zm57.52 19.85v29.77h-38.35v-29.77zm-38.35 79.4h38.35v-29.78h-38.35z" clip-rule="evenodd"/><path fill="#fff" d="M473.04 459.99h-19.18v119.1h57.52v-19.85h-38.34zm76.69 0h38.34v19.85h-38.34zm0 99.25v-79.4h-19.18v79.4zm38.34 0v19.85h-38.34v-19.85zm0 0v-79.4h19.17v79.4zm57.52-99.25h57.52v19.85h-57.52zm0 99.25v-79.4h-19.17v79.4zm0 0v19.85h57.52v-19.85zm95.86-99.25h-19.17v119.1h19.17v-59.55h19.17v19.85h19.18v39.7h19.17v-39.7H779.8v-19.85h-19.18v-19.85h19.18v-19.85h19.17v-19.85H779.8v19.85h-19.18v19.85h-19.17zm95.87 0h57.51v19.85h-57.51zm0 99.25v-79.4h-19.18v79.4zm0 0v19.85h57.51v-19.85zM914 459.99h19.18v49.62h38.34V460h19.18v119.1h-19.18v-49.63h-38.34v49.63H914zm115.04 0h38.35v19.85h-38.35z"/><path fill="#fff" d="M1029.04 519.54v-39.7h-19.17v99.25h19.17v-39.7h38.35v39.7h19.17v-99.25h-19.17v39.7zm76.69-59.55h19.17v119.1h-19.17zm38.35 0h19.17v29.77h14.38v19.85h14.38v19.85h9.58V460h19.18v119.1h-19.18v-29.8h-14.38v-19.85h-14.38V509.6h-9.58v69.48h-19.17z"/><path fill="url(#a)" stroke="#000" stroke-width="4" d="M1482.88 600v19.5h-3.48c-8.88 0-16.15 1.55-21.92 4.53h-.01a36 36 0 0 0-13.82 11.9h-.01a51 51 0 0 0-7.5 16.93 82 82 0 0 0-1.19 5.98q5.2-4.5 11.48-6.67a44 44 0 0 1 14.77-2.48c7.02 0 13.18 1.4 18.42 4.3a37 37 0 0 1 12.73 11.46 49 49 0 0 1 7.26 15.83 67 67 0 0 1 2.39 17.82q0 10.44-2.78 19.65a48 48 0 0 1-8.43 16.28 38.6 38.6 0 0 1-13.78 11.02q-8.28 3.96-18.96 3.95-11.41.02-20.13-5.01l-.01-.01a44 44 0 0 1-14.19-13.45 62 62 0 0 1-8.34-18.36 76 76 0 0 1-2.77-20.39v-8.6q0-15.39 2.92-30.21 2.93-14.93 10.17-27.11l.01-.01a54 54 0 0 1 20.51-19.58c8.8-4.9 19.9-7.27 33.18-7.27zm-24.46 68.8q-6.58 0-12.33 3.47h-.01a29 29 0 0 0-9.47 9.07 25 25 0 0 0-2.73 5.44v6.6q0 9.34 2.05 16.42l.26.88a36 36 0 0 0 5.28 10.85 24 24 0 0 0 7.71 7.04 18.3 18.3 0 0 0 8.87 2.32q5.5-.02 9.65-2.15a21 21 0 0 0 7.11-6.22 30 30 0 0 0 4.61-9.83 47 47 0 0 0 1.6-12.7q0-6.18-1.43-11.86a32 32 0 0 0-4.28-10.05v-.01h-.01a20.4 20.4 0 0 0-7.02-6.77l-.02-.01-.02-.01c-2.66-1.62-5.91-2.48-9.82-2.48Z"/><path fill="url(#b)" stroke="#000" stroke-width="4" d="M1350.32 604.05c8.45 0 15.8 1.6 21.97 4.89a33.6 33.6 0 0 1 14.16 13.66c3.35 5.85 4.99 12.66 4.99 20.34q0 6.4-2.05 12.91a66 66 0 0 1-5.41 12.7 98 98 0 0 1-7.9 12.37 187 187 0 0 1-9.45 11.88h-.01l-31.88 36.81h62.67v18.41h-88.91v-15.34l.47-.56 42.5-50.35a179 179 0 0 0 11.98-15.56q4.26-6.41 5.82-11.19h.01V655a31 31 0 0 0 1.67-9.98q0-6.41-2.47-11.45l-.01-.02v-.02a19 19 0 0 0-6.95-8.08c-3-1.96-6.7-3-11.2-3-5.48 0-9.91 1.15-13.37 3.31h-.01a19.7 19.7 0 0 0-7.78 8.98q-2.67 5.9-2.68 13.79v2H1306v-2q-.01-12.1 5.02-22.23a38.7 38.7 0 0 1 15.02-16.18c6.67-4.09 14.8-6.08 24.28-6.08Z"/><mask id="c" width="958" height="171" x="393" y="712" fill="#000" maskUnits="userSpaceOnUse"><path fill="#fff" d="M393 712h958v171H393z"/><path d="M453.46 816.81q0 .69-1.38 1.84-1.15.92-2.99 1.84t-4.14 1.84a20 20 0 0 1-3.91.92q-3.9.92-8.05 1.15-4.14.23-7.82.92a84 84 0 0 1 1.84 17.25q0 8.75-2.3 13.8-2.07 5.06-5.29 5.06-1.38 0-2.53-1.61a10 10 0 0 1-.92-4.6q0-.69.46-2.76.69-2.3.69-4.37 0-.45-.23-2.99a102 102 0 0 0-.69-5.98q-.22-3.45-.69-6.67-.22-3.45-.46-5.06-2.3 0-5.75.46-3.45.23-4.14.23-3.22 0-5.75-.92-2.3-.92-2.3-4.6 0-2.07 1.84-2.76.7.69 1.61.69.22 0 2.07-.23l4.14-.92q2.3-.45 3.91-.92 1.84-.69 1.84-1.15t-.92-4.6q-.69-4.14-1.84-8.97-.92-5.06-1.84-9.89a56 56 0 0 1-.69-6.67v-1.38l.46-2.3a9 9 0 0 1 1.15-2.07q.69-.92 2.07-.92 4.37 0 5.06 2.76 1.85 7.82 2.76 14.26 1.15 6.2 1.84 10.81.92 4.37 1.61 6.9.91 2.3 2.76 2.3 5.52-.69 10.35-1.38l7.82-.92q3.91-.45 5.06-.46.46 0 2.76.46 2.53.45 2.53 1.61m176.49-7.36q0 1.15-1.16 1.84-.9.69-2.3 1.15-1.14.46-2.52 1.15-1.4.46-2.08 1.15l1.62 10.81q1.37 8.97 2.3 17.48a120 120 0 0 1 1.15 16.1q0 5.98-1.38 10.81-1.16 4.6-4.37 4.6-1.62 0-3-3.91-1.14-4.14-2.07-9.2-.69-5.3-1.14-10.35-.24-5.3-.24-7.59 0-1.6-.23-5.06-.23-3.68-.68-7.59-.46-4.14-.93-7.59l-.68-5.52q-3.92.23-10.59 1.15-6.66.69-16.32 3.22v2.76q0 5.06.45 11.27.47 5.99.93 12.42.68 6.21 1.14 12.65.47 6.21.47 11.96 0 2.3-.47 3.68-.46 1.6-2.07 1.61-2.75 0-4.37-2.76a24 24 0 0 1-2.06-6.44q-.7-3.9-1.15-8.05-.23-4.14-.47-6.9-.9-5.99-1.6-13.8-.47-8.05-.92-16.33-.92 0-2.3-.46l-2.76-1.38a15 15 0 0 1-2.3-1.84 3 3 0 0 1-.93-2.07q0-2.76 2.54-4.37a24 24 0 0 1 5.51-2.99 40 40 0 0 1-.23-4.37v-41.17q.24-7.6.24-15.41a21 21 0 0 1 1.14-4.37q.93-2.76 3-2.76 1.6 0 2.75 1.38a8 8 0 0 1 1.85 2.99q.68 1.84.91 3.91.47 1.84.47 3.22v54.97q2.07 0 5.51-.23l7.13-.46q3.7-.45 7.13-.92 3.69-.45 5.99-.92l-5.3-48.3q-.22-1.6-.45-3.45v-2.99q0-4.6 1.14-7.36 1.38-3 3.91-2.99 3.23 0 3.92 2.99t.91 8.74l.47 7.36q.23 3.45.68 6.9l5.3 38.87q2.75 0 5.51.46 3 .23 3 2.3m129.68 17.71q0 4.14-3.91 10.35a54 54 0 0 1-10.12 11.73 65 65 0 0 1-14.95 9.89 42 42 0 0 1-17.71 3.91q-4.14 0-8.74-1.38a42 42 0 0 1-8.97-3.91 40 40 0 0 1-7.82-6.44 25 25 0 0 1-5.06-8.74 29 29 0 0 0-3.45 4.6q-1.84 3.22-4.14 6.67a37 37 0 0 1-5.06 5.75 9 9 0 0 1-5.75 2.3q-3 0-5.06-2.99a35 35 0 0 1-3-6.9q-1.14-3.9-1.6-7.36-.45-3.45-.46-3.91 0-2.76 1.6-10.35a100 100 0 0 1 4.84-16.1 62 62 0 0 1 8.05-14.72q5.05-6.45 11.73-6.44 2.52 0 3.22 2.3.92 2.07.92 4.14v6.9a9 9 0 0 0 2.3 1.38 5 5 0 0 1 2.3.92q1.15.45 1.6 1.61.7 1.16.7 3.68 0 1.6-.23 2.99-.23 1.15-.23 2.3 0 5.99.92 11.73a29 29 0 0 0 3.68 10.35 23 23 0 0 0 7.59 7.36q4.83 2.76 12.88 2.76 10.12 0 17.02-4.14a54 54 0 0 0 11.73-9.43 82 82 0 0 0 7.59-9.43q2.76-4.37 4.6-4.37 3 0 2.99 2.99m-80.73-10.12q0-.92-.46-1.61a4 4 0 0 1-.46-1.61q0-.92.46-1.61.45-.69.46-1.84 0-.7-.46-.92-.46-.45-.46-.92-2.07.45-4.37 3.91a78 78 0 0 0-4.14 8.05 67 67 0 0 0-3 9.43 33 33 0 0 0-1.14 7.59q0 1.61.92 5.29.91 3.67 2.07 4.83 3.9-8.05 7.13-15.64a36 36 0 0 0 3.45-14.95m149.8 16.1q0 2.3-.7 4.83a37 37 0 0 1-1.37 3.91q-.46.69-4.37 4.83a77 77 0 0 1-9.43 8.28 78 78 0 0 1-12.65 8.05q-6.9 3.45-13.34 3.45-3.91 0-8.05-1.38a23 23 0 0 1-7.36-4.37 27 27 0 0 1-5.75-7.82q-2.07-4.6-2.07-11.27 0-11.04 3.68-20.01 3.67-8.97 7.36-14.26a30 30 0 0 1 4.14-5.06 72 72 0 0 1 5.29-4.83 40 40 0 0 1 4.6-3.68q2.3-1.38 3.22-1.38 2.06 0 3.68 1.15 1.84 1.15 1.84 2.3 0 1.84-1.15 3.22-.93 1.16-2.76 2.76a43 43 0 0 0-4.37 3.91 38 38 0 0 0-5.3 6.21 59 59 0 0 0-8.27 15.64q-2.53 7.82-2.53 13.8t4.37 9.66q4.59 3.45 9.43 3.45 8.74 0 15.4-3.91 6.9-3.9 11.74-8.74a90 90 0 0 0 7.82-8.74q3-3.9 4.37-3.91 2.52 0 2.53 3.91m100.09 17.25q0 1.85-.46 2.76-.47.69-2.3 1.15-2.07.7-5.3 1.61-2.99.7-6.66 1.61-3.69.69-7.6 1.38-3.68.45-6.9.46-3.9 0-8.73-.46a84 84 0 0 1-8.97-1.38q-4.38-1.15-8.05-2.3-3.46-1.38-5.06-3.22 1.14 4.83 2.07 9.66.9 4.83 1.38 9.66 0 1.15-.7 2.07-.45.69-2.98.69-1.16 0-2.3-.46a5.5 5.5 0 0 1-1.61-2.53q-2.07-4.6-3.45-8.51-1.38-4.14-2.53-8.28-.92-4.14-2.07-8.74-1.16-4.6-2.76-10.12-2.54-8.97-5.3-19.09-2.75-10.35-5.05-19.55a358 358 0 0 1-3.68-16.56q-1.38-7.36-1.38-10.35v-3.68q.23-2.3.69-4.37.7-2.3 1.6-3.68a3.5 3.5 0 0 1 3-1.61q1.14 0 2.3 3.68 1.37 3.44 2.3 7.82a86 86 0 0 1 1.84 8.05q.91 3.68.92 3.91.9 5.06 2.07 11.27 1.38 5.98 2.76 12.19t2.99 11.96a65 65 0 0 0 3.45 9.43q.23-2.3 1.6-6.67a84 84 0 0 1 3.69-9.43 213 213 0 0 1 5.06-10.35q2.98-5.52 5.98-9.89a50 50 0 0 1 6.2-7.13q3.23-2.76 5.99-2.76 4.36 0 5.98 1.15 1.84 1.15 1.84 2.76 0 1.38-3.91 5.52a89 89 0 0 0-8.74 10.58 77 77 0 0 0-8.74 15.41q-3.91 8.74-3.91 19.55 0 3.9 2.07 6.9a19 19 0 0 0 5.75 4.6 42 42 0 0 0 8.05 2.99q4.59.92 8.97.92 3.9 0 8.5-.23 4.6-.22 8.52-.46 4.14-.46 6.9-.69 2.99-.23 3.68-.23 1.14 0 2.07.69.91.7.92 2.3m119.24-23.23q0 4.14-3.91 10.35a54 54 0 0 1-10.12 11.73 65 65 0 0 1-14.95 9.89 42 42 0 0 1-17.71 3.91q-4.14 0-8.74-1.38a42 42 0 0 1-8.97-3.91 40 40 0 0 1-7.82-6.44 25 25 0 0 1-5.06-8.74 29 29 0 0 0-3.45 4.6q-1.85 3.22-4.14 6.67a37 37 0 0 1-5.06 5.75 9 9 0 0 1-5.75 2.3q-3 0-5.06-2.99a35 35 0 0 1-3-6.9q-1.14-3.9-1.6-7.36-.46-3.45-.46-3.91 0-2.76 1.6-10.35a101 101 0 0 1 4.84-16.1 62 62 0 0 1 8.05-14.72q5.05-6.45 11.73-6.44 2.52 0 3.22 2.3.92 2.07.92 4.14v6.9a9 9 0 0 0 2.3 1.38q1.38.23 2.3.92 1.14.45 1.6 1.61.7 1.16.7 3.68 0 1.6-.23 2.99-.23 1.15-.23 2.3 0 5.99.92 11.73a29 29 0 0 0 3.68 10.35 23 23 0 0 0 7.59 7.36q4.83 2.76 12.88 2.76 10.12 0 17.02-4.14a54 54 0 0 0 11.73-9.43 82 82 0 0 0 7.59-9.43q2.76-4.37 4.6-4.37 2.99 0 2.99 2.99m-80.73-10.12q0-.92-.46-1.61a4 4 0 0 1-.46-1.61q0-.92.46-1.61.45-.69.46-1.84 0-.7-.46-.92-.46-.45-.46-.92-2.07.45-4.37 3.91a78 78 0 0 0-4.14 8.05 68 68 0 0 0-3 9.43 33 33 0 0 0-1.14 7.59q0 1.61.92 5.29.91 3.67 2.07 4.83 3.9-8.05 7.13-15.64a36 36 0 0 0 3.45-14.95m144.51-46q-3 3.45-8.51 6.9a195 195 0 0 1-11.04 5.98l-9.66 4.83q-4.14 1.84-4.14 2.53t.92 4.14 2.07 8.28q1.38 4.6 2.76 9.66 1.38 5.05 2.3 8.97.46 2.3 1.15 5.98.69 3.67 1.15 7.36a219 219 0 0 1 1.61 9.66q0 3.45-1.15 7.13-1.16 3.68-3.68 3.68a3.5 3.5 0 0 1-2.53-1.15 16 16 0 0 1-2.07-2.53 16 16 0 0 1-1.38-2.99 7 7 0 0 1-.46-2.07v-1.38q.23-.91.23-2.07 0-4.37-1.38-12.65-.46-2.54-1.84-7.82-1.38-5.3-2.76-10.81-1.62-6.44-3.68-14.03-.93-3.22-1.15-3.22-1.62 0-5.52 2.07a109 109 0 0 0-8.51 4.83q-4.84 2.76-10.12 6.21a380 380 0 0 0-9.89 6.21 287 287 0 0 0-7.82 4.83q-3.45 1.84-4.14 1.84-3 0-4.83-2.07a6.8 6.8 0 0 1-1.84-4.6q0-1.38 3.91-3.91a85 85 0 0 1 9.43-5.98q5.52-3.22 12.19-6.67 6.44-3.45 11.96-6.21 5.74-2.76 9.43-4.6l3.91-1.84a691 691 0 0 1-3.45-18.86q-1.16-7.13-2.3-13.11a123 123 0 0 1-.92-6.44q0-3 1.15-4.37 1.38-1.6 2.99-1.61 2.53 0 3.22 3.45 2.53 12.42 4.6 22.08a169 169 0 0 0 4.37 15.64q2.06-.45 7.13-2.53l10.58-4.83a342 342 0 0 1 9.89-4.37q4.6-2.07 5.29-2.07 1.38 0 1.61.92.45.92.92 1.61m86.09 61.41q1.15 1.15 1.15 1.38 0 .46-1.38 2.76a26 26 0 0 1-3.22 4.83 32 32 0 0 1-4.6 4.6 7.3 7.3 0 0 1-4.6 1.84q-4.83 0-7.82-1.84a20 20 0 0 1-5.06-5.06q-1.83-3-2.99-6.44-.92-3.67-1.61-6.9-.45-1.6-.92-1.61-.69 0-2.76 5.06l-4.6 10.81a243 243 0 0 1-4.6 10.81q-2.07 4.83-2.76 4.83-4.13 0-7.13-3.45a36 36 0 0 1-4.6-8.28 76 76 0 0 1-2.53-9.66 92 92 0 0 1-1.15-7.82 500 500 0 0 0-2.99-20.7 459 459 0 0 1-3.91-35.19q-.46-4.37-1.15-7.82-.45-3.68-1.15-8.05a139 139 0 0 1-1.15-9.89q-.45-5.52-.46-13.57 0-.45.23-2.99a102 102 0 0 1 .69-5.52q.46-3 1.38-5.29 1.15-2.3 2.53-2.3 1.62 0 2.99 2.07a17 17 0 0 1 2.3 4.37q1.16 2.53 1.61 4.83t.46 3.22q0 3.45-.46 6.44t-.46 5.52q0 3.45.46 8.74.7 5.3 1.61 10.81t1.61 10.81l1.15 8.28q0 .23.46 3.22t.92 7.59q.7 4.36 1.15 9.66l1.38 10.12q.7 4.83 1.15 8.74.7 3.68.92 5.29 0 .69.23 2.07.46 1.15.69 2.76.47 1.6.92 2.99.46 1.38 1.15 2.07a85 85 0 0 0 3.45-8.51q2.3-5.75 4.6-11.73 2.53-5.99 4.6-10.35 2.3-4.6 3.91-4.6 1.85 0 2.99.69 1.16.69 2.99 1.15 2.3.92 2.3 2.53 0 1.38.46 3.45.46 2.77 1.38 7.36 1.15 4.37 2.53 8.74 1.38 4.14 3.22 7.13t3.68 2.99q.93 0 2.53-2.3a5.6 5.6 0 0 1 4.37-2.76q.47 0 1.61.69a9 9 0 0 1 2.3 1.38m55.85-7.13q0 5.06-1.38 9.66a30 30 0 0 1-3.68 8.05 19 19 0 0 1-5.52 5.52 12.5 12.5 0 0 1-6.67 1.84q-6.45 0-10.12-3.68a27 27 0 0 1-5.75-8.51 45 45 0 0 1-2.53-9.66q-.46-5.05-.46-7.59 0-4.14 1.15-9.2a55 55 0 0 1 3.45-9.66 34 34 0 0 1 5.06-7.36q2.75-3 5.75-2.99.69 0 2.07.46 1.6.46 3.22 1.38 1.6.92 2.76 2.3 1.38 1.38 1.84 3.22 2.52.23 5.06 1.84 2.52 1.61 2.76 2.53a56 56 0 0 1 2.3 11.96q.69 5.98.69 9.89m-10.35-4.14q0-3.45-.69-7.13a27 27 0 0 0-2.76-7.82q-.46.23-1.15.23-.92 0-1.62-.23a2 2 0 0 0-.91-.23 6 6 0 0 0-4.37 1.61 9 9 0 0 0-2.53 3.91 25 25 0 0 0-.92 5.06 61 61 0 0 0-.23 5.29q0 2.53.23 5.75.23 3 .92 5.75a20 20 0 0 0 2.3 4.83 4.4 4.4 0 0 0 3.68 1.84q2.3 0 3.91-2.3a22 22 0 0 0 2.53-5.75q.91-3.23 1.15-6.21.45-3.22.46-4.6m102.64 25.53q0 1.38-.92 2.76t-2.3 2.53q-1.15 1.15-2.76 2.07-1.38.69-2.53.69-3.91 0-10.12-1.61-5.98-1.85-9.66-5.52a42 42 0 0 1-6.9-9.2q-3-5.52-6.67-16.1a231 231 0 0 1-5.98 20.01 51 51 0 0 1-10.58 18.17q-.46.45-1.38.46-1.62 0-3.45-1.61-1.84-1.61-1.84-3.22t-.46-7.36a576 576 0 0 0-.69-13.11l-.92-14.72q-.24-7.59-.23-12.42 0-2.3.23-5.98.22-3.9 1.38-6.67.23-.45 1.61-1.84a5.2 5.2 0 0 1 3.45-1.38q1.6 0 1.84 2.07t.23 4.6v36.34q0 1.15.23 3.22.45 2.07 1.15 2.99a90 90 0 0 0 4.6-12.88q2.3-7.59 4.37-14.26a95 95 0 0 1 4.14-11.5q2.07-4.83 4.14-4.83 2.3 0 3.68.92t2.3 3.68q1.14 6.67 1.84 11.96.68 5.06 1.61 9.2a43 43 0 0 0 2.99 7.82 27 27 0 0 0 5.52 6.44 20 20 0 0 0 7.13 4.37 23 23 0 0 0 7.13 1.38q1.38 0 2.99-.46a7 7 0 0 1 2.3-.69q.92 0 1.61 1.61.92 1.6.92 2.07"/></mask><path fill="#f44336" d="M453.46 816.81q0 .69-1.38 1.84-1.15.92-2.99 1.84t-4.14 1.84a20 20 0 0 1-3.91.92q-3.9.92-8.05 1.15-4.14.23-7.82.92a84 84 0 0 1 1.84 17.25q0 8.75-2.3 13.8-2.07 5.06-5.29 5.06-1.38 0-2.53-1.61a10 10 0 0 1-.92-4.6q0-.69.46-2.76.69-2.3.69-4.37 0-.45-.23-2.99a102 102 0 0 0-.69-5.98q-.22-3.45-.69-6.67-.22-3.45-.46-5.06-2.3 0-5.75.46-3.45.23-4.14.23-3.22 0-5.75-.92-2.3-.92-2.3-4.6 0-2.07 1.84-2.76.7.69 1.61.69.22 0 2.07-.23l4.14-.92q2.3-.45 3.91-.92 1.84-.69 1.84-1.15t-.92-4.6q-.69-4.14-1.84-8.97-.92-5.06-1.84-9.89a56 56 0 0 1-.69-6.67v-1.38l.46-2.3a9 9 0 0 1 1.15-2.07q.69-.92 2.07-.92 4.37 0 5.06 2.76 1.85 7.82 2.76 14.26 1.15 6.2 1.84 10.81.92 4.37 1.61 6.9.91 2.3 2.76 2.3 5.52-.69 10.35-1.38l7.82-.92q3.91-.45 5.06-.46.46 0 2.76.46 2.53.45 2.53 1.61m176.49-7.36q0 1.15-1.16 1.84-.9.69-2.3 1.15-1.14.46-2.52 1.15-1.4.46-2.08 1.15l1.62 10.81q1.37 8.97 2.3 17.48a120 120 0 0 1 1.15 16.1q0 5.98-1.38 10.81-1.16 4.6-4.37 4.6-1.62 0-3-3.91-1.14-4.14-2.07-9.2-.69-5.3-1.14-10.35-.24-5.3-.24-7.59 0-1.6-.23-5.06-.23-3.68-.68-7.59-.46-4.14-.93-7.59l-.68-5.52q-3.92.23-10.59 1.15-6.66.69-16.32 3.22v2.76q0 5.06.45 11.27.47 5.99.93 12.42.68 6.21 1.14 12.65.47 6.21.47 11.96 0 2.3-.47 3.68-.46 1.6-2.07 1.61-2.75 0-4.37-2.76a24 24 0 0 1-2.06-6.44q-.7-3.9-1.15-8.05-.23-4.14-.47-6.9-.9-5.99-1.6-13.8-.47-8.05-.92-16.33-.92 0-2.3-.46l-2.76-1.38a15 15 0 0 1-2.3-1.84 3 3 0 0 1-.93-2.07q0-2.76 2.54-4.37a24 24 0 0 1 5.51-2.99 40 40 0 0 1-.23-4.37v-41.17q.24-7.6.24-15.41a21 21 0 0 1 1.14-4.37q.93-2.76 3-2.76 1.6 0 2.75 1.38a8 8 0 0 1 1.85 2.99q.68 1.84.91 3.91.47 1.84.47 3.22v54.97q2.07 0 5.51-.23l7.13-.46q3.7-.45 7.13-.92 3.69-.45 5.99-.92l-5.3-48.3q-.22-1.6-.45-3.45v-2.99q0-4.6 1.14-7.36 1.38-3 3.91-2.99 3.23 0 3.92 2.99t.91 8.74l.47 7.36q.23 3.45.68 6.9l5.3 38.87q2.75 0 5.51.46 3 .23 3 2.3m129.68 17.71q0 4.14-3.91 10.35a54 54 0 0 1-10.12 11.73 65 65 0 0 1-14.95 9.89 42 42 0 0 1-17.71 3.91q-4.14 0-8.74-1.38a42 42 0 0 1-8.97-3.91 40 40 0 0 1-7.82-6.44 25 25 0 0 1-5.06-8.74 29 29 0 0 0-3.45 4.6q-1.84 3.22-4.14 6.67a37 37 0 0 1-5.06 5.75 9 9 0 0 1-5.75 2.3q-3 0-5.06-2.99a35 35 0 0 1-3-6.9q-1.14-3.9-1.6-7.36-.45-3.45-.46-3.91 0-2.76 1.6-10.35a100 100 0 0 1 4.84-16.1 62 62 0 0 1 8.05-14.72q5.05-6.45 11.73-6.44 2.52 0 3.22 2.3.92 2.07.92 4.14v6.9a9 9 0 0 0 2.3 1.38 5 5 0 0 1 2.3.92q1.15.45 1.6 1.61.7 1.16.7 3.68 0 1.6-.23 2.99-.23 1.15-.23 2.3 0 5.99.92 11.73a29 29 0 0 0 3.68 10.35 23 23 0 0 0 7.59 7.36q4.83 2.76 12.88 2.76 10.12 0 17.02-4.14a54 54 0 0 0 11.73-9.43 82 82 0 0 0 7.59-9.43q2.76-4.37 4.6-4.37 3 0 2.99 2.99m-80.73-10.12q0-.92-.46-1.61a4 4 0 0 1-.46-1.61q0-.92.46-1.61.45-.69.46-1.84 0-.7-.46-.92-.46-.45-.46-.92-2.07.45-4.37 3.91a78 78 0 0 0-4.14 8.05 67 67 0 0 0-3 9.43 33 33 0 0 0-1.14 7.59q0 1.61.92 5.29.91 3.67 2.07 4.83 3.9-8.05 7.13-15.64a36 36 0 0 0 3.45-14.95m149.8 16.1q0 2.3-.7 4.83a37 37 0 0 1-1.37 3.91q-.46.69-4.37 4.83a77 77 0 0 1-9.43 8.28 78 78 0 0 1-12.65 8.05q-6.9 3.45-13.34 3.45-3.91 0-8.05-1.38a23 23 0 0 1-7.36-4.37 27 27 0 0 1-5.75-7.82q-2.07-4.6-2.07-11.27 0-11.04 3.68-20.01 3.67-8.97 7.36-14.26a30 30 0 0 1 4.14-5.06 72 72 0 0 1 5.29-4.83 40 40 0 0 1 4.6-3.68q2.3-1.38 3.22-1.38 2.06 0 3.68 1.15 1.84 1.15 1.84 2.3 0 1.84-1.15 3.22-.93 1.16-2.76 2.76a43 43 0 0 0-4.37 3.91 38 38 0 0 0-5.3 6.21 59 59 0 0 0-8.27 15.64q-2.53 7.82-2.53 13.8t4.37 9.66q4.59 3.45 9.43 3.45 8.74 0 15.4-3.91 6.9-3.9 11.74-8.74a90 90 0 0 0 7.82-8.74q3-3.9 4.37-3.91 2.52 0 2.53 3.91m100.09 17.25q0 1.85-.46 2.76-.47.69-2.3 1.15-2.07.7-5.3 1.61-2.99.7-6.66 1.61-3.69.69-7.6 1.38-3.68.45-6.9.46-3.9 0-8.73-.46a84 84 0 0 1-8.97-1.38q-4.38-1.15-8.05-2.3-3.46-1.38-5.06-3.22 1.14 4.83 2.07 9.66.9 4.83 1.38 9.66 0 1.15-.7 2.07-.45.69-2.98.69-1.16 0-2.3-.46a5.5 5.5 0 0 1-1.61-2.53q-2.07-4.6-3.45-8.51-1.38-4.14-2.53-8.28-.92-4.14-2.07-8.74-1.16-4.6-2.76-10.12-2.54-8.97-5.3-19.09-2.75-10.35-5.05-19.55a358 358 0 0 1-3.68-16.56q-1.38-7.36-1.38-10.35v-3.68q.23-2.3.69-4.37.7-2.3 1.6-3.68a3.5 3.5 0 0 1 3-1.61q1.14 0 2.3 3.68 1.37 3.44 2.3 7.82a86 86 0 0 1 1.84 8.05q.91 3.68.92 3.91.9 5.06 2.07 11.27 1.38 5.98 2.76 12.19t2.99 11.96a65 65 0 0 0 3.45 9.43q.23-2.3 1.6-6.67a84 84 0 0 1 3.69-9.43 213 213 0 0 1 5.06-10.35q2.98-5.52 5.98-9.89a50 50 0 0 1 6.2-7.13q3.23-2.76 5.99-2.76 4.36 0 5.98 1.15 1.84 1.15 1.84 2.76 0 1.38-3.91 5.52a89 89 0 0 0-8.74 10.58 77 77 0 0 0-8.74 15.41q-3.91 8.74-3.91 19.55 0 3.9 2.07 6.9a19 19 0 0 0 5.75 4.6 42 42 0 0 0 8.05 2.99q4.59.92 8.97.92 3.9 0 8.5-.23 4.6-.22 8.52-.46 4.14-.46 6.9-.69 2.99-.23 3.68-.23 1.14 0 2.07.69.91.7.92 2.3m119.24-23.23q0 4.14-3.91 10.35a54 54 0 0 1-10.12 11.73 65 65 0 0 1-14.95 9.89 42 42 0 0 1-17.71 3.91q-4.14 0-8.74-1.38a42 42 0 0 1-8.97-3.91 40 40 0 0 1-7.82-6.44 25 25 0 0 1-5.06-8.74 29 29 0 0 0-3.45 4.6q-1.85 3.22-4.14 6.67a37 37 0 0 1-5.06 5.75 9 9 0 0 1-5.75 2.3q-3 0-5.06-2.99a35 35 0 0 1-3-6.9q-1.14-3.9-1.6-7.36-.46-3.45-.46-3.91 0-2.76 1.6-10.35a101 101 0 0 1 4.84-16.1 62 62 0 0 1 8.05-14.72q5.05-6.45 11.73-6.44 2.52 0 3.22 2.3.92 2.07.92 4.14v6.9a9 9 0 0 0 2.3 1.38q1.38.23 2.3.92 1.14.45 1.6 1.61.7 1.16.7 3.68 0 1.6-.23 2.99-.23 1.15-.23 2.3 0 5.99.92 11.73a29 29 0 0 0 3.68 10.35 23 23 0 0 0 7.59 7.36q4.83 2.76 12.88 2.76 10.12 0 17.02-4.14a54 54 0 0 0 11.73-9.43 82 82 0 0 0 7.59-9.43q2.76-4.37 4.6-4.37 2.99 0 2.99 2.99m-80.73-10.12q0-.92-.46-1.61a4 4 0 0 1-.46-1.61q0-.92.46-1.61.45-.69.46-1.84 0-.7-.46-.92-.46-.45-.46-.92-2.07.45-4.37 3.91a78 78 0 0 0-4.14 8.05 68 68 0 0 0-3 9.43 33 33 0 0 0-1.14 7.59q0 1.61.92 5.29.91 3.67 2.07 4.83 3.9-8.05 7.13-15.64a36 36 0 0 0 3.45-14.95m144.51-46q-3 3.45-8.51 6.9a195 195 0 0 1-11.04 5.98l-9.66 4.83q-4.14 1.84-4.14 2.53t.92 4.14 2.07 8.28q1.38 4.6 2.76 9.66 1.38 5.05 2.3 8.97.46 2.3 1.15 5.98.69 3.67 1.15 7.36a219 219 0 0 1 1.61 9.66q0 3.45-1.15 7.13-1.16 3.68-3.68 3.68a3.5 3.5 0 0 1-2.53-1.15 16 16 0 0 1-2.07-2.53 16 16 0 0 1-1.38-2.99 7 7 0 0 1-.46-2.07v-1.38q.23-.91.23-2.07 0-4.37-1.38-12.65-.46-2.54-1.84-7.82-1.38-5.3-2.76-10.81-1.62-6.44-3.68-14.03-.93-3.22-1.15-3.22-1.62 0-5.52 2.07a109 109 0 0 0-8.51 4.83q-4.84 2.76-10.12 6.21a380 380 0 0 0-9.89 6.21 287 287 0 0 0-7.82 4.83q-3.45 1.84-4.14 1.84-3 0-4.83-2.07a6.8 6.8 0 0 1-1.84-4.6q0-1.38 3.91-3.91a85 85 0 0 1 9.43-5.98q5.52-3.22 12.19-6.67 6.44-3.45 11.96-6.21 5.74-2.76 9.43-4.6l3.91-1.84a691 691 0 0 1-3.45-18.86q-1.16-7.13-2.3-13.11a123 123 0 0 1-.92-6.44q0-3 1.15-4.37 1.38-1.6 2.99-1.61 2.53 0 3.22 3.45 2.53 12.42 4.6 22.08a169 169 0 0 0 4.37 15.64q2.06-.45 7.13-2.53l10.58-4.83a342 342 0 0 1 9.89-4.37q4.6-2.07 5.29-2.07 1.38 0 1.61.92.45.92.92 1.61m86.09 61.41q1.15 1.15 1.15 1.38 0 .46-1.38 2.76a26 26 0 0 1-3.22 4.83 32 32 0 0 1-4.6 4.6 7.3 7.3 0 0 1-4.6 1.84q-4.83 0-7.82-1.84a20 20 0 0 1-5.06-5.06q-1.83-3-2.99-6.44-.92-3.67-1.61-6.9-.45-1.6-.92-1.61-.69 0-2.76 5.06l-4.6 10.81a243 243 0 0 1-4.6 10.81q-2.07 4.83-2.76 4.83-4.13 0-7.13-3.45a36 36 0 0 1-4.6-8.28 76 76 0 0 1-2.53-9.66 92 92 0 0 1-1.15-7.82 500 500 0 0 0-2.99-20.7 459 459 0 0 1-3.91-35.19q-.46-4.37-1.15-7.82-.45-3.68-1.15-8.05a139 139 0 0 1-1.15-9.89q-.45-5.52-.46-13.57 0-.45.23-2.99a102 102 0 0 1 .69-5.52q.46-3 1.38-5.29 1.15-2.3 2.53-2.3 1.62 0 2.99 2.07a17 17 0 0 1 2.3 4.37q1.16 2.53 1.61 4.83t.46 3.22q0 3.45-.46 6.44t-.46 5.52q0 3.45.46 8.74.7 5.3 1.61 10.81t1.61 10.81l1.15 8.28q0 .23.46 3.22t.92 7.59q.7 4.36 1.15 9.66l1.38 10.12q.7 4.83 1.15 8.74.7 3.68.92 5.29 0 .69.23 2.07.46 1.15.69 2.76.47 1.6.92 2.99.46 1.38 1.15 2.07a85 85 0 0 0 3.45-8.51q2.3-5.75 4.6-11.73 2.53-5.99 4.6-10.35 2.3-4.6 3.91-4.6 1.85 0 2.99.69 1.16.69 2.99 1.15 2.3.92 2.3 2.53 0 1.38.46 3.45.46 2.77 1.38 7.36 1.15 4.37 2.53 8.74 1.38 4.14 3.22 7.13t3.68 2.99q.93 0 2.53-2.3a5.6 5.6 0 0 1 4.37-2.76q.47 0 1.61.69a9 9 0 0 1 2.3 1.38m55.85-7.13q0 5.06-1.38 9.66a30 30 0 0 1-3.68 8.05 19 19 0 0 1-5.52 5.52 12.5 12.5 0 0 1-6.67 1.84q-6.45 0-10.12-3.68a27 27 0 0 1-5.75-8.51 45 45 0 0 1-2.53-9.66q-.46-5.05-.46-7.59 0-4.14 1.15-9.2a55 55 0 0 1 3.45-9.66 34 34 0 0 1 5.06-7.36q2.75-3 5.75-2.99.69 0 2.07.46 1.6.46 3.22 1.38 1.6.92 2.76 2.3 1.38 1.38 1.84 3.22 2.52.23 5.06 1.84 2.52 1.61 2.76 2.53a56 56 0 0 1 2.3 11.96q.69 5.98.69 9.89m-10.35-4.14q0-3.45-.69-7.13a27 27 0 0 0-2.76-7.82q-.46.23-1.15.23-.92 0-1.62-.23a2 2 0 0 0-.91-.23 6 6 0 0 0-4.37 1.61 9 9 0 0 0-2.53 3.91 25 25 0 0 0-.92 5.06 61 61 0 0 0-.23 5.29q0 2.53.23 5.75.23 3 .92 5.75a20 20 0 0 0 2.3 4.83 4.4 4.4 0 0 0 3.68 1.84q2.3 0 3.91-2.3a22 22 0 0 0 2.53-5.75q.91-3.23 1.15-6.21.45-3.22.46-4.6m102.64 25.53q0 1.38-.92 2.76t-2.3 2.53q-1.15 1.15-2.76 2.07-1.38.69-2.53.69-3.91 0-10.12-1.61-5.98-1.85-9.66-5.52a42 42 0 0 1-6.9-9.2q-3-5.52-6.67-16.1a231 231 0 0 1-5.98 20.01 51 51 0 0 1-10.58 18.17q-.46.45-1.38.46-1.62 0-3.45-1.61-1.84-1.61-1.84-3.22t-.46-7.36a576 576 0 0 0-.69-13.11l-.92-14.72q-.24-7.59-.23-12.42 0-2.3.23-5.98.22-3.9 1.38-6.67.23-.45 1.61-1.84a5.2 5.2 0 0 1 3.45-1.38q1.6 0 1.84 2.07t.23 4.6v36.34q0 1.15.23 3.22.45 2.07 1.15 2.99a90 90 0 0 0 4.6-12.88q2.3-7.59 4.37-14.26a95 95 0 0 1 4.14-11.5q2.07-4.83 4.14-4.83 2.3 0 3.68.92t2.3 3.68q1.14 6.67 1.84 11.96.68 5.06 1.61 9.2a43 43 0 0 0 2.99 7.82 27 27 0 0 0 5.52 6.44 20 20 0 0 0 7.13 4.37 23 23 0 0 0 7.13 1.38q1.38 0 2.99-.46a7 7 0 0 1 2.3-.69q.92 0 1.61 1.61.92 1.6.92 2.07"/><path fill="#000" d="m452.08 818.65 2.5 3.12.03-.02.03-.03zm-2.99 1.84-1.79-3.58zm-4.14 1.84 1.26 3.8.12-.04.1-.05zm-3.91.92-.5-3.97-.2.03-.22.05zm-8.05 1.15.22 4zm-7.82.92-.74-3.93-4.02.75.85 4zm-.46 31.05-3.64-1.65-.03.06-.03.08zm-7.82 3.45-3.58 1.79.14.28.19.25zm-.46-7.36-3.83-1.15-.04.14-.04.14zm.46-7.36-3.99.33v.03zm-.69-5.98-4 .27.02.15.02.15zm-.69-6.67-4 .27.02.15.02.15zm-.46-5.06 3.96-.57-.5-3.43h-3.46zm-5.75.46.27 4 .13-.02.13-.01zm-9.89-.69-1.49 3.71.06.03.06.02zm-.46-7.36 2.83-2.83-1.82-1.82-2.41.9zm3.68.46.5 3.97.18-.02.19-.05zm4.14-.92-.78-3.92h-.05l-.04.01zm3.91-.92 1.1 3.85.15-.05.15-.06zm.92-5.75-3.95.66.02.1.02.1zm-1.84-8.97-3.94.72.02.1.03.1zm-1.84-9.89-3.96.57.01.09.02.09zm-.69-8.05-3.92-.78-.08.38v.4zm.46-2.3-3.71-1.49-.14.35-.07.36zm1.15-2.07 3.2 2.4zm7.13 1.84 3.9-.92-.01-.02v-.03zm2.76 14.26-3.96.57.01.08.02.08zm1.84 10.81-3.96.6.02.1.03.12zm1.61 6.9-3.86 1.05.06.22.09.22zm2.76 2.3v4h.25l.25-.03zm10.35-1.38-.47-3.97h-.05l-.05.01zm7.82-.92-.47-3.97zm7.82 0-.78 3.92h.03l.03.01zm2.53 1.61h-4c0-.55.14-.97.24-1.2q.17-.36.22-.4c.02-.04-.06.08-.4.37l2.56 3.07 2.56 3.07a10 10 0 0 0 1.68-1.7 5.4 5.4 0 0 0 1.14-3.21zm-1.38 1.84-2.5-3.12c-.48.38-1.21.85-2.28 1.38l1.79 3.58 1.79 3.58q2.1-1.04 3.7-2.3zm-2.99 1.84-1.79-3.58a51 51 0 0 1-3.84 1.7l1.49 3.72 1.49 3.71q2.42-.96 4.44-1.97zm-4.14 1.84-1.26-3.8q-1.76.59-3.15.75l.5 3.97.5 3.97q2.29-.3 4.67-1.1zm-3.91.92-.92-3.9q-3.55.84-7.35 1.06l.22 3.99.22 4q4.48-.26 8.75-1.26zm-8.05 1.15-.22-4q-4.38.25-8.34.99l.74 3.93.74 3.93q3.4-.63 7.3-.86zm-7.82.92-3.91.82a80 80 0 0 1 1.75 16.43h8q0-8.95-1.93-18.07zm1.84 17.25h-4c0 5.55-.74 9.5-1.94 12.14l3.64 1.66 3.64 1.65c1.87-4.1 2.66-9.34 2.66-15.45zm-2.3 13.8-3.7-1.51a7 7 0 0 1-1.42 2.41c-.15.14-.22.17-.22.17h.03l.02-.01v8c4.73 0 7.47-3.82 9-7.54zm-5.29 5.06v-4a2 2 0 0 1 .82.22c.13.08.08.09-.1-.15l-3.25 2.32-3.25 2.32c1.17 1.64 3.07 3.29 5.78 3.29zm-2.53-1.61 3.58-1.79a6 6 0 0 1-.5-2.81h-8c0 2.26.37 4.45 1.34 6.39zm-.92-4.6h4v.01l.06-.39q.09-.54.3-1.51l-3.9-.87-3.9-.87a18 18 0 0 0-.56 3.63zm.46-2.76 3.83 1.15q.85-2.78.86-5.52h-8q.01 1.4-.52 3.22zm.69-4.37h4c0-.54-.1-1.77-.25-3.35l-3.98.36-3.98.36.16 1.96c.05.53.05.7.05.67zm-.23-2.99 3.99-.33q-.25-2.9-.72-6.22l-3.96.57-3.96.57q.45 3.13.66 5.74zm-.69-5.98 4-.27q-.25-3.58-.73-6.97l-3.96.57-3.96.57q.44 3.06.66 6.37zm-.69-6.67 4-.27a78 78 0 0 0-.5-5.36l-3.96.57-3.96.57q.2 1.35.43 4.76zm-.46-5.06v-4q-2.67.01-6.28.5l.53 3.96.53 3.97q3.3-.44 5.22-.43zm-5.75.46-.27-4a90 90 0 0 1-3.87.23v8c.63 0 2.17-.09 4.4-.24zm-4.14.23v-4a13 13 0 0 1-4.38-.68l-1.37 3.76-1.37 3.76c2.2.8 4.6 1.16 7.12 1.16zm-5.75-.92 1.49-3.71a1 1 0 0 1 .33.26l.03.05-.08-.29q-.07-.3-.07-.91h-8c0 3.16 1.06 6.81 4.81 8.31zm-2.3-4.6h4c0-.1.02.15-.21.5-.24.35-.52.48-.55.49l-1.4-3.75-1.4-3.75a6.7 6.7 0 0 0-3.3 2.57 7 7 0 0 0-1.14 3.94zm1.84-2.76-2.83 2.83a6.2 6.2 0 0 0 4.44 1.86v-8a1.8 1.8 0 0 1 1.22.48zm1.61.69v4c.35 0 .83-.06 1.07-.08l1.5-.18-.5-3.97-.5-3.97-1.72.2h-.03.18zm2.07-.23.87 3.9 1.03-.23 1.04-.22 2.07-.47-.87-3.9-.87-3.9-1.03.22-1.04.24-2.07.46zm4.14-.92.78 3.92q2.4-.48 4.23-1l-1.1-3.84-1.1-3.85q-1.4.4-3.6.85zm3.91-.92 1.4 3.75c.7-.27 1.46-.59 2.1-1 .32-.19.78-.51 1.21-1a4.4 4.4 0 0 0 1.13-2.9h-8a3.6 3.6 0 0 1 1.42-2.87c.03-.02-.13.08-.66.27zm1.84-1.15h4a7 7 0 0 0-.11-1.12l-.2-1.04q-.24-1.22-.7-3.3l-3.91.86-3.9.87a159 159 0 0 1 .84 4.05v-.01l-.01-.05-.01-.26zm-.92-4.6 3.95-.66q-.73-4.29-1.9-9.24l-3.89.93-3.9.93q1.13 4.71 1.8 8.7zm-1.84-8.97 3.94-.72q-.93-5.07-1.85-9.92l-3.93.75-3.93.75q.92 4.81 1.83 9.86zm-1.84-9.89 3.96-.57c-.46-3.24-.65-5.2-.65-6.1h-8c0 1.55.27 4.04.73 7.24zm-.69-6.67h4v-1.38h-8v1.38zm0-1.38 3.92.78.46-2.3-3.92-.78-3.92-.78-.46 2.3zm.46-2.3 3.71 1.49a5 5 0 0 1 .64-1.16l-3.2-2.4-3.2-2.4q-1.03 1.38-1.66 2.98zm1.15-2.07 3.2 2.4q-.26.36-.71.57c-.27.11-.44.11-.42.11v-8c-1.9 0-3.9.7-5.27 2.52zm2.07-.92v4q.77 0 1.17.1.38.09.37.1a1 1 0 0 1-.21-.2 1 1 0 0 1-.15-.27l3.88-.97 3.88-.97a7 7 0 0 0-3.58-4.61 11 11 0 0 0-5.36-1.18zm5.06 2.76-3.9.92q1.8 7.68 2.7 13.9l3.96-.56 3.96-.57q-.95-6.65-2.83-14.6zm2.76 14.26-3.93.73q1.14 6.15 1.81 10.67l3.96-.59 3.96-.6q-.71-4.68-1.87-10.94zm1.84 10.81-3.91.82q.93 4.44 1.66 7.13l3.86-1.05 3.86-1.05q-.64-2.37-1.56-6.67zm1.61 6.9-3.71 1.49a8 8 0 0 0 2.3 3.3c1.2 1 2.65 1.51 4.17 1.51v-8q.19 0 .48.09.3.12.47.26c.2.17.15.24 0-.14zm2.76 2.3.5 3.97q5.55-.7 10.42-1.39l-.57-3.96-.57-3.96q-4.79.69-10.28 1.37zm10.35-1.38.47 3.97 7.82-.92-.47-3.97-.47-3.97-7.82.92zm7.82-.92.47 3.97c2.67-.31 4.1-.43 4.59-.43v-8c-1.05 0-2.98.19-5.53.49zm5.06-.46v4c-.18 0-.27-.02-.15 0q.11 0 .41.06.6.1 1.72.32l.78-3.92.78-3.92q-1.17-.24-1.96-.37a10 10 0 0 0-1.58-.17zm2.76.46-.72 3.93q.43.09.56.14t-.09-.06a3 3 0 0 1-.74-.76 3 3 0 0 1-.48-1.64h8c0-2.16-1.3-3.6-2.48-4.35a9 9 0 0 0-3.33-1.2zm177.86-3.91-2.05-3.43-.18.1-.16.13zm-2.3 1.15-1.26-3.8-.11.04-.11.05zm-2.52 1.15 1.26 3.8.27-.1.25-.12zm-2.08 1.15-2.82-2.83-1.43 1.43.3 1.99zm1.62 10.81-3.96.59v.02zm2.3 17.48-3.98.43v.05l.01.06zm-.23 26.91-3.85-1.1-.02.06-.01.07zm-7.37.69-3.85 1.07.04.13.04.13zm-2.07-9.2-3.96.52.01.1.02.1zM615 851.08l-4 .17v.1l.01.1zm-.47-12.65-3.99.25v.02zm-.68-7.59-3.98.44v.03zm-.93-7.59-3.96.5v.03zm-.68-5.52 3.97-.5-.47-3.71-3.74.22zm-10.59 1.15.42 3.98h.06l.07-.02zm-16.32 3.22-1.02-3.87-2.98.78v3.09zm.45 14.03-3.98.3zm.93 12.42-4 .29.01.07.01.08zm1.14 12.65-3.98.28v.01zm0 15.64-3.79-1.26-.03.08-.02.08zm-6.44-1.15-3.57 1.79.05.11.07.12zm-2.06-6.44-3.94.7v.04zm-1.15-8.05-4 .22v.11l.02.11zm-.47-6.9 4-.33-.02-.14-.02-.14zm-1.6-13.8-4 .23v.06l.01.06zm-.92-16.33 3.99-.22-.21-3.78h-3.78zm-2.3-.46-1.8 3.58.26.13.27.09zm-2.76-1.38-2.22 3.33.2.14.23.1zm-2.3-1.84 2.82-2.83zm1.6-6.44 2.15 3.38.1-.07.1-.08zm5.52-2.99 1.44 3.73 2.88-1.1-.34-3.07zm-.23-45.54-4-.12v.12zm.24-15.41-3.97-.5-.03.25v.25zm1.14-4.37 3.76 1.37.02-.05.02-.05zm5.75-1.38-3.07 2.56.12.14.13.13zm1.85 2.99-3.75 1.4zm.91 3.91-3.97.44.03.27.06.26zm.47 58.19h-4v4h4zm12.64-.69.25 4 .13-.02.12-.01zm7.13-.92-.5-3.97h-.02zm5.99-.92.78 3.92 3.59-.72-.4-3.63zm-5.3-48.3 3.98-.44v-.06l-.01-.07zm-.45-3.45h-4v.25l.03.25zm1.14-10.35-3.63-1.68-.03.07-.03.07zm7.83 0-3.9.9zm.91 8.74-4 .16.01.04v.05zm.47 7.36-4 .25v.02zm.68 6.9-3.96.53zm5.3 38.87-3.97.54.47 3.46h3.5zm5.51.46-.65 3.95.17.02.18.02zm3 2.3h-4c0-.32.09-.72.32-1.09.2-.34.44-.48.47-.5l2.05 3.43 2.06 3.43a6.1 6.1 0 0 0 3.1-5.27zm-1.16 1.84-2.4-3.2a4 4 0 0 1-1.16.55l1.26 3.8 1.27 3.8q1.86-.6 3.44-1.75zm-2.3 1.15-1.48-3.71q-1.35.53-2.83 1.28l1.79 3.58 1.78 3.58q1.27-.63 2.23-1.02zm-2.52 1.15-1.27-3.8a9 9 0 0 0-3.63 2.12l2.82 2.83 2.83 2.83q-.13.11-.02.03t.53-.22zm-2.08 1.15-3.95.59 1.6 10.8 3.97-.58 3.95-.59-1.6-10.8zm1.62 10.81-3.96.6q1.36 8.9 2.28 17.31l3.97-.43 3.98-.43q-.93-8.6-2.32-17.66zm2.3 17.48-3.97.54q1.12 8.27 1.12 15.56h8q0-7.88-1.2-16.64zm1.15 16.1h-4q-.01 5.5-1.23 9.71l3.85 1.1 3.84 1.1a43 43 0 0 0 1.54-11.91zm-1.38 10.81-3.88-.97a4 4 0 0 1-.7 1.66l.12-.06q.16-.04.09-.03v8c2.15 0 4.1-.82 5.6-2.4a11.6 11.6 0 0 0 2.65-5.23zm-4.37 4.6v-4c.58 0 1.05.19 1.34.37.25.16.33.3.28.22a4 4 0 0 1-.32-.55 12 12 0 0 1-.52-1.28l-3.77 1.33-3.78 1.33c.52 1.47 1.17 2.9 2.04 4.03a6 6 0 0 0 4.73 2.55zm-3-3.91 3.86-1.07a100 100 0 0 1-1.99-8.85l-3.94.72-3.93.72a109 109 0 0 0 2.15 9.55zm-2.07-9.2 3.97-.52a263 263 0 0 1-1.13-10.2l-3.99.37-3.98.36q.47 5.14 1.17 10.5zM615 851.08l4-.17q-.24-5.28-.24-7.42h-8q0 2.45.24 7.76zm-.24-7.59h4q0-1.84-.23-5.33l-4 .27-3.99.27q.24 3.4.23 4.79zm-.23-5.06 4-.25q-.24-3.8-.71-7.8l-3.98.46-3.97.47q.45 3.81.67 7.37zm-.68-7.59 3.97-.44q-.46-4.18-.93-7.68l-3.97.53-3.96.53q.45 3.39.91 7.5zm-.93-7.59 3.98-.5-.7-5.52-3.97.5-3.96.5.69 5.52zm-.68-5.52-.24-4q-4.14.26-10.9 1.19l.55 3.96.55 3.96q6.6-.9 10.27-1.12zm-10.59 1.15-.4-3.98q-7.1.75-16.94 3.33l1.02 3.87 1 3.87a108 108 0 0 1 15.74-3.11zm-16.32 3.22h-4v2.76h8v-2.76zm0 2.76h-4q0 5.25.47 11.56l3.99-.29 3.99-.3q-.45-6.1-.45-10.97zm.45 11.27-3.98.3.92 12.4 3.99-.28 3.99-.28q-.47-6.45-.93-12.45zm.93 12.42-3.98.44q.68 6.13 1.14 12.5l3.99-.29 3.99-.29q-.47-6.5-1.17-12.8zm1.14 12.65-3.98.3q.45 6.06.45 11.66h8q0-5.9-.48-12.25zm.47 11.96h-4c0 1.32-.14 2.07-.26 2.42l3.8 1.26 3.79 1.26c.5-1.49.67-3.2.67-4.94zm-.47 3.68-3.84-1.1c.01-.05.15-.47.64-.85.5-.4 1-.44 1.13-.44v8c1.22 0 2.59-.32 3.78-1.25a6.2 6.2 0 0 0 2.14-3.26zm-2.07 1.61v-4c-.21 0-.29-.04-.33-.07a2 2 0 0 1-.58-.7l-3.46 2.01-3.45 2.01c1.66 2.84 4.31 4.75 7.82 4.75zm-4.37-2.76 3.58-1.79a21 21 0 0 1-1.71-5.39l-3.93.74-3.94.74a28 28 0 0 0 2.43 7.49zm-2.06-6.44 3.93-.7q-.66-3.76-1.1-7.8l-3.98.45-3.98.44q.48 4.26 1.19 8.3zm-1.15-8.05 3.99-.22q-.23-4.17-.47-7.01l-3.99.33-3.98.33a258 258 0 0 1 .45 6.8zm-.47-6.9 3.96-.6q-.9-5.83-1.58-13.55l-3.99.35-3.98.35q.7 7.92 1.64 14.06zm-1.6-13.8 3.99-.23-.92-16.32-4 .22-3.99.22.92 16.34zm-.92-16.33v-4l-.25-.04q-.29-.04-.79-.22l-1.26 3.8-1.27 3.8c1.12.37 2.35.66 3.57.66zm-2.3-.46 1.78-3.58-.34-.17-.35-.17-.34-.17-.35-.18-.08-.04c-.15-.08.06.03-.09-.04s.07.03-.08-.05.06.04-.1-.04l-.08-.04c-.15-.08.07.03-.08-.05s.06.04-.09-.04.07.03-.09-.04c-.15-.08.07.03-.08-.05l-.09-.04-.08-.04-.1-.05-.08-.04-.08-.04-.09-.05-.09-.04-1.78 3.58-1.8 3.58.35.17c.38.2-.04-.02.35.17l.34.17.35.18.08.04.09.04.09.05.08.04c.15.08-.07-.03.09.04.15.08-.07-.03.08.05s-.06-.04.09.04-.07-.03.09.04c.15.08-.07-.03.08.05s-.06-.04.09.04l.08.04c.16.08-.06-.03.1.04.14.08-.07-.03.08.05l.08.04.09.04.09.05zm-2.76-1.38 2.21-3.33q-1.12-.75-1.69-1.34l-2.82 2.83-2.83 2.83q1.27 1.26 2.9 2.34zm-2.3-1.84 2.82-2.83q.02-.01.14.23.12.26.12.53h-8c0 1.97.83 3.64 2.09 4.9zm-.93-2.07h4c0-.28.06-.4.1-.47.04-.08.18-.27.58-.53l-2.14-3.37-2.15-3.37a9 9 0 0 0-4.38 7.74zm2.54-4.37 2.35 3.24a20 20 0 0 1 4.6-2.5l-1.43-3.73-1.44-3.73a28 28 0 0 0-6.44 3.49zm5.51-2.99 3.98-.44q-.2-1.83-.2-3.93h-8q0 2.5.25 4.81zm-.23-4.37h4v-8.51h-8v8.51zm0-8.51h4v-7.36h-8v7.36zm0-7.36h4v-11.27h-8v11.27zm0-11.27h4v-14.03h-8v14.03zm0-14.03 4 .12q.24-7.65.24-15.53h-8q0 7.76-.23 15.29zm.24-15.41 3.97.5c.1-.83.38-1.98.93-3.5l-3.75-1.37-3.76-1.37a25 25 0 0 0-1.36 5.24zm1.14-4.37 3.8 1.26q.13-.37.2-.45.05-.08-.07.06a1.4 1.4 0 0 1-.93.37v-8c-1.68 0-3.25.6-4.5 1.75a9 9 0 0 0-2.29 3.75zm3-2.76v4l-.13-.02-.17-.06c-.1-.05-.1-.08-.02.02l3.08-2.56 3.07-2.56a7.5 7.5 0 0 0-5.84-2.82zm2.75 1.38-2.82 2.83c.29.29.62.76.92 1.56l3.75-1.4 3.74-1.4a12 12 0 0 0-2.76-4.42zm1.85 2.99-3.75 1.4q.51 1.35.69 2.95l3.98-.44 3.97-.44a20 20 0 0 0-1.15-4.87zm.91 3.91-3.87.97q.36 1.51.34 2.25h8c0-1.34-.23-2.75-.58-4.19zm.47 3.22h-4v54.97h8v-54.97zm0 54.97v4q2.26 0 5.78-.24l-.26-3.99-.27-4q-3.38.24-5.25.23zm5.51-.23.27 4q3.45-.24 7.12-.47l-.25-3.99-.25-4-7.15.47zm7.13-.46.5 3.97q3.7-.46 7.16-.93l-.52-3.96-.53-3.97q-3.44.47-7.1.92zm7.13-.92.5 3.97q3.76-.46 6.27-.97l-.78-3.92-.79-3.92q-2.1.42-5.7.87zm5.99-.92 3.97-.43-5.29-48.3-3.97.43-3.98.43 5.29 48.3zm-5.3-48.3 3.97-.57q-.22-1.56-.45-3.38l-3.98.5-3.96.5q.22 1.86.47 3.52zm-.45-3.45h4v-2.99h-8v2.99zm0-2.99h4c0-2.8.35-4.66.84-5.82l-3.7-1.54-3.69-1.54c-1.05 2.52-1.45 5.56-1.45 8.9zm1.14-7.36 3.64 1.68c.27-.6.47-.75.46-.75l-.11.06-.08.02v-8c-3.74 0-6.2 2.42-7.54 5.31zm3.91-2.99v4q.35.01.35.03l-.06-.02a1 1 0 0 1-.32-.3q-.03-.06.05.18l3.9-.9 3.9-.9a7.8 7.8 0 0 0-2.8-4.52 8 8 0 0 0-5.01-1.57zm3.92 2.99-3.9.9c.37 1.62.67 4.24.82 8l4-.16 4-.16c-.16-3.9-.48-7.12-1.03-9.48zm.91 8.74-3.99.25.46 7.36 4-.25 3.99-.25-.46-7.36zm.47 7.36-4 .27q.24 3.57.72 7.16l3.97-.53 3.96-.53q-.45-3.31-.66-6.64zm.68 6.9-3.96.54 5.3 38.87 3.95-.54 3.97-.54-5.3-38.87zm5.3 38.87v4q2.41 0 4.86.4l.66-3.94.65-3.95a38 38 0 0 0-6.18-.51zm5.51.46-.3 3.99.44.06c.02.01-.12-.03-.33-.19a2.2 2.2 0 0 1-.81-1.56h8a5.9 5.9 0 0 0-2.31-4.78 8 8 0 0 0-4.38-1.5zm128.77 30.36-3.39-2.13v.02l-.02.01zm-10.12 11.73 2.66 2.98zm-14.95 9.89 1.67 3.63.04-.01.04-.02zm-26.45 2.53 1.15-3.83zm-8.97-3.91-2.14 3.38.07.04.06.04zm-7.82-6.44-3 2.65.04.04.04.05zm-5.06-8.74 3.8-1.27-2.05-6.13-4.58 4.57zm-3.45 4.6-3.37-2.16-.05.09-.06.08zm-4.14 6.67 3.25 2.32.04-.05.04-.05zm-5.06 5.75 2.56 3.07.07-.06.07-.06zm-10.81-.69-3.48 1.99.1.14.09.15zm-3-6.9-3.83 1.13.01.03.01.03zm-1.6-7.36-3.97.53zm1.15-14.26 3.91.83v-.02zm4.83-16.1 3.73 1.45zm8.05-14.72-3.15-2.47-.02.03-.03.04zm14.95-4.14-3.83 1.15.07.24.1.24zm.92 11.04h-4v1.92l1.5 1.2zm2.3 1.38-1.49 3.71.4.16.43.08zm2.3.92-2.4 3.2.42.32.5.2zm1.6 1.61-3.7 1.49.11.3.17.27zm.47 6.67 3.92.78.01-.06.01-.06zm.69 14.03 3.95-.63zm3.68 10.35-3.43 2.06.02.04.03.04zm7.59 7.36-2.1 3.4.05.04.06.03zm29.9-1.38 2.06 3.43.01-.01.02-.01zm11.73-9.43-2.96-2.7zm7.59-9.43 3.33 2.22.02-.04.03-.04zm-73.6-13.11-3.58 1.79.11.22.14.2zm0-3.22 3.33 2.22zm0-2.76-2.83 2.83.46.46.58.29zm-.46-.92h4v-4.99l-4.87 1.09zm-4.37 3.91-3.33-2.22-.05.08-.05.08zm-4.14 8.05-3.65-1.64-.04.08-.03.07zm-3 9.43 3.89.97v-.04zm-.22 12.88-3.88.97zm2.07 4.83-2.83 2.83 3.97 3.97 2.46-5.05zm7.13-15.64-3.64-1.65-.02.04-.02.05zm84.18-4.83h-4c0 1.62-.82 4.29-3.3 8.22l3.39 2.13 3.38 2.13c2.74-4.35 4.53-8.58 4.53-12.48zm-3.91 10.35-3.4-2.1a50 50 0 0 1-9.39 10.85l2.67 2.98 2.66 2.98a58 58 0 0 0 10.86-12.61zm-10.12 11.73-2.67-2.98q-5.98 5.35-14.03 9.27l1.75 3.6 1.75 3.6a69 69 0 0 0 15.86-10.5zm-14.95 9.89-1.67-3.63a38 38 0 0 1-16.04 3.54v8q10.09 0 19.38-4.27zm-17.71 3.91v-4q-3.47.01-7.6-1.21l-1.14 3.83-1.15 3.83a34 34 0 0 0 9.89 1.55zm-8.74-1.38 1.15-3.83q-4.13-1.24-8.12-3.54l-2 3.46-2 3.46a46 46 0 0 0 9.82 4.28zm-8.97-3.91 2.13-3.38a36 36 0 0 1-7.03-5.8l-2.92 2.74-2.92 2.74q3.8 4.06 8.6 7.08zm-7.82-6.44 3-2.65a21 21 0 0 1-4.27-7.36l-3.8 1.27-3.79 1.26a29 29 0 0 0 5.86 10.13zm-5.06-8.74-2.83-2.83a33 33 0 0 0-3.99 5.27l3.37 2.16 3.36 2.16a26 26 0 0 1 2.92-3.93zm-3.45 4.6-3.48-1.99q-1.75 3.08-3.99 6.44l3.33 2.22 3.33 2.22q2.36-3.56 4.28-6.9zm-4.14 6.67-3.26-2.33a33 33 0 0 1-4.5 5.13l2.7 2.95 2.7 2.95a41 41 0 0 0 5.61-6.37zm-5.06 5.75-2.56-3.07c-1.27 1.06-2.31 1.37-3.2 1.37v8c3.12 0 5.91-1.22 8.32-3.23zm-5.75 2.3v-4c-.4 0-.96-.09-1.77-1.27l-3.3 2.28-3.28 2.28c1.94 2.8 4.75 4.71 8.35 4.71zm-5.06-2.99 3.47-1.99a31 31 0 0 1-2.64-6.1L655.9 852l-3.82 1.2a39 39 0 0 0 3.33 7.68zm-3-6.9 3.85-1.13q-1.08-3.67-1.49-6.76l-3.96.53-3.97.53a53 53 0 0 0 1.74 7.96zm-1.6-7.36 3.96-.53-.41-3.34c-.02-.22-.01-.18-.01-.04h-8c0 .44.07 1.12.14 1.67l.35 2.77zm-.46-3.91h4c0-1.36.44-4.41 1.52-9.52l-3.91-.83-3.92-.83c-1.06 5.01-1.7 8.86-1.7 11.18zm1.6-10.35 3.93.8a96 96 0 0 1 4.64-15.45l-3.73-1.45-3.73-1.45q-3.34 8.56-5.02 16.74zm4.84-16.1 3.73 1.45a58 58 0 0 1 7.52-13.77l-3.2-2.4-3.2-2.4a66 66 0 0 0-8.58 15.67zm8.05-14.72 3.14 2.47c2.8-3.57 5.65-4.91 8.59-4.91v-8c-5.96 0-10.94 2.95-14.88 7.97zm11.73-6.44v4c.24 0 .05.05-.26-.17q-.22-.16-.31-.32-.08-.14-.04-.06l3.83-1.15 3.83-1.15a7 7 0 0 0-2.66-3.83 7.5 7.5 0 0 0-4.4-1.32zm3.22 2.3-3.66 1.63q.6 1.36.58 2.51h8q-.02-3-1.27-5.76zm.92 4.14h-4v6.9h8v-6.9zm0 6.9-2.5 3.12q1.53 1.25 3.31 1.97l1.49-3.71 1.48-3.71a5 5 0 0 1-1.28-.8zm2.3 1.38-.66 3.95c.42.07.56.17.56.17l2.4-3.2 2.4-3.2a9 9 0 0 0-4.05-1.67zm2.3.92-1.49 3.71c-.07-.03-.22-.1-.36-.25a1 1 0 0 1-.26-.36l3.72-1.49 3.71-1.49a6.8 6.8 0 0 0-3.84-3.83zm1.6 1.61-3.42 2.06c-.1-.15-.05-.15.01.17q.1.44.1 1.45h8c0-1.87-.22-4-1.25-5.74zm.7 3.68h-4q0 1.32-.18 2.33l3.95.66 3.94.66q.3-1.76.29-3.65zm-.23 2.99-3.93-.78q-.3 1.52-.3 3.08h8q0-.75.15-1.52zm-.23 2.3h-4q0 6.3.97 12.36l3.95-.63 3.95-.63a70 70 0 0 1-.87-11.1zm.92 11.73-3.95.63q1.01 6.46 4.2 11.78l3.43-2.06 3.43-2.06a25 25 0 0 1-3.16-8.92zm3.68 10.35-3.38 2.14a27 27 0 0 0 8.86 8.62l2.1-3.4 2.11-3.4a19 19 0 0 1-6.31-6.1zm7.59 7.36-1.99 3.47c4.04 2.3 9.1 3.29 14.87 3.29v-8c-4.97 0-8.5-.86-10.9-2.23zm12.88 2.76v4c7.28 0 13.71-1.5 19.08-4.71l-2.06-3.43-2.06-3.43c-3.84 2.3-8.76 3.57-14.96 3.57zm17.02-4.14 2.09 3.41c5-3.07 9.23-6.44 12.6-10.15l-2.96-2.69-2.96-2.7a50 50 0 0 1-10.86 8.72zm11.73-9.43 2.95 2.7a86 86 0 0 0 7.97-9.91l-3.33-2.22-3.33-2.22a78 78 0 0 1-7.22 8.95zm7.59-9.43 3.38 2.14a14 14 0 0 1 1.9-2.52c.2-.2.28-.22.2-.18-.07.04-.38.19-.88.19v-8c-2.17 0-3.81 1.23-4.83 2.2a21 21 0 0 0-3.15 4.03zm4.6-4.37v4c.38 0-.07.1-.59-.42-.51-.52-.42-.97-.42-.59h8a7 7 0 0 0-1.92-5.07 7 7 0 0 0-5.07-1.92zm-77.74-7.13h4c0-1.31-.34-2.64-1.13-3.83l-3.33 2.22-3.33 2.22a1.3 1.3 0 0 1-.21-.61zm-.46-1.61 3.57-1.79-.07-.17q.02.02.04.35h-8c0 1.31.42 2.48.88 3.4zm-.46-1.61h4l-.04.24q-.06.19-.17.37l-3.33-2.22-3.33-2.22a7 7 0 0 0-1.13 3.83zm.46-1.61 3.33 2.22a7 7 0 0 0 1.13-4.06h-8v.06q.02-.12.21-.44zm.46-1.84h4c0-1.37-.54-3.43-2.67-4.5l-1.8 3.58-1.78 3.58a3.3 3.3 0 0 1-1.44-1.45 3 3 0 0 1-.31-1.21zm-.46-.92 2.83-2.83c.13.13.7.78.7 1.91h-8c0 1.74.9 3 1.64 3.75zm-.46-.92-.87-3.9c-3 .66-5.2 3.15-6.83 5.6l3.33 2.21 3.33 2.22a10 10 0 0 1 1.58-1.94c.4-.36.51-.33.33-.29zm-4.37 3.91-3.43-2.06a82 82 0 0 0-4.36 8.47l3.65 1.64 3.64 1.64a74 74 0 0 1 3.93-7.63zm-4.14 8.05-3.72-1.49a71 71 0 0 0-3.16 10l3.89.92 3.89.93a63 63 0 0 1 2.81-8.87zm-3 9.43-3.87-.97c-.8 3.22-1.27 6.1-1.27 8.56h8c0-1.53.3-3.7 1.03-6.62zm-1.14 7.59h-4c0 1.61.42 3.8 1.04 6.26l3.88-.97 3.88-.97c-.61-2.45-.8-3.79-.8-4.32zm.92 5.29-3.88.97q.5 2.04 1.18 3.65a10 10 0 0 0 1.94 3.04l2.83-2.83 2.83-2.83c.13.13 0 .06-.25-.53q-.36-.8-.77-2.44zm2.07 4.83 3.6 1.75q3.95-8.13 7.21-15.83l-3.68-1.56-3.69-1.56q-3.17 7.48-7.04 15.45zm7.13-15.64 3.64 1.65a40 40 0 0 0 3.8-16.6h-8c0 4.26-.99 8.69-3.08 13.3zM828 837.97l3.83 1.15.01-.05.02-.05zm-1.38 3.91 3.33 2.22.2-.3.14-.34zm-4.37 4.83-2.91-2.75zm-9.43 8.28-2.42-3.19-.03.03-.03.02zm-12.65 8.05 1.79 3.58.02-.01.02-.02zm-21.4 2.07-1.32 3.77.03.01.03.01zm-7.35-4.37-2.73 2.92.05.05.06.05zm-5.75-7.82-3.65 1.64.03.08.04.07zm1.6-31.28 3.7 1.52zm7.37-14.26 3.28 2.28.05-.06.04-.07zm4.14-5.06 2.83 2.83zm5.29-4.83 2.53 3.1.08-.07.08-.07zm4.6-3.68-2.06-3.43-.08.05-.08.05zm6.9-.23-2.33 3.25.1.08.1.06zm.69 5.52-3.07-2.56-.03.03-.03.03zm-2.76 2.76 2.4 3.2.12-.09.11-.1zm-4.37 3.91 2.69 2.96.07-.06.07-.07zm-5.3 6.21 3.24 2.35.02-.02.02-.02zm-8.27 15.64-3.79-1.3v.04l-.02.03zm1.84 23.46-2.58 3.06.09.07.09.07zm24.84-.46-1.97-3.48-.03.01-.02.02zm11.73-8.74-2.83-2.83zm7.82-8.74-3.18-2.43zm6.9 0h-4q.01 1.7-.55 3.78l3.86 1.05 3.86 1.05q.82-2.97.83-5.88zm-.7 4.83-3.82-1.15a34 34 0 0 1-1.23 3.48l3.68 1.58 3.67 1.58q.8-1.9 1.54-4.34zm-1.37 3.91-3.33-2.22c.05-.07-.16.2-.96 1.09q-1.05 1.15-2.99 3.21l2.9 2.75 2.92 2.75q1.96-2.09 3.1-3.34a21 21 0 0 0 1.69-2.02zm-4.37 4.83-2.91-2.74a73 73 0 0 1-8.94 7.83l2.42 3.19 2.42 3.18q5.93-4.5 9.92-8.72zm-9.43 8.28-2.49-3.14a74 74 0 0 1-12 7.64l1.84 3.55 1.83 3.55a82 82 0 0 0 13.3-8.46zm-12.65 8.05-1.8-3.58c-4.14 2.08-7.98 3.03-11.54 3.03v8c5.02 0 10.08-1.35 15.13-3.87zm-13.34 3.45v-4q-3.2.02-6.79-1.17l-1.26 3.79-1.27 3.8a29 29 0 0 0 9.32 1.58zm-8.05-1.38 1.33-3.77a19 19 0 0 1-6.07-3.62l-2.62 3.02-2.62 3.02a27 27 0 0 0 8.65 5.12zm-7.36-4.37 2.73-2.92q-2.88-2.68-4.9-6.69l-3.58 1.79-3.58 1.79a31 31 0 0 0 6.6 8.95zm-5.75-7.82 3.65-1.64c-1.09-2.41-1.72-5.58-1.72-9.63h-8c0 4.84.75 9.2 2.42 12.91zm-2.07-11.27h4q.02-10.35 3.38-18.5l-3.7-1.51-3.7-1.52q-4 9.8-3.98 21.53zm3.68-20.01 3.7 1.52c2.4-5.83 4.72-10.3 6.94-13.5l-3.28-2.28-3.29-2.28c-2.68 3.85-5.26 8.9-7.77 15.02zm7.36-14.26 3.37 2.15a26 26 0 0 1 3.6-4.38l-2.83-2.83-2.83-2.83a34 34 0 0 0-4.69 5.74zm4.14-5.06 2.83 2.83a68 68 0 0 1 5-4.56l-2.54-3.1-2.54-3.1a76 76 0 0 0-5.58 5.1zm5.29-4.83 2.69 2.96a36 36 0 0 1 4.13-3.31l-2.22-3.33-2.22-3.33a44 44 0 0 0-5.07 4.05zm4.6-3.68 2.06 3.43q1.01-.6 1.47-.79l.2-.08-.14.03q-.11.02-.37.03v-8c-1.14 0-2.18.38-2.84.67q-1.17.5-2.44 1.28zm3.22-1.38v4c.59 0 1 .15 1.35.4l2.33-3.25 2.32-3.25a10 10 0 0 0-6-1.9zm3.68 1.15-2.12 3.4c.4.24.45.34.37.25-.1-.12-.41-.6-.41-1.35h8c0-3.01-2.33-4.82-3.72-5.7zm1.84 2.3h-4a1 1 0 0 1-.22.66l3.07 2.56 3.07 2.56a9 9 0 0 0 2.08-5.78zm-1.15 3.22-3.13-2.5c-.4.5-1.12 1.25-2.27 2.25l2.64 3.01 2.63 3.01a27 27 0 0 0 3.25-3.27zm-2.76 2.76-2.4-3.2a47 47 0 0 0-4.8 4.28l2.83 2.83 2.83 2.83a39 39 0 0 1 3.94-3.54zm-4.37 3.91-2.7-2.96a42 42 0 0 0-5.86 6.86l3.27 2.31 3.27 2.3a34 34 0 0 1 4.7-5.55zm-5.3 6.21-3.23-2.35a63 63 0 0 0-8.83 16.7l3.79 1.29 3.78 1.3a55 55 0 0 1 7.73-14.59zm-8.27 15.64-3.8-1.23c-1.78 5.47-2.73 10.5-2.73 15.03h8c0-3.44.73-7.62 2.33-12.57zm-2.53 13.8h-4a16 16 0 0 0 5.8 12.72l2.57-3.06 2.57-3.06a8 8 0 0 1-2.94-6.6zm4.37 9.66-2.4 3.2c3.62 2.72 7.59 4.25 11.83 4.25v-8c-2.2 0-4.52-.77-7.03-2.65zm9.43 3.45v4c6.44 0 12.3-1.45 17.43-4.46l-2.02-3.45-2.02-3.45c-3.76 2.2-8.18 3.36-13.4 3.36zm15.4-3.91 1.98 3.48a58 58 0 0 0 12.59-9.4l-2.83-2.82-2.83-2.83a50 50 0 0 1-10.87 8.09zm11.74-8.74 2.83 2.83a94 94 0 0 0 8.17-9.14l-3.18-2.43-3.18-2.43a86 86 0 0 1-7.47 8.34zm7.82-8.74 3.18 2.43a18 18 0 0 1 2.07-2.38c.23-.2.3-.24.25-.2-.03.01-.45.24-1.13.24v-8c-1.15 0-2.09.4-2.72.74q-.98.55-1.73 1.26c-1 .89-2.04 2.1-3.1 3.48zm4.37-3.91v4a2 2 0 0 1-1.46-.85c-.12-.18-.11-.25-.08-.1q.06.2.07.86h8c0-1.6-.24-3.5-1.28-5.1a6.1 6.1 0 0 0-5.25-2.81zm102.16 23.92 3.32 2.22.14-.2.11-.23zm-2.3 1.15-.98-3.88-.14.04-.15.04zm-5.3 1.61.9 3.9.1-.03.1-.02zm-6.66 1.61.73 3.93.12-.02.12-.03zm-7.6 1.38.5 3.97.1-.01.1-.02zm-15.63 0-.4 3.98h.02zm-8.97-1.38-1.02 3.87.1.02.1.02zm-8.05-2.3-1.49 3.71.14.06.15.05zm-5.06-3.22 3-2.63-6.9 3.56zm2.07 9.66-3.93.75zm1.38 9.66h4v-.19l-.02-.19zm-.7 2.07-3.2-2.4-.06.09-.06.1zm-5.28.23-2.4 3.2.42.32.49.2zm-1.61-2.53 3.74-1.4-.04-.12-.06-.12zm-3.45-8.51-3.8 1.26.01.04.01.03zm-2.53-8.28-3.9.87.01.1.03.1zm-2.07-8.74-3.89.97zm-2.76-10.12-3.85 1.09v.03zm-5.3-19.09-3.86 1.03v.02zm-5.05-19.55-3.9.95h.01v.02zm-3.68-16.56-3.94.74v.02zm-1.38-14.03-3.99-.4-.01.2v.2zm.69-4.37-3.84-1.15-.04.14-.03.14zm1.6-3.68-3.25-2.32-.04.05-.03.05zm5.3 2.07-3.82 1.2.04.14.06.15zm2.3 7.82-3.92.82.03.13.03.12zm1.84 8.05-3.94.7.02.13.03.14zm.92 3.91h-4v.36l.06.36zm2.07 11.27-3.94.73.02.08.02.09zm2.76 12.19-3.9.87zm2.99 11.96-3.86 1.08.01.02v.02zm3.45 9.43-3.62 1.7 6.16 13.1 1.44-14.4zm1.6-6.67-3.8-1.2zm3.69-9.43-3.65-1.65zm5.06-10.35-3.52-1.9-.02.02-.01.03zm5.98-9.89-3.23-2.37-.04.05-.04.06zm6.2-7.13-2.6-3.04-.05.05-.06.05zm11.97-1.61-2.33 3.25.1.08.1.06zm-2.07 8.28 2.82 2.83.04-.04.04-.04zM886 798.64l3.2 2.4.02-.03.01-.02zm-8.74 15.41 3.65 1.63v-.01l.01-.02zm-1.84 26.45-3.3 2.28.1.14.12.14zm5.75 4.6-1.89 3.53.05.02.05.03zm8.05 2.99-1.02 3.87.11.03.12.02zm17.48.69-.2-4zm8.5-.46.24 4 .1-.01.1-.01zm6.9-.69-.3-3.99h-.03zm5.76.46 2.4-3.2zm.92 2.3h-4q0 .68-.06.95c-.04.2-.06.17.02.02l3.58 1.79 3.57 1.79c.73-1.45.89-3.12.89-4.55zm-.46 2.76-3.33-2.22c.2-.3.41-.5.54-.6q.19-.14.2-.12l-.19.07q-.17.06-.5.14l.98 3.88.97 3.88c.77-.2 1.57-.45 2.3-.82.7-.35 1.66-.95 2.35-2zm-2.3 1.15-1.27-3.8q-1.95.66-5.12 1.56l1.1 3.85 1.1 3.85q3.26-.94 5.45-1.66zm-5.3 1.61-.9-3.9q-3.02.7-6.74 1.63l.98 3.88.97 3.88q3.64-.9 6.6-1.6zm-6.66 1.61-.74-3.93q-3.66.69-7.55 1.37l.7 3.94.7 3.94q3.92-.7 7.62-1.39zm-7.6 1.38-.5-3.97q-3.45.43-6.4.43v8q3.5 0 7.4-.5zm-6.9.46v-4q-3.67 0-8.36-.44l-.37 3.98-.38 3.98q4.97.48 9.12.48zm-8.73-.46.4-3.98q-4.4-.45-8.55-1.31l-.82 3.91-.83 3.91a88 88 0 0 0 9.4 1.45zm-8.97-1.38 1.01-3.87q-4.3-1.12-7.87-2.25l-1.2 3.82-1.19 3.82q3.78 1.18 8.23 2.35zm-8.05-2.3 1.48-3.71c-2-.8-3.04-1.58-3.53-2.14l-3.01 2.63-3.01 2.63c1.64 1.89 3.97 3.26 6.58 4.3zm-5.06-3.22-3.9.93q1.13 4.74 2.04 9.48l3.93-.75 3.92-.75q-.93-4.92-2.1-9.84zm2.07 9.66-3.93.75q.88 4.65 1.32 9.29l3.99-.38 3.98-.38q-.48-5.02-1.44-10.03zm1.38 9.66h-4l.03-.17.08-.16 3.2 2.4 3.2 2.4a7.4 7.4 0 0 0 1.49-4.47zm-.7 2.07-3.32-2.22c.4-.6.86-.89 1.1-1.01.23-.13.38-.16.35-.15l-.32.04q-.3.03-.8.03v8c.98 0 2-.06 2.92-.28a5.5 5.5 0 0 0 3.4-2.2zm-2.98.69v-4q-.33.01-.82-.17l-1.48 3.71-1.49 3.71q1.8.74 3.79.75zm-2.3-.46 2.4-3.2c.17.13.2.2.1.08a5 5 0 0 1-.37-.81l-3.74 1.4-3.75 1.4a9.4 9.4 0 0 0 2.96 4.33zm-1.61-2.53 3.64-1.64a107 107 0 0 1-3.32-8.2l-3.77 1.33-3.78 1.33q1.45 4.1 3.58 8.82zm-3.45-8.51 3.79-1.26q-1.35-4.05-2.47-8.1l-3.85 1.08-3.86 1.07q1.18 4.24 2.6 8.48zm-2.53-8.28 3.9-.87q-.93-4.2-2.1-8.84l-3.87.97-3.89.97q1.14 4.56 2.05 8.64zm-2.07-8.74 3.88-.97a277 277 0 0 0-2.8-10.27l-3.84 1.12-3.84 1.12q1.59 5.46 2.71 9.97zm-2.76-10.12 3.85-1.09q-2.54-8.95-5.28-19.05l-3.86 1.05-3.86 1.05q2.76 10.13 5.3 19.13zm-5.3-19.09 3.87-1.03q-2.76-10.32-5.04-19.49l-3.88.97-3.88.97q2.3 9.24 5.07 19.61zm-5.05-19.55 3.88-.95a354 354 0 0 1-3.64-16.37l-3.92.76-3.93.76q1.4 7.25 3.72 16.75zm-3.68-16.56 3.93-.74c-.93-4.92-1.31-8.03-1.31-9.61h-8c0 2.4.53 6.2 1.44 11.09zm-1.38-10.35h4v-3.68h-8v3.68zm0-3.68 3.98.4q.2-2.1.61-3.9l-3.9-.87-3.9-.87q-.52 2.32-.78 4.84zm.69-4.37 3.83 1.15a10 10 0 0 1 1.1-2.61l-3.32-2.22-3.33-2.22a18 18 0 0 0-2.12 4.75zm1.6-3.68 3.26 2.33.06-.08q0 .02-.1.06l-.16.07-.06.01v-8a7.5 7.5 0 0 0-6.25 3.29zm3-1.61v4c-.95 0-1.61-.4-1.93-.65-.28-.23-.37-.4-.32-.31q.07.09.28.57.2.48.45 1.26l3.82-1.19 3.81-1.2a16 16 0 0 0-1.57-3.68c-.5-.78-1.91-2.8-4.54-2.8zm2.3 3.68-3.72 1.49a43 43 0 0 1 2.1 7.15l3.92-.82 3.91-.82a51 51 0 0 0-2.5-8.49zm2.3 7.82-3.86 1.07q1.1 3.97 1.76 7.67l3.94-.69 3.94-.7a90 90 0 0 0-1.93-8.42zm1.84 8.05-3.88.97.82 3.43.02.08-.01-.1c0-.02-.03-.22-.03-.47h8a5 5 0 0 0-.15-1.15q-.07-.35-.2-.86-.23-1.02-.7-2.87zm.92 3.91-3.94.72 2.07 11.28 3.94-.73 3.93-.73q-1.15-6.2-2.07-11.26zm2.07 11.27-3.9.9q1.37 5.97 2.75 12.16l3.9-.87 3.91-.87q-1.38-6.22-2.77-12.22zm2.76 12.19-3.9.87q1.4 6.3 3.03 12.17l3.86-1.08 3.85-1.08a224 224 0 0 1-2.94-11.75zm2.99 11.96-3.84 1.12a69 69 0 0 0 3.67 10.01l3.62-1.7 3.61-1.7a61 61 0 0 1-3.22-8.85zm3.45 9.43 3.98.4c.1-1.11.54-3.01 1.44-5.87l-3.81-1.2-3.82-1.2a40 40 0 0 0-1.77 7.47zm1.6-6.67 3.82 1.2a80 80 0 0 1 3.5-8.98l-3.63-1.65-3.65-1.65a89 89 0 0 0-3.85 9.88zm3.69-9.43 3.64 1.65q2.25-4.95 4.96-10.15l-3.54-1.85-3.55-1.85q-2.81 5.38-5.16 10.55zm5.06-10.35 3.51 1.9q2.9-5.36 5.77-9.53l-3.3-2.26-3.3-2.26a116 116 0 0 0-6.2 10.25zm5.98-9.89 3.22 2.37a47 47 0 0 1 5.7-6.56l-2.71-2.94-2.72-2.94a54 54 0 0 0-6.72 7.7zm6.2-7.13 2.6 3.04c1.8-1.54 2.9-1.8 3.39-1.8v-8c-3.2 0-6.09 1.58-8.59 3.72zm5.99-2.76v4q1.93.01 2.92.22c.7.13.85.27.73.18l2.33-3.25 2.32-3.25a10 10 0 0 0-3.87-1.54 24 24 0 0 0-4.43-.36zm5.98 1.15-2.12 3.4c.27.16.26.22.17.08a1.3 1.3 0 0 1-.21-.72h8c0-2.91-1.78-4.94-3.72-6.15zm1.84 2.76h-4c0-.63.19-.96.13-.85q-.02.09-.38.6c-.5.7-1.32 1.7-2.57 3.02l2.9 2.75 2.91 2.75a38 38 0 0 0 3.3-3.89q.62-.86 1.08-1.8c.27-.58.63-1.5.63-2.58zm-3.91 5.52-2.83-2.83a93 93 0 0 0-9.15 11.06l3.24 2.35 3.24 2.35a85 85 0 0 1 8.32-10.1zM886 798.64l-3.2-2.4q-5.15 6.89-9.21 16.21l3.67 1.6 3.66 1.6a73 73 0 0 1 8.28-14.61zm-8.74 15.41-3.66-1.63q-4.27 9.62-4.25 21.18h8q.01-10.06 3.56-17.92zm-3.91 19.55h-4c0 3.36.9 6.46 2.78 9.18l3.29-2.28 3.28-2.28a8 8 0 0 1-1.35-4.62zm2.07 6.9-3.08 2.56a23 23 0 0 0 6.94 5.57l1.89-3.53 1.88-3.53q-2.82-1.5-4.56-3.63zm5.75 4.6-1.8 3.58a46 46 0 0 0 8.83 3.28l1.02-3.87 1.01-3.87q-4-1.05-7.28-2.7zm8.05 2.99-.79 3.92q4.95 1 9.76 1v-8q-3.95 0-8.19-.84zm8.97.92v4q4.02 0 8.7-.24l-.2-3.99-.2-4q-4.5.24-8.3.23zm8.5-.23.2 4q4.62-.23 8.55-.47l-.23-3.99-.24-4q-3.9.24-8.47.46zm8.52-.46.44 3.98q4.1-.45 6.79-.68l-.33-3.99-.34-3.99q-2.84.24-7 .7zm6.9-.69.3 3.99c2.06-.16 3.1-.22 3.38-.22v-8c-.65 0-2.06.1-4 .24zm3.68-.23v4l-.18-.03-.15-.08 2.4-3.2 2.4-3.2a7.4 7.4 0 0 0-4.47-1.49zm2.07.69-2.4 3.2a2 2 0 0 1-.63-.8c-.08-.2-.05-.27-.05-.1h8c0-1.8-.54-4.01-2.52-5.5zm116.25-10.58-3.39-2.13-.01.02-.01.01zM1034 849.24l2.66 2.98zm-14.95 9.89 1.67 3.63.04-.01.04-.02zm-26.45 2.53 1.15-3.83zm-8.97-3.91-2.14 3.38.06.04.07.04zm-7.82-6.44-3 2.65.04.04.04.05zm-5.06-8.74 3.8-1.27-2.06-6.13-4.57 4.57zm-3.45 4.6-3.37-2.16-.05.09-.06.08zm-4.14 6.67 3.25 2.32.04-.05.03-.05zm-5.06 5.75 2.56 3.07.07-.06.07-.06zm-10.81-.69-3.48 1.99.09.14.1.15zm-3-6.9-3.83 1.13v.03l.02.03zm-1.6-7.36-3.97.53zm1.15-14.26 3.9.83.01-.01v-.01zm4.83-16.1 3.72 1.45zm8.05-14.72-3.15-2.47-.03.03-.02.04zm14.95-4.14-3.83 1.15.07.24.1.24zm.92 11.04h-4v1.92l1.5 1.2zm2.3 1.38-1.49 3.71.4.16.43.08zm2.3.92-2.4 3.2.42.32.5.2zm1.6 1.61-3.7 1.49.11.3.17.27zm.47 6.67 3.92.78.01-.06.01-.06zm.69 14.03 3.95-.63zm3.68 10.35-3.43 2.06.02.04.02.04zm7.59 7.36-2.1 3.4.05.04.06.03zm29.9-1.38 2.05 3.43.02-.01.02-.01zm11.73-9.43-2.96-2.7zm7.59-9.43 3.32 2.22.03-.04.03-.04zm-73.6-13.11-3.58 1.79.11.22.14.2zm0-3.22 3.32 2.22zm0-2.76-2.83 2.83.46.46.58.29zm-.46-.92h4v-4.99l-4.87 1.09zm-4.37 3.91-3.33-2.22-.05.08-.05.08zm-4.14 8.05-3.65-1.64-.04.08-.03.07zm-3 9.43 3.89.97v-.04zm-.22 12.88-3.88.97zm2.07 4.83-2.83 2.83 3.97 3.97 2.45-5.05zm7.13-15.64-3.64-1.65-.03.04-.02.05zm84.18-4.83h-4c0 1.62-.82 4.29-3.3 8.22l3.39 2.13 3.38 2.13c2.74-4.35 4.53-8.58 4.53-12.48zm-3.91 10.35-3.41-2.1a50 50 0 0 1-9.38 10.85l2.67 2.98 2.66 2.98a57 57 0 0 0 10.86-12.61zM1034 849.24l-2.67-2.98a61 61 0 0 1-14.03 9.27l1.75 3.6 1.75 3.6a69 69 0 0 0 15.86-10.5zm-14.95 9.89-1.67-3.63a38 38 0 0 1-16.04 3.54v8q10.09 0 19.38-4.27zm-17.71 3.91v-4q-3.47.01-7.6-1.21l-1.14 3.83-1.15 3.83a34 34 0 0 0 9.89 1.55zm-8.74-1.38 1.15-3.83a38 38 0 0 1-8.12-3.54l-2 3.46-2 3.46a46 46 0 0 0 9.82 4.28zm-8.97-3.91 2.13-3.38a36 36 0 0 1-7.04-5.8l-2.91 2.74-2.92 2.74a44 44 0 0 0 8.6 7.08zm-7.82-6.44 3-2.65a21 21 0 0 1-4.27-7.36l-3.8 1.27-3.79 1.26a29 29 0 0 0 5.86 10.13zm-5.06-8.74-2.83-2.83a33 33 0 0 0-3.99 5.27l3.37 2.16 3.36 2.16a26 26 0 0 1 2.92-3.93zm-3.45 4.6-3.48-1.99q-1.75 3.08-4 6.44l3.34 2.22 3.32 2.22a118 118 0 0 0 4.29-6.9zm-4.14 6.67-3.26-2.33a33 33 0 0 1-4.5 5.13l2.7 2.95 2.7 2.95a41 41 0 0 0 5.61-6.37zm-5.06 5.75-2.57-3.07c-1.27 1.06-2.3 1.37-3.18 1.37v8c3.1 0 5.9-1.22 8.3-3.23zm-5.75 2.3v-4c-.4 0-.96-.09-1.77-1.27l-3.3 2.28-3.28 2.28c1.94 2.8 4.75 4.71 8.35 4.71zm-5.06-2.99 3.47-1.99a31 31 0 0 1-2.65-6.1L944.3 852l-3.82 1.2a39 39 0 0 0 3.33 7.68zm-3-6.9 3.84-1.13q-1.07-3.67-1.48-6.76l-3.96.53-3.97.53q.51 3.8 1.74 7.96zm-1.6-7.36 3.96-.53-.41-3.34c-.02-.22-.01-.18-.01-.04h-8c0 .44.07 1.12.14 1.67l.35 2.77zm-.46-3.91h4c0-1.36.43-4.41 1.52-9.52l-3.91-.83-3.92-.83c-1.06 5.01-1.7 8.86-1.7 11.18zm1.6-10.35 3.92.8a96 96 0 0 1 4.64-15.45l-3.72-1.45-3.73-1.45q-3.34 8.56-5.02 16.74zm4.84-16.1 3.72 1.45a58 58 0 0 1 7.53-13.77l-3.2-2.4-3.2-2.4a66 66 0 0 0-8.58 15.67zm8.05-14.72 3.14 2.47c2.8-3.57 5.65-4.91 8.59-4.91v-8c-5.96 0-10.94 2.95-14.88 7.97zm11.73-6.44v4c.24 0 .05.05-.26-.17q-.21-.16-.31-.32-.08-.14-.04-.06l3.83-1.15 3.83-1.15a7 7 0 0 0-2.66-3.83 7.5 7.5 0 0 0-4.4-1.32zm3.22 2.3-3.66 1.63q.59 1.36.58 2.51h8q-.02-3-1.27-5.76zm.92 4.14h-4v6.9h8v-6.9zm0 6.9-2.5 3.12q1.52 1.25 3.31 1.97l1.49-3.71 1.48-3.71a5 5 0 0 1-1.28-.8zm2.3 1.38-.66 3.95c.42.07.55.17.56.17l2.4-3.2 2.4-3.2a9 9 0 0 0-4.05-1.67zm2.3.92-1.49 3.71q-.12-.03-.37-.25a1 1 0 0 1-.25-.36l3.72-1.49 3.71-1.49a6.8 6.8 0 0 0-3.84-3.83zm1.6 1.61-3.42 2.06c-.1-.15-.05-.15.01.17q.1.44.1 1.45h8c0-1.87-.22-4-1.25-5.74zm.7 3.68h-4q0 1.32-.18 2.33l3.95.66 3.94.66q.3-1.76.29-3.65zm-.23 2.99-3.93-.78q-.3 1.52-.3 3.08h8q0-.75.15-1.52zm-.23 2.3h-4q0 6.3.97 12.36l3.95-.63 3.95-.63a70 70 0 0 1-.87-11.1zm.92 11.73-3.95.63q1.01 6.46 4.2 11.78l3.43-2.06 3.43-2.06a25 25 0 0 1-3.16-8.92zm3.68 10.35-3.39 2.14a27 27 0 0 0 8.87 8.62l2.1-3.4 2.11-3.4a19 19 0 0 1-6.31-6.1zm7.59 7.36-1.99 3.47c4.04 2.3 9.1 3.29 14.87 3.29v-8c-4.97 0-8.5-.86-10.9-2.23zm12.88 2.76v4c7.28 0 13.71-1.5 19.07-4.71l-2.05-3.43-2.06-3.43c-3.84 2.3-8.76 3.57-14.96 3.57zm17.02-4.14 2.09 3.41a58 58 0 0 0 12.6-10.15l-2.96-2.69-2.96-2.7a50 50 0 0 1-10.86 8.72zm11.73-9.43 2.95 2.7a86 86 0 0 0 7.96-9.91l-3.32-2.22-3.33-2.22a78 78 0 0 1-7.22 8.95zm7.59-9.43 3.38 2.14a14 14 0 0 1 1.9-2.52c.21-.2.28-.22.21-.18a2 2 0 0 1-.89.19v-8c-2.17 0-3.82 1.23-4.83 2.2a22 22 0 0 0-3.16 4.03zm4.6-4.37v4c.38 0-.07.1-.59-.42s-.42-.97-.42-.59h8c0-1.61-.41-3.56-1.92-5.07a7 7 0 0 0-5.07-1.92zm-77.74-7.13h4a7 7 0 0 0-1.14-3.83l-3.32 2.22-3.33 2.22a1 1 0 0 1-.17-.37l-.04-.24zm-.46-1.61 3.57-1.79-.07-.17q.02.02.04.35h-8c0 1.31.42 2.48.88 3.4zm-.46-1.61h4l-.04.24q-.06.19-.18.37l-3.32-2.22-3.33-2.22a7 7 0 0 0-1.13 3.83zm.46-1.61 3.32 2.22a7 7 0 0 0 1.14-4.06h-8v.06q.02-.12.2-.44zm.46-1.84h4c0-1.37-.55-3.43-2.67-4.5l-1.8 3.58-1.78 3.58a3.3 3.3 0 0 1-1.45-1.45 3 3 0 0 1-.3-1.21zm-.46-.92 2.82-2.83c.13.13.72.78.72 1.91h-8c0 1.74.88 3 1.63 3.75zm-.46-.92-.87-3.9c-3 .66-5.2 3.15-6.83 5.6l3.33 2.21 3.32 2.22a10 10 0 0 1 1.59-1.94c.4-.36.51-.33.32-.29zm-4.37 3.91-3.43-2.06a81 81 0 0 0-4.36 8.47l3.65 1.64 3.64 1.64a74 74 0 0 1 3.93-7.63zm-4.14 8.05-3.72-1.49a71 71 0 0 0-3.16 10l3.89.92 3.89.93a63 63 0 0 1 2.81-8.87zm-3 9.43-3.87-.97a36 36 0 0 0-1.27 8.56h8c0-1.53.3-3.7 1.03-6.62zm-1.14 7.59h-4c0 1.61.42 3.8 1.04 6.26l3.88-.97 3.88-.97c-.62-2.45-.8-3.79-.8-4.32zm.92 5.29-3.88.97q.5 2.04 1.18 3.65a10 10 0 0 0 1.94 3.04l2.83-2.83 2.82-2.83c.13.13.01.06-.24-.53q-.36-.8-.77-2.44zm2.07 4.83 3.6 1.75q3.94-8.13 7.2-15.83l-3.67-1.56-3.69-1.56q-3.17 7.48-7.04 15.45zm7.13-15.64 3.64 1.65a40 40 0 0 0 3.8-16.6h-8c0 4.26-.99 8.69-3.08 13.3zm147.96-60.95 3.02 2.62 1.99-2.3-1.69-2.54zm-8.51 6.9 2.01 3.45.05-.03.06-.03zm-11.04 5.98-1.79-3.58zm-9.66 4.83 1.62 3.65.08-.03.09-.04zm-3.22 6.67-3.87 1.03zm2.07 8.28-3.89.93.02.1.03.12zm2.76 9.66-3.86 1.05zm2.3 8.97 3.92-.78-.01-.07-.02-.07zm1.15 5.98-3.94.74zm1.15 7.36-3.97.5.01.12.02.12zm1.15 6.67-3.96.6.01.03v.03zm-.69 10.12 3.81 1.2zm-8.28 0-3.48 1.99.07.11.08.12zm-1.38-2.99 3.79-1.26zm-.46-3.45-3.88-.97-.12.48v.49zM1078 831.3l3.94-.66v-.03l-.01-.03zm-4.6-18.63 3.88-.97zm-3.68-14.03 3.86-1.05-.01-.03-.01-.02zm-6.67-1.15 1.79 3.58.04-.02.04-.02zm-8.51 4.83 1.98 3.47.06-.03.06-.04zm-10.12 6.21 2.08 3.42.05-.04.05-.03zm-9.89 6.21 2.05 3.43.07-.04.06-.04zm-7.82 4.83 1.88 3.53.14-.08.14-.09zm-6.9-8.74 2.17 3.36.12-.08.11-.08zm9.43-5.98 1.95 3.49.03-.02.03-.02zm12.19-6.67 1.83 3.55.03-.01.03-.01zm11.96-6.21-1.73-3.6h-.03l-.03.02zm9.43-4.6-1.71-3.62-.04.02-.04.02zm3.91-1.84 1.7 3.62 2.82-1.33-.6-3.06zm-3.45-18.86-3.95.64v.02zm-2.3-13.11-3.96.6.01.08.02.08zm.23-10.81-3.04-2.6-.02.02-.02.02zm6.21 1.84-3.93.78.01.01zm4.6 22.08-3.91.84v.04l.01.05zm4.37 15.64-3.78 1.3 1.16 3.38 3.48-.77zm7.13-2.53 1.51 3.7.07-.03.07-.03zm10.58-4.83-1.67-3.64zm9.89-4.37 1.55 3.69.04-.02.05-.02zm6.9-1.15-3.88.97.1.43.2.39zm.92 1.61-3.03-2.62c-1.64 1.9-4.13 3.96-7.6 6.13l2.12 3.39 2.12 3.4c3.88-2.44 7.07-4.98 9.41-7.68zm-8.51 6.9-2.02-3.46q-5.41 3.16-10.81 5.86l1.79 3.58 1.79 3.58a201 201 0 0 0 11.26-6.1zm-11.04 5.98-1.79-3.58-9.66 4.83 1.79 3.58 1.79 3.58 9.66-4.83zm-9.66 4.83-1.63-3.65a32 32 0 0 0-3.56 1.79 8 8 0 0 0-1.44 1.07 5 5 0 0 0-.85 1.02 4.4 4.4 0 0 0-.66 2.3h8c0 .94-.35 1.6-.54 1.92s-.4.51-.46.57c-.12.12-.13.1.12-.05.46-.29 1.31-.72 2.64-1.32zm-4.14 2.53h-4c0 .75.19 1.64.32 2.25q.26 1.16.73 2.92l3.87-1.03 3.86-1.03a78 78 0 0 1-.78-3.25c-.03-.19 0-.09 0 .14zm.92 4.14-3.87 1.03q.9 3.38 2.05 8.18l3.89-.93 3.89-.93q-1.15-4.86-2.1-8.38zm2.07 8.28-3.84 1.15a385 385 0 0 1 2.74 9.56l3.86-1.05 3.86-1.05q-1.4-5.1-2.79-9.76zm2.76 9.66-3.86 1.05q1.36 5.01 2.26 8.84l3.9-.92 3.89-.92a302 302 0 0 0-2.33-9.1zm2.3 8.97-3.93.78q.47 2.28 1.14 5.94l3.94-.74 3.93-.74-1.16-6.02zm1.15 5.98-3.94.74q.67 3.55 1.12 7.12l3.97-.5 3.97-.5q-.48-3.8-1.19-7.6zm1.15 7.36-3.94.74q.68 3.63 1.13 6.54l3.96-.61 3.95-.6q-.47-3.08-1.17-6.8zm1.15 6.67-3.95.66.34 2.08.07.5.01.07v-.06l-.01-.26h8c0-.36-.06-.75-.07-.8l-.1-.67-.35-2.18zm.46 2.99h-4q.01 2.77-.97 5.94l3.82 1.19 3.81 1.2q1.33-4.2 1.34-8.33zm-1.15 7.13-3.82-1.2q-.2.64-.36.9-.16.28-.15.23.04-.05.27-.17.25-.09.38-.08v8c1.93 0 3.67-.75 5.01-2.1a10.5 10.5 0 0 0 2.48-4.39zm-3.68 3.68v-4a1 1 0 0 1 .33.07q.12.08-.04-.05l-2.82 2.83-2.83 2.83a7.5 7.5 0 0 0 5.36 2.32zm-2.53-1.15 2.82-2.83q-.86-.86-1.57-1.92l-3.32 2.22-3.33 2.22a20 20 0 0 0 2.57 3.14zm-2.07-2.53 3.47-1.99q-.76-1.35-1.06-2.26l-3.79 1.26-3.8 1.26a21 21 0 0 0 1.7 3.72zm-1.38-2.99 3.79-1.26a7 7 0 0 1-.25-.81h-8c0 1.15.34 2.36.66 3.34zm-.46-2.07h4v-1.38h-8v1.38zm0-1.38 3.88.97q.35-1.49.35-3.04h-8q-.01.75-.11 1.1zm.23-2.07h4c0-3.25-.51-7.73-1.44-13.3l-3.94.65-3.95.66c.91 5.46 1.33 9.41 1.33 11.99zM1078 831.3l3.93-.72q-.5-2.78-1.9-8.11l-3.87 1.01-3.87 1.01q1.36 5.25 1.77 7.53zm-1.84-7.82 3.87-1.01q-1.38-5.26-2.75-10.77l-3.88.97-3.88.97q1.38 5.54 2.77 10.85zm-2.76-10.81 3.88-.97a721 721 0 0 0-3.7-14.11l-3.86 1.05-3.86 1.05q2.06 7.56 3.66 13.95zm-3.68-14.03 3.84-1.1q-.47-1.66-.82-2.66c-.12-.31-.26-.7-.44-1.05a4.3 4.3 0 0 0-1.33-1.62 4 4 0 0 0-2.4-.79v8a4 4 0 0 1-3.08-1.48 3 3 0 0 1-.34-.53c-.05-.08-.03-.06.05.16q.22.6.67 2.17zm-1.15-3.22v-4c-1.27 0-2.53.38-3.59.77a34 34 0 0 0-3.81 1.76l1.88 3.54 1.87 3.53a25 25 0 0 1 2.87-1.34c.78-.29.97-.26.78-.26zm-5.52 2.07-1.79-3.58q-3.9 1.95-8.83 5l2.11 3.41 2.1 3.4q4.72-2.92 8.2-4.65zm-8.51 4.83-1.99-3.47q-4.94 2.83-10.32 6.33l2.19 3.35 2.18 3.35q5.2-3.4 9.92-6.09zm-10.12 6.21-2.08-3.42a389 389 0 0 0-9.99 6.28l2.18 3.35 2.18 3.35q4.54-2.95 9.79-6.14zm-9.89 6.21-2.06-3.43a324 324 0 0 0-7.93 4.9l2.17 3.36 2.16 3.36q3.15-2.02 7.71-4.76zm-7.82 4.83-1.89-3.53a41 41 0 0 1-3 1.46l.09-.02c.07-.02.31-.07.66-.07v8c.8 0 1.49-.22 1.78-.32q.61-.2 1.22-.49 1.24-.55 3.02-1.5zm-4.14 1.84v-4c-.96 0-1.44-.27-1.84-.73l-2.99 2.66-2.99 2.66a10.1 10.1 0 0 0 7.82 3.41zm-4.83-2.07 2.99-2.66a2.8 2.8 0 0 1-.83-1.94h-8c0 2.76 1.04 5.22 2.85 7.26zm-1.84-4.6h4a2.5 2.5 0 0 1-.31 1.26c-.06.11-.07.08.11-.1.37-.36 1.08-.93 2.28-1.71l-2.17-3.36-2.18-3.36a22 22 0 0 0-3.58 2.77c-.75.75-2.15 2.32-2.15 4.5zm3.91-3.91 2.4 3.2q3.38-2.55 8.98-5.69l-1.95-3.49-1.96-3.49a90 90 0 0 0-9.87 6.27zm9.43-5.98 2.01 3.45q5.42-3.16 12.01-6.57l-1.83-3.55-1.84-3.55q-6.75 3.49-12.37 6.76zm12.19-6.67 1.89 3.53q6.39-3.43 11.86-6.16l-1.79-3.58-1.79-3.58a483 483 0 0 0-12.06 6.26zm11.96-6.21 1.73 3.6q5.76-2.76 9.49-4.62l-1.79-3.58-1.79-3.58a696 696 0 0 1-9.37 4.57zm9.43-4.6 1.7 3.62.92-.43.41-.2.12-.05.02-.01.02-.01h.01l.01-.01h.01l.03-.02.02-.01.05-.02.02-.01.02-.01.05-.03.67-.31.55-.26.74-.35h.01l.01-.01h.02l.01-.01.05-.03.04-.02.04-.01.04-.02h.02v-.01l-1.7-3.62-1.71-3.62h-.01l-.02.02h-.03c-.05.04-.08.05-.18.1l-.31.14-.42.2-.13.06-.03.02h-.03l-.01.01-.06.03-.02.01h-.02l-.01.01h-.01l-.01.02-.04.01-.02.01h-.02l-.07.04-.04.02h-.01l-.01.01h-.01l-.16.08-.08.04-.09.04-.35.17-.38.17-.2.1-.1.05-.11.05-.44.2-.24.12-.24.11zm3.91-1.84 3.92-.77a696 696 0 0 1-3.43-18.75l-3.94.66-3.95.66a726 726 0 0 0 3.47 18.97zm-3.45-18.86 3.95-.64a459 459 0 0 0-2.33-13.23l-3.92.76-3.93.76q1.14 5.91 2.28 12.99zm-2.3-13.11 3.95-.6q-.46-2.99-.68-4.57l-.17-1.2c-.05-.4-.02-.3-.02-.07h-8c0 .38.06.86.08 1.07l.19 1.34q.23 1.64.69 4.64zm-.92-6.44h4q.01-1.12.15-1.57c.08-.3.14-.33.07-.24l-3.07-2.56-3.08-2.56c-1.65 1.98-2.07 4.57-2.07 6.93zm1.15-4.37 3.03 2.6c.22-.25.33-.3.3-.29l-.13.05-.21.03v-8a7.9 7.9 0 0 0-6.03 3zm2.99-1.61v4c-.04 0-.19 0-.39-.1a1.4 1.4 0 0 1-.47-.3c-.09-.1-.09-.14-.04-.03q.08.14.19.66l3.93-.78 3.92-.78a9 9 0 0 0-2.15-4.54 6.7 6.7 0 0 0-4.99-2.13zm3.22 3.45-3.92.8q2.53 12.43 4.61 22.12l3.91-.84 3.91-.84q-2.07-9.63-4.59-22.04zm4.6 22.08-3.9.93a173 173 0 0 0 4.49 16.02l3.78-1.31 3.78-1.3a166 166 0 0 1-4.26-15.27zm4.37 15.64.86 3.9a56 56 0 0 0 7.78-2.73l-1.51-3.7-1.52-3.7a50 50 0 0 1-6.48 2.32zm7.13-2.53 1.65 3.64q5.07-2.3 10.59-4.83l-1.66-3.64-1.67-3.64-10.57 4.83zm10.58-4.83 1.66 3.64q5.48-2.52 9.78-4.32l-1.55-3.69-1.56-3.69a358 358 0 0 0-10 4.42zm9.89-4.37 1.64 3.65a81 81 0 0 1 4.24-1.77l.03-.01c-.01 0-.26.06-.62.06v-8c-.8 0-1.53.23-1.78.3q-.62.2-1.35.5-1.46.56-3.81 1.62zm5.29-2.07v4c.08 0-.33.02-.9-.3a3 3 0 0 1-1.37-1.81l3.88-.97 3.88-.97a5 5 0 0 0-2.42-3.2 6 6 0 0 0-3.07-.75zm1.61.92-3.58 1.79q.54 1.1 1.17 2.04l3.33-2.22 3.32-2.22q-.29-.44-.67-1.18zm87.01 63.02 2.83-2.83-.15-.15-.18-.14zm-.23 4.14-3.43-2.06-.08.13-.06.14zm-3.22 4.83 3.1 2.53zm-4.6 4.6 2.5 3.12.02-.01.02-.01zm-12.42 0-2.27 3.29.09.06.09.06zm-5.06-5.06-3.4 2.1.05.09.06.09zm-2.99-6.44-3.88.97.04.15.05.14zm-1.61-6.9 3.91-.84-.02-.13-.04-.13zm-3.68 3.45 3.68 1.58.01-.03.02-.03zm-4.6 10.81-3.68-1.56-.02.04-.01.03zm-4.6 10.81-3.64-1.66-.02.04-.01.04zm-9.89 1.38-3.2 2.4.09.11.09.11zm-4.6-8.28-3.79 1.26.04.12.04.1zm-2.53-9.66-3.93.72v.03zm-1.15-7.82 3.99-.33v-.06l-.01-.05zm-2.99-20.7-3.95.63zm-3.91-35.19 3.99-.31v-.06l-.01-.05zm-1.15-7.82-3.97.5.02.14.03.14zm-1.15-8.05 3.95-.62zm-1.15-9.89-3.98.33zm-.23-16.56-3.98-.36zm2.07-10.81-3.57-1.79-.08.15-.06.15zm5.52-.23-3.32 2.22.06.1.06.08zm2.3 4.37-3.76 1.37.06.14.06.14zm1.61 4.83 3.93-.78zm0 9.66 3.96.6zm0 14.26-3.98.35.01.08.01.09zm1.61 10.81-3.94.66zm1.61 10.81-3.96.52v.02zm1.15 8.28h4v-.28l-.04-.29zm.46 3.22-3.95.6zm.92 7.59-3.98.4.01.11.02.11zm1.15 9.66-3.98.35.01.1.01.09zm1.38 10.12-3.96.54v.03zm1.15 8.74-3.97.47.02.13.02.14zm.92 5.29h4v-.28l-.04-.29zm.23 2.07-3.94.66.07.42.16.4zm.69 2.76-3.96.57.04.27.08.26zm.92 2.99 3.8-1.26zm1.15 2.07-2.82 2.83 3.92 3.92 2.48-4.96zm3.45-8.51-3.71-1.49-.03.07-.02.07zm4.6-11.73-3.68-1.56-.03.06-.02.06zm4.6-10.35-3.57-1.79-.02.04-.02.04zm6.9-3.91-2.05 3.43zm2.99 1.15 1.49-3.71-.25-.1-.27-.07zm2.76 5.98 3.95-.66-.02-.1-.02-.1zm1.38 7.36-3.92.78.02.12.04.12zm2.53 8.74-3.81 1.2.01.03.01.04zm3.22 7.13 3.41-2.1zm6.21.69 3.28 2.3.05-.08.05-.07zm4.37-2.76v-4h-.16l-.17.01zm1.61.69-2.05 3.43.27.16.3.12zm2.3 1.38-2.82 2.83q.51.52.61.65c.05.05-.01 0-.1-.15a3 3 0 0 1-.42-1 4 4 0 0 1-.12-.95h8a4.3 4.3 0 0 0-.68-2.3q-.29-.44-.53-.72-.48-.56-1.11-1.19zm1.15 1.38h-4a3 3 0 0 1 .1-.83l.07-.23-.09.2q-.24.47-.89 1.56l3.43 2.06 3.43 2.06q.73-1.21 1.19-2.11.22-.45.42-.96c.08-.21.34-.9.34-1.75zm-1.38 2.76-3.57-1.79q-.9 1.8-2.74 4.09l3.09 2.53 3.1 2.53a30 30 0 0 0 3.7-5.57zm-3.22 4.83-3.09-2.53a29 29 0 0 1-4.04 4.03l2.53 3.1 2.54 3.1a37 37 0 0 0 5.16-5.17zm-4.6 4.6-2.5-3.12c-1.02.82-1.7.96-2.1.96v8a11.3 11.3 0 0 0 7.1-2.72zm-4.6 1.84v-4c-2.74 0-4.55-.53-5.72-1.25l-2.1 3.41-2.09 3.4c2.82 1.74 6.22 2.44 9.91 2.44zm-7.82-1.84 2.28-3.29a16 16 0 0 1-4.05-4.05l-3.29 2.28-3.29 2.28a24 24 0 0 0 6.08 6.07zm-5.06-5.06 3.41-2.1a27 27 0 0 1-2.6-5.6l-3.8 1.26-3.79 1.26q1.28 3.88 3.38 7.28zm-2.99-6.44 3.88-.97a219 219 0 0 1-1.58-6.77l-3.91.84-3.91.84q.7 3.3 1.64 7.03zm-1.61-6.9 3.85-1.1a10 10 0 0 0-.83-2.1c-.2-.33-.54-.85-1.07-1.32a4.4 4.4 0 0 0-2.87-1.09v8a3.7 3.7 0 0 1-2.4-.89 3 3 0 0 1-.61-.72c-.08-.15-.04-.11.09.32zm-.92-1.61v-4a4.4 4.4 0 0 0-3.52 1.78c-.41.5-.75 1.07-1.02 1.57a45 45 0 0 0-1.92 4.2l3.7 1.51 3.71 1.51a37 37 0 0 1 1.53-3.39c.19-.34.25-.4.19-.33-.03.03-.19.23-.5.46-.26.19-1.02.69-2.17.69zm-2.76 5.06-3.67-1.58q-2.08 4.85-4.61 10.83l3.68 1.56 3.69 1.56q2.52-5.97 4.59-10.8zm-4.6 10.81-3.71-1.49a242 242 0 0 1-4.53 10.64l3.64 1.66 3.64 1.65q2.35-5.15 4.68-10.97zm-4.6 10.81-3.67-1.58a38 38 0 0 1-1.52 3.22c-.19.32-.24.37-.17.28.03-.03.2-.23.5-.44a3.7 3.7 0 0 1 2.1-.65v8c1.21 0 2.08-.5 2.49-.8.45-.31.78-.66.98-.9a10 10 0 0 0 1.04-1.52c.58-1 1.22-2.38 1.93-4.03zm-2.76 4.83v-4c-1.47 0-2.78-.54-4.1-2.07l-3.03 2.62-3.02 2.62c2.67 3.07 6.11 4.83 10.15 4.83zm-7.13-3.45 3.2-2.4a32 32 0 0 1-4.08-7.37l-3.72 1.49-3.71 1.49a40 40 0 0 0 5.11 9.19zm-4.6-8.28 3.8-1.26a71 71 0 0 1-2.4-9.15l-3.93.75-3.93.75q.97 5.1 2.67 10.17zm-2.53-9.66 3.94-.72a84 84 0 0 1-1.1-7.43l-3.99.33-3.98.33q.26 3.08 1.2 8.2zm-1.15-7.82 3.98-.44a504 504 0 0 0-3.02-20.89l-3.95.63-3.95.63a501 501 0 0 1 2.97 20.51zm-2.99-20.7 3.95-.63a452 452 0 0 1-3.87-34.87l-3.99.31-3.98.31a457 457 0 0 0 3.94 35.5zm-3.91-35.19 3.98-.42q-.47-4.51-1.2-8.18l-3.93.78-3.92.78q.65 3.24 1.1 7.46zm-1.15-7.82 3.97-.5q-.46-3.76-1.17-8.17l-3.95.62-3.95.62q.69 4.32 1.13 7.93zm-1.15-8.05 3.95-.62q-.66-4.2-1.11-9.6l-3.99.33-3.98.33q.46 5.64 1.18 10.18zm-1.15-9.89 3.99-.33q-.44-5.3-.45-13.24h-8q0 8.15.48 13.9zm-.46-13.57h4l.05-.67.17-1.96-3.99-.36-3.98-.36c-.14 1.58-.25 2.81-.25 3.35zm.23-2.99 3.99.36q.21-2.39.66-5.27l-3.96-.61-3.95-.6a90 90 0 0 0-.72 5.76zm.69-5.52 3.96.6a20 20 0 0 1 1.14-4.4l-3.72-1.49-3.71-1.49a28 28 0 0 0-1.62 6.17zm1.38-5.29 3.58 1.79q.18-.36.29-.5t.03-.06c-.05.05-.2.17-.45.28a2 2 0 0 1-.92.19v-8c-3.41 0-5.25 2.8-6.1 4.51zm2.53-2.3v4a1.5 1.5 0 0 1-.72-.2q-.04-.03.07.08t.32.4l3.32-2.21 3.33-2.22c-1.24-1.86-3.29-3.85-6.32-3.85zm2.99 2.07-3.2 2.4q.98 1.28 1.74 3.34l3.76-1.37 3.76-1.37a20 20 0 0 0-2.86-5.4zm2.3 4.37-3.64 1.66a19 19 0 0 1 1.33 3.95l3.92-.78 3.93-.78a26 26 0 0 0-1.9-5.7zm1.61 4.83-3.92.78a26 26 0 0 1 .37 2.26l.01.18h8c0-1.06-.23-2.49-.53-4zm.46 3.22h-4q0 3.18-.41 5.83l3.95.61 3.96.6q.5-3.32.5-7.04zm-.46 6.44-3.95-.6q-.5 3.23-.51 6.12h8q0-2.17.42-4.91zm-.46 5.52h-4q0 3.7.48 9.09l3.98-.35 3.99-.35q-.45-5.19-.45-8.39zm.46 8.74-3.96.52q.7 5.36 1.63 10.95l3.94-.66 3.95-.66q-.91-5.45-1.59-10.67zm1.61 10.81-3.94.66q.9 5.45 1.59 10.67l3.96-.52 3.97-.52q-.7-5.36-1.63-10.95zm1.61 10.81-3.96.54 1.15 8.3 3.96-.56 3.96-.57-1.14-8.25zm1.15 8.28h-4c0 .34.06.72.06.78l.1.7.35 2.35 3.95-.61 3.96-.6q-.24-1.5-.34-2.27l-.08-.56-.01-.07v-.02.02l.01.04v.24zm.46 3.22-3.95.6q.44 2.85.89 7.39l3.98-.4 3.98-.4q-.46-4.65-.94-7.8zm.92 7.59-3.95.62q.67 4.2 1.12 9.39l3.98-.35 3.99-.35q-.47-5.4-1.19-9.93zm1.15 9.66-3.96.54 1.38 10.12 3.96-.54 3.97-.54-1.38-10.12zm1.38 10.12-3.96.57q.69 4.79 1.14 8.64l3.97-.47 3.98-.47q-.47-3.96-1.17-8.84zm1.15 8.74-3.93.74q.68 3.66.89 5.12l3.96-.57 3.96-.57q-.25-1.75-.94-5.46zm.92 5.29h-4c0 .8.13 1.76.29 2.73l3.94-.66 3.95-.66a11 11 0 0 1-.18-1.41zm.23 2.07-3.71 1.49q.25.58.44 1.84l3.96-.57 3.96-.57q-.26-1.96-.93-3.68zm.69 2.76-3.84 1.1q.48 1.68.97 3.15l3.79-1.26 3.8-1.26a58 58 0 0 1-.87-2.83zm.92 2.99-3.79 1.26a9 9 0 0 0 2.12 3.64l2.82-2.83 2.83-2.83q.12.14.04.02a3 3 0 0 1-.22-.52zm1.15 2.07 3.58 1.79a90 90 0 0 0 3.64-8.95l-3.77-1.35-3.76-1.36a82 82 0 0 1-3.26 8.08zm3.45-8.51 3.72 1.49q2.31-5.79 4.62-11.78l-3.74-1.44-3.73-1.44a927 927 0 0 1-4.58 11.68zm4.6-11.73 3.69 1.56q2.5-5.93 4.53-10.2l-3.62-1.71-3.61-1.71a275 275 0 0 0-4.67 10.5zm4.6-10.35 3.58 1.79a14 14 0 0 1 1.6-2.65c.17-.2.19-.18.05-.1-.14.1-.61.36-1.32.36v-8c-2.4 0-4.03 1.62-4.83 2.56a22 22 0 0 0-2.65 4.25zm3.91-4.6v4c.76 0 .98.15.94.12l2.05-3.43 2.06-3.43a9.7 9.7 0 0 0-5.05-1.26zm2.99.69-2.05 3.43a15 15 0 0 0 4.07 1.6l.97-3.88.97-3.88a7 7 0 0 1-1.9-.7zm2.99 1.15-1.48 3.71c.44.18.41.25.25.07q-.16-.15-.32-.53a2 2 0 0 1-.15-.72h8c0-3.53-2.7-5.4-4.81-6.24zm2.3 2.53h-4c0 1.32.22 2.79.56 4.32l3.9-.87 3.91-.87a13 13 0 0 1-.37-2.58zm.46 3.45-3.94.66q.47 2.85 1.4 7.48l3.92-.78 3.93-.78a253 253 0 0 1-1.36-7.24zm1.38 7.36-3.86 1.02a187 187 0 0 0 2.58 8.92l3.81-1.2 3.82-1.2q-1.35-4.28-2.48-8.56zm2.53 8.74-3.79 1.26a38 38 0 0 0 3.61 7.97l3.4-2.1 3.41-2.1a30 30 0 0 1-2.83-6.3zm3.22 7.13-3.4 2.1c1.32 2.14 3.58 4.89 7.08 4.89v-8c.55 0 .79.24.69.15a5 5 0 0 1-.96-1.24zm3.68 2.99v4a5.7 5.7 0 0 0 3.79-1.62 14 14 0 0 0 2.02-2.39l-3.28-2.29-3.27-2.3a13 13 0 0 1-.85 1.06c-.05.05.03-.03.23-.14s.68-.32 1.36-.32zm2.53-2.3 3.38 2.15c.46-.74.85-.88 1.33-.92l-.34-3.99-.33-3.99a9.5 9.5 0 0 0-7.41 4.6zm4.37-2.76v4q-.3 0-.49-.04l-.29-.06-.16-.05.15.07.35.2 2.05-3.43 2.06-3.43q-.7-.43-1.46-.76c-.4-.17-1.22-.5-2.21-.5zm1.61.69-1.48 3.71q.51.19 1.28.8l2.5-3.13 2.5-3.12a13 13 0 0 0-3.31-1.97zm53.08 11.96-3.32-2.22zm-5.52 5.52 2.1 3.4.03-.01.04-.03zm-16.78-1.84-2.83 2.83zm-5.76-8.51-3.73 1.42.03.08.03.08zm-2.53-9.66-3.98.36.01.1.02.1zm.69-16.79-3.87-1.01-.01.06-.02.06zm3.45-9.66-3.53-1.86-.04.07-.04.08zm5.06-7.36 2.94 2.71zm7.82-2.53-1.26 3.8.08.02.09.03zm3.23 1.38-1.99 3.47zm2.75 2.3-3.07 2.56.12.14.13.13zm1.84 3.22-3.88.97.69 2.76 2.83.25zm5.06 1.84-2.14 3.38zm2.77 2.53-3.89.97.03.1.03.1zm2.29 11.96-3.98.3v.08l.01.08zm-10.34-1.38-3.94.7v.04zm-2.76-7.82 3.53-1.87-1.83-3.46-3.49 1.75zm-2.77 0-1.78 3.58.25.13.27.08zm-5.28 1.38 2.6 3.04.11-.1.11-.11zm-2.54 3.91-3.75-1.37-.04.11-.04.11zm-.91 16.1-3.99.28v.02zm.91 5.75-3.88.97.04.15.05.14zm2.3 4.83-3.32 2.22.06.1.07.08zm7.6-.46 3.27 2.3.05-.08.05-.07zm2.52-5.75 3.85 1.1zm1.15-6.21-3.95-.57-.02.13-.01.13zm10.81-.46h-4q0 4.5-1.21 8.51l3.83 1.15 3.84 1.15a38 38 0 0 0 1.54-10.81zm-1.38 9.66-3.83-1.15a26 26 0 0 1-3.17 6.98l3.32 2.22 3.33 2.22a34 34 0 0 0 4.19-9.12zm-3.68 8.05-3.32-2.22a15 15 0 0 1-4.36 4.38l2.16 3.36 2.17 3.37a23 23 0 0 0 6.68-6.67zm-5.52 5.52-2.09-3.4a8.5 8.5 0 0 1-4.58 1.24v8c3.16 0 6.12-.8 8.77-2.43zm-6.67 1.84v-4c-3.49 0-5.75-.98-7.29-2.5l-2.82 2.82-2.83 2.83c3.37 3.37 7.86 4.85 12.94 4.85zm-10.11-3.68 2.82-2.83a23 23 0 0 1-4.9-7.26l-3.68 1.58-3.67 1.58a31 31 0 0 0 6.6 9.76zm-5.76-8.51 3.74-1.42a42 42 0 0 1-2.31-8.8l-3.96.56-3.95.57q.75 5.3 2.75 10.51zm-2.53-9.66 3.99-.36a85 85 0 0 1-.44-7.23h-8q0 2.84.47 7.95zm-.45-7.59h4q-.02-3.6 1.05-8.31l-3.91-.89-3.9-.89a46 46 0 0 0-1.24 10.09zm1.14-9.2 3.88 1.01q1.3-4.98 3.19-8.96l-3.62-1.71-3.61-1.71a59 59 0 0 0-3.71 10.36zm3.45-9.66 3.54 1.86a31 31 0 0 1 4.46-6.5l-2.94-2.72-2.93-2.71q-3.17 3.46-5.66 8.2zm5.06-7.36 2.94 2.71c1.37-1.48 2.3-1.7 2.81-1.7v-8c-3.46 0-6.37 1.77-8.68 4.28zm5.75-2.99v4h-.14l.14.02q.26.05.81.24l1.26-3.8 1.27-3.8a11 11 0 0 0-3.34-.66zm2.07.46-1.09 3.85q1.1.3 2.33 1l1.99-3.47 1.98-3.47a18 18 0 0 0-4.11-1.76zm3.23 1.38-1.99 3.47q1 .58 1.67 1.4l3.07-2.57 3.08-2.56a14 14 0 0 0-3.85-3.21zm2.75 2.3-2.82 2.83q.62.62.78 1.36l3.88-.97 3.89-.97a11 11 0 0 0-2.9-5.08zm1.84 3.22-.36 3.98c.95.09 2.03.44 3.28 1.24l2.14-3.38 2.15-3.37a15 15 0 0 0-6.84-2.45zm5.06 1.84-2.14 3.38c.75.47 1.18.8 1.4 1q.13.15.03.02a2.4 2.4 0 0 1-.41-.9l3.89-.97 3.88-.97a6.4 6.4 0 0 0-1.99-3.07c-.7-.65-1.57-1.27-2.51-1.86zm2.77 2.53-3.83 1.18a51 51 0 0 1 2.14 11.09l3.98-.31 3.99-.3a59 59 0 0 0-2.46-12.84zm2.29 11.96-3.97.46q.67 5.84.66 9.43h8q0-4.24-.71-10.35zm-9.65 5.75h4q0-3.86-.76-7.87l-3.93.74-3.94.74q.63 3.35.63 6.39zm-.69-7.13 3.93-.7a31 31 0 0 0-3.16-9l-3.53 1.88-3.54 1.87a23 23 0 0 1 2.36 6.64zm-2.76-7.82-1.79-3.58c.4-.2.68-.19.63-.19v8a6.5 6.5 0 0 0 2.94-.65zm-1.16.23v-4c-.29 0-.38-.04-.34-.03l-1.27 3.8-1.26 3.8c.96.32 1.94.43 2.87.43zm-1.61-.23 1.79-3.58a6 6 0 0 0-2.7-.65v8c-.39 0-.69-.1-.87-.2zm-.91-.23v-4c-2.67 0-5.23.8-7.2 2.78l2.83 2.83 2.82 2.83c.17-.17.53-.44 1.55-.44zm-4.37 1.61-2.61-3.04a13 13 0 0 0-3.68 5.58l3.75 1.37 3.76 1.37a5 5 0 0 1 1.38-2.24zm-2.54 3.91-3.83-1.15a29 29 0 0 0-1.07 5.88l3.99.33 3.98.33q.2-2.4.77-4.24zm-.91 5.06-3.99-.33a69 69 0 0 0-.24 5.62h8q0-2.35.21-4.96zm-.23 5.29h-4q0 2.7.24 6.03l3.99-.28 3.98-.28q-.21-3.12-.21-5.47zm.23 5.75-3.99.3q.26 3.31 1.02 6.42l3.88-.97 3.89-.97q-.61-2.41-.82-5.09zm.91 5.75-3.79 1.26a24 24 0 0 0 2.77 5.79l3.32-2.22 3.33-2.22a16 16 0 0 1-1.83-3.87zm2.3 4.83-3.19 2.4a8.4 8.4 0 0 0 6.88 3.44v-8q-.17 0-.23-.02-.05 0-.06-.02l-.04-.03-.16-.17zm3.69 1.84v4c3.13 0 5.55-1.67 7.18-4l-3.27-2.3-3.28-2.3c-.29.41-.48.54-.54.58l-.02.01h-.03l-.04.01zm3.91-2.3 3.37 2.15a26 26 0 0 0 3-6.8l-3.85-1.1-3.84-1.1a18 18 0 0 1-2.06 4.7zm2.52-5.75 3.85 1.1a35 35 0 0 0 1.29-7l-3.99-.31-3.98-.3q-.19 2.54-1.01 5.41zm1.15-6.21 3.96.57c.31-2.16.51-3.94.51-5.17h-8c0 .6-.12 1.9-.42 4.03zm102.19 23.69 3.33 2.22zm-2.3 2.53-2.56-3.07-.14.11-.13.13zm-2.76 2.07 1.79 3.58.1-.05.09-.06zm-12.65-.92-1.18 3.82.09.03.08.02zm-9.66-5.52-2.83 2.83zm-6.9-9.2-3.52 1.9.02.04.02.03zm-6.67-16.1 3.78-1.31-4.41-12.67-3.25 13.01zm-5.98 20.01-3.78-1.32-.01.04-.02.04zm-10.58 18.17 2.83 2.83.08-.09.08-.08zm-4.83-1.15-2.64 3.01zm-2.3-10.58-4 .15v.09l.01.08zm-.69-13.11-3.99.25zm-.92-14.72-4 .12v.06l.01.07zm0-18.4 3.99.25v-.01zm1.38-6.67-3.58-1.79-.06.12-.05.13zm1.61-1.84-2.61-3.04-.11.1-.11.11zm5.29.69 3.97-.44zm.46 44.16-3.98.44.03.22.04.2zm1.15 2.99-3.2 2.4 4.03 5.38 2.8-6.11zm4.6-12.88-3.83-1.16-.01.04-.01.04zm4.37-14.26 3.82 1.19v-.02l.01-.02zm4.14-11.5 3.65 1.64.01-.03.01-.03zm7.82-3.91 2.22-3.33zm2.3 3.68 3.94-.68-.05-.3-.1-.28zm1.84 11.96-3.97.52v.02zm1.61 9.2-3.91.87.03.1.02.1zm2.99 7.82-3.58 1.79.07.14.08.13zm5.52 6.44 2.72-2.93-.05-.05-.05-.04zm7.13 4.37-1.33 3.77.03.01.03.01zm10.12.92 1.1 3.85.24-.07.23-.1zm3.91.92-3.68 1.58.09.2.11.2zm.92 2.07h-4l-.03.12q-.02.11-.22.42l3.33 2.22 3.33 2.22a9 9 0 0 0 1.59-4.98zm-.92 2.76-3.33-2.22a8 8 0 0 1-1.53 1.68l2.56 3.07 2.56 3.07a16 16 0 0 0 3.07-3.38zm-2.3 2.53-2.83-2.83q-.71.74-1.92 1.43l1.99 3.47 1.98 3.47a17 17 0 0 0 3.61-2.71zm-2.76 2.07-1.79-3.58c-.55.27-.77.27-.74.27v8c1.56 0 3.02-.47 4.32-1.11zm-2.53.69v-4c-2.12 0-5.13-.45-9.12-1.48l-1 3.87-1.01 3.87c4.29 1.11 8.04 1.74 11.13 1.74zm-10.12-1.61 1.17-3.82c-3.48-1.08-6.1-2.62-8-4.53l-2.83 2.83-2.83 2.83c3 3 6.83 5.13 11.31 6.51zm-9.66-5.52 2.83-2.83a38 38 0 0 1-6.25-8.34l-3.48 1.97-3.48 1.97a46 46 0 0 0 7.55 10.06zm-6.9-9.2 3.52-1.9c-1.85-3.4-3.99-8.53-6.41-15.51l-3.78 1.31-3.78 1.31c2.48 7.13 4.78 12.73 6.93 16.7zm-6.67-16.1-3.88-.97a228 228 0 0 1-5.88 19.66l3.78 1.32 3.77 1.32q3.51-10.07 6.09-20.36zm-5.98 20.01-3.81-1.24a47 47 0 0 1-9.76 16.75l2.99 2.66 2.99 2.66a55 55 0 0 0 11.39-19.6zm-10.58 18.17-2.83-2.83c.71-.7 1.44-.71 1.45-.71v8c1.23 0 2.88-.31 4.21-1.63zm-1.38.46v-4c.14 0 .16.04.02-.03a4 4 0 0 1-.84-.59l-2.63 3.01-2.64 3.01c1.59 1.4 3.65 2.6 6.09 2.6zm-3.45-1.61 2.63-3.01a3 3 0 0 1-.54-.59l.03.09q.04.1.04.29h-8c0 2.72 1.56 4.8 3.2 6.23zm-1.84-3.22h4c0-1.27-.17-3.9-.47-7.68l-3.99.32-3.99.32c.31 3.88.45 6.16.45 7.04zm-.46-7.36 3.99-.15a484 484 0 0 0-.69-13.22l-3.99.26-3.99.26q.45 7.09.68 13zm-.69-13.11 3.99-.25v-.06l-.01-.03v-.14l-.01-.03v-.11l-.01-.03v-.15l-.01-.02v-.15l-.01-.03v-.11l-.01-.03v-.14l-.01-.03v-.12l-.01-.03v-.14l-.01-.03v-.12l-.01-.02v-.15l-.01-.03v-.14l-.01-.03v-.11l-.01-.03v-.15l-.01-.02v-.12l-.01-.03v-.14l-.01-.03v-.12l-.01-.02v-.15l-.01-.03v-.14l-.01-.03v-.11l-.01-.03v-.15l-.01-.03V832l-.01-.03v-.14l-.01-.03v-.12l-.01-.03v-.14l-.01-.03v-.11l-.01-.03v-.15l-.01-.03v-.14l-.01-.03v-.11l-.01-.03v-.14l-.01-.03v-.12l-.01-.03v-.14l-.01-.03v-.11l-.01-.03v-.15l-.01-.03v-.14l-.01-.03v-.11l-.01-.03v-.15l-.01-.03v-.11l-.01-.03v-.14l-.01-.03v-.12l-.01-.02v-.15l-.01-.03v-.14l-.01-.03v-.11l-.01-.03v-.15l-.01-.03v-.11l-.01-.03v-.14l-.01-.03V828l-.01-.03v-.14l-.01-.03v-.11l-.01-.03v-.15l-.01-.02v-.15l-.01-.03v-.11l-.01-.03v-.14l-.01-.03v-.12l-.01-.03v-.14l-.01-.03v-.11l-.01-.03v-.15l-.01-.03v-.14l-.01-.03v-.11l-.01-.03v-.15l-.01-.02v-.12l-.01-.03v-.14l-.01-.03v-.12l-.01-.03v-.14l-.01-.03v-.14l-.01-.03v-.11l-.01-.03v-.15l-.01-.03v-.11l-.01-.03v-.14l-.01-.03v-.12l-.01-.03v-.14l-.01-.03v-.11l-.01-.03v-.15l-.01-.03v-.14l-.01-.03v-.11l-.01-.03v-.14l-.01-.03v-.12l-.01-.03v-.14l-.01-.03v-.11l-.01-.03v-.15l-.01-.03v-.14l-.01-.03v-.11l-.01-.03v-.15l-.01-.02v-.12l-.01-.03v-.14l-.01-.03v-.12l-.01-.02v-.15l-.01-.03v-.14l-.01-.03v-.11l-.01-.03v-.15l-.01-.03v-.11l-.01-.03v-.14l-.01-.03v-.06l-3.99.25-3.99.25v.14l.01.03v.12l.01.03v.14l.01.03v.11l.01.03v.15l.01.02v.12l.01.03v.14l.01.03v.14l.01.03v.12l.01.03v.14l.01.03v.11l.01.03v.15l.01.03v.11l.01.03v.14l.01.03v.15l.01.02v.12l.01.03v.14l.01.03v.12l.01.03v.14l.01.03v.11l.01.03v.14l.01.03v.15l.01.03v.11l.01.03v.14l.01.03v.12l.01.03v.14l.01.03v.11l.01.03v.15l.01.02v.15l.01.03v.11l.01.03v.14l.01.03v.12l.01.03v.14l.01.03v.11l.01.03v.15l.01.03v.11l.01.03v.14l.01.03v.15l.01.02v.12l.01.03v.14l.01.03v.12l.01.02v.15l.01.03v.11l.01.03v.14l.01.03v.15l.01.03v.11l.01.03v.14l.01.03v.12l.01.03v.14l.01.03v.11l.01.03v.15l.01.02v.15l.01.03v.11l.01.03v.15l.01.02v.12l.01.03v.14l.01.03v.11l.01.03v.15l.01.03v.11l.01.03v.14l.01.03v.15l.01.02v.12l.01.03v.14l.01.03v.12l.01.02v.15l.01.03v.11l.01.03v.14l.01.03v.15l.01.03v.11l.01.03v.14l.01.03v.12l.01.03v.14l.01.03v.11l.01.03v.15l.01.02v.15l.01.03v.11l.01.03v.14l.01.03v.12l.01.03v.14l.01.03v.11l.01.03v.15l.01.03v.11l.01.03v.14l.01.03v.15l.01.02v.12l.01.03v.14l.01.03v.12l.01.02v.15l.01.03v.11l.01.03v.15l.01.02v.15l.01.03v.11l.01.03zm-.92-14.72 4-.12q-.24-7.56-.23-12.3h-8q0 4.92.23 12.54zm-.23-12.42h4q0-2.12.22-5.73l-3.99-.25-3.99-.25q-.24 3.75-.24 6.23zm.23-5.98 3.99.24c.14-2.3.53-4.05 1.08-5.37l-3.69-1.54-3.69-1.54a25 25 0 0 0-1.69 7.98zm1.38-6.67 3.58 1.79c-.12.23-.22.36-.2.32l.15-.17q.27-.3.91-.95l-2.83-2.83-2.83-2.83q-.74.74-1.27 1.35c-.27.3-.76.87-1.09 1.53zm1.61-1.84 2.6 3.04c.47-.4.72-.42.85-.42v-8c-2.33 0-4.37.9-6.06 2.34zm3.45-1.38v4q-.26.02-.8-.17a3 3 0 0 1-.93-.65c-.45-.52-.44-.93-.41-.67l3.98-.44 3.97-.44a6.7 6.7 0 0 0-1.56-3.77 5.6 5.6 0 0 0-4.25-1.86zm1.84 2.07-3.98.44q.21 1.81.21 4.16h8q0-2.7-.26-5.04zm.23 4.6h-4v36.34h8v-36.34zm0 36.34h-4q0 1.5.25 3.66l3.98-.44 3.97-.44q-.2-1.98-.2-2.78zm.23 3.22-3.91.87a12 12 0 0 0 1.86 4.52l3.2-2.4 3.2-2.4c.06.08.01.03-.1-.24q-.15-.4-.35-1.22zm1.15 2.99 3.63 1.67q2.7-5.87 4.82-13.47l-3.85-1.08-3.85-1.08a85 85 0 0 1-4.39 12.3zm4.6-12.88 3.83 1.16q2.3-7.58 4.36-14.23l-3.82-1.19-3.82-1.19q-2.08 6.69-4.38 14.29zm4.37-14.26 3.83 1.15a91 91 0 0 1 3.96-11l-3.65-1.65-3.65-1.64a100 100 0 0 0-4.32 12zm4.14-11.5 3.67 1.58a11 11 0 0 1 1.43-2.6c.34-.4.02.19-.96.19v-8c-2.37 0-4.07 1.39-5.11 2.6a18 18 0 0 0-2.71 4.65zm4.14-4.83v4c1.04 0 1.4.21 1.46.25l2.22-3.33 2.22-3.33a10.5 10.5 0 0 0-5.9-1.59zm3.68.92-2.22 3.33c-.14-.1-.08-.1.09.17q.26.39.63 1.44l3.8-1.26 3.79-1.26c-.7-2.12-1.83-4.39-3.87-5.75zm2.3 3.68-3.94.68q1.14 6.6 1.81 11.8l3.97-.52 3.96-.52a293 293 0 0 0-1.86-12.12zm1.84 11.96-3.97.54q.72 5.2 1.67 9.53l3.91-.87 3.9-.87q-.87-3.95-1.55-8.87zm1.61 9.2-3.86 1.07q1.25 4.5 3.27 8.54l3.58-1.79 3.58-1.79a39 39 0 0 1-2.72-7.1zm2.99 7.82-3.43 2.06a31 31 0 0 0 6.33 7.4l2.62-3.02 2.62-3.02a23 23 0 0 1-4.71-5.48zm5.52 6.44-2.72 2.93a24 24 0 0 0 8.52 5.21l1.33-3.77 1.33-3.77a16 16 0 0 1-5.74-3.53zm7.13 4.37-1.27 3.8c3 1 5.83 1.58 8.4 1.58v-8c-1.42 0-3.35-.33-5.87-1.17zm7.13 1.38v4c1.36 0 2.73-.23 4.09-.61l-1.1-3.85-1.1-3.85q-1.18.33-1.89.31zm2.99-.46 1.57 3.68q.68-.28.96-.37l.1-.02-.33.02v-8c-1.38 0-2.85.57-3.88 1.01zm2.3-.69v4q-.69 0-1.25-.27a3 3 0 0 1-.72-.5c-.23-.23-.22-.34-.1-.04l3.68-1.58 3.67-1.58c-.5-1.18-1.98-4.03-5.28-4.03zm1.61 1.61-3.48 1.99a8 8 0 0 1 .51.96q.05.11.01 0l-.07-.26a4 4 0 0 1-.05-.62h8c0-1.1-.44-2.05-.58-2.37q-.35-.8-.87-1.69z" mask="url(#c)"/><defs><linearGradient id="a" x1="1326.14" x2="1457.78" y1="623.37" y2="747.5" gradientUnits="userSpaceOnUse"><stop stop-color="#ffc110"/><stop offset=".5" stop-color="#f44336"/><stop offset="1" stop-color="#6f3de2"/></linearGradient><linearGradient id="b" x1="1334.75" x2="1464.32" y1="619.3" y2="705.85" gradientUnits="userSpaceOnUse"><stop stop-color="#ffc110"/><stop offset=".51" stop-color="#f44336"/><stop offset="1" stop-color="#6f3de2"/></linearGradient></defs></svg>