<svg xmlns="http://www.w3.org/2000/svg" fill="none" viewBox="1298 590 216 166" width="216" height="166" role="img" aria-label="mark 26">
<path stroke-width="4" stroke="black" fill="url(#paint0_linear_2037_9)" d="M1482.88 600V619.509H1479.4C1470.52 619.509 1463.25 621.052 1457.48 624.027L1457.47 624.031L1457.47 624.035C1451.62 626.99 1447.03 630.954 1443.65 635.922L1443.64 635.932C1440.2 640.923 1437.69 646.559 1436.14 652.858C1435.67 654.844 1435.27 656.839 1434.95 658.843C1438.42 655.849 1442.24 653.618 1446.43 652.173C1451.11 650.513 1456.04 649.688 1461.2 649.688C1468.22 649.688 1474.38 651.092 1479.62 653.986C1484.77 656.831 1489.02 660.658 1492.35 665.451C1495.65 670.131 1498.07 675.415 1499.61 681.283C1501.2 687.058 1502 692.999 1502 699.103C1502 706.063 1501.08 712.615 1499.22 718.747C1497.36 724.899 1494.56 730.334 1490.79 735.026L1490.79 735.025C1487.08 739.739 1482.48 743.417 1477.01 746.048C1471.5 748.703 1465.16 750 1458.05 750C1450.45 750 1443.72 748.353 1437.92 744.988L1437.92 744.983L1437.91 744.979C1432.2 741.599 1427.47 737.11 1423.72 731.533C1420 726.011 1417.22 719.884 1415.38 713.167C1413.53 706.476 1412.61 699.679 1412.61 692.781V684.187C1412.61 673.918 1413.58 663.845 1415.53 653.969C1417.49 644.016 1420.87 634.973 1425.7 626.858L1425.71 626.849C1430.66 618.634 1437.51 612.103 1446.22 607.266C1455.02 602.376 1466.12 600 1479.4 600H1482.88ZM1458.42 668.801C1454.03 668.801 1449.93 669.949 1446.09 672.267L1446.08 672.272C1442.26 674.553 1439.1 677.569 1436.61 681.34C1435.46 683.081 1434.55 684.896 1433.88 686.783V693.373C1433.88 699.614 1434.57 705.084 1435.93 709.804L1436.19 710.675C1437.53 714.983 1439.3 718.588 1441.47 721.525C1443.8 724.692 1446.38 727.016 1449.18 728.566C1452.05 730.125 1455 730.887 1458.05 730.887C1461.73 730.887 1464.93 730.154 1467.7 728.742C1470.52 727.242 1472.88 725.178 1474.81 722.524L1474.81 722.52C1476.82 719.775 1478.36 716.51 1479.42 712.694C1480.48 708.876 1481.02 704.646 1481.02 699.992C1481.02 695.867 1480.54 691.914 1479.59 688.13L1479.59 688.123C1478.65 684.302 1477.22 680.961 1475.31 678.077L1475.31 678.069L1475.3 678.061C1473.42 675.152 1471.08 672.911 1468.28 671.301L1468.26 671.289L1468.24 671.275C1465.58 669.655 1462.33 668.801 1458.42 668.801Z"/>
<path stroke-width="4" stroke="black" fill="url(#paint1_linear_2037_9)" d="M1350.32 604.055C1358.77 604.055 1366.12 605.651 1372.29 608.936H1372.29C1378.43 612.141 1383.17 616.703 1386.45 622.604H1386.45C1389.8 628.454 1391.44 635.258 1391.44 642.944C1391.44 647.203 1390.75 651.507 1389.39 655.852L1389.39 655.853C1388.1 660.099 1386.3 664.329 1383.98 668.542L1383.98 668.543C1381.74 672.74 1379.1 676.864 1376.08 680.917L1376.08 680.918C1373.14 684.946 1369.99 688.908 1366.63 692.804L1366.62 692.807L1334.74 729.61H1397.41V748.025H1308.5V732.682L1308.97 732.123L1351.47 681.768C1356.67 675.602 1360.65 670.42 1363.45 666.21L1363.45 666.205C1366.3 661.931 1368.22 658.208 1369.27 655.023L1369.28 655.014L1369.28 655.005C1370.4 651.732 1370.95 648.409 1370.95 645.03C1370.95 640.746 1370.12 636.94 1368.48 633.576L1368.47 633.559L1368.47 633.541C1366.9 630.146 1364.59 627.466 1361.52 625.462C1358.52 623.499 1354.82 622.469 1350.32 622.469C1344.84 622.469 1340.41 623.612 1336.95 625.771L1336.94 625.776C1333.49 627.896 1330.9 630.869 1329.16 634.754C1327.39 638.689 1326.48 643.27 1326.48 648.539V650.539H1306V648.539C1306 640.479 1307.66 633.058 1311.02 626.312C1314.4 619.515 1319.42 614.111 1326.04 610.126C1332.71 606.04 1340.84 604.055 1350.32 604.055Z"/>
<defs>
<linearGradient gradientUnits="userSpaceOnUse" y2="747.496" x2="1457.78" y1="623.371" x1="1326.14" id="paint0_linear_2037_9">
<stop stop-color="#FFC110"/>
<stop stop-color="#F44336" offset="0.5"/>
<stop stop-color="#6F3DE2" offset="1"/>
</linearGradient>
<linearGradient gradientUnits="userSpaceOnUse" y2="705.853" x2="1464.32" y1="619.301" x1="1334.75" id="paint1_linear_2037_9">
<stop stop-color="#FFC110"/>
<stop stop-color="#F44336" offset="0.509615"/>
<stop stop-color="#6F3DE2" offset="1"/>
</linearGradient>
</defs>
</svg>
