<svg xmlns="http://www.w3.org/2000/svg" fill="none" viewBox="354 450 875 140" width="875" height="140" role="img" aria-label="wordmark blockchain">
<path fill="white" d="M358 459.987V579.089H415.518V559.238H434.69V529.463H415.518V509.613H434.69V479.838H415.518V459.987H358ZM415.518 479.838V509.613H377.173V479.838H415.518ZM377.173 559.238H415.518V529.463H377.173V559.238Z" clip-rule="evenodd" fill-rule="evenodd"/>
<path fill="white" d="M473.036 459.987H453.863V579.089H511.381V559.238H473.036V459.987Z"/>
<path fill="white" d="M549.726 459.987H588.071V479.838H549.726V459.987Z"/>
<path fill="white" d="M549.726 559.238V479.838H530.553V559.238H549.726Z"/>
<path fill="white" d="M588.071 559.238V579.089H549.726V559.238H588.071Z"/>
<path fill="white" d="M588.071 559.238V479.838H607.244V559.238H588.071Z"/>
<path fill="white" d="M645.589 459.987H703.107V479.838H645.589V459.987Z"/>
<path fill="white" d="M645.589 559.238V479.838H626.416V559.238H645.589Z"/>
<path fill="white" d="M645.589 559.238V579.089H703.107V559.238H645.589Z"/>
<path fill="white" d="M741.452 459.987H722.279V579.089H741.452V519.538H760.624V539.388H779.797V579.089H798.969V539.388H779.797V519.538H760.624V499.688H779.797V479.838H798.969V459.987H779.797V479.838H760.624V499.688H741.452V459.987Z"/>
<path fill="white" d="M837.315 459.987H894.832V479.838H837.315V459.987Z"/>
<path fill="white" d="M837.315 559.238V479.838H818.142V559.238H837.315Z"/>
<path fill="white" d="M837.315 559.238V579.089H894.832V559.238H837.315Z"/>
<path fill="white" d="M914.005 459.987H933.178V509.613H971.523V459.987H990.695V579.089H971.523V529.463H933.178V579.089H914.005V459.987Z"/>
<path fill="white" d="M1029.04 459.987H1067.39V479.838H1029.04V459.987Z"/>
<path fill="white" d="M1029.04 519.538V479.838H1009.87V579.089H1029.04V539.388H1067.39V579.089H1086.56V479.838H1067.39V519.538H1029.04Z"/>
<path fill="white" d="M1105.73 459.987H1124.9V579.089H1105.73V459.987Z"/>
<path fill="white" d="M1144.08 459.987H1163.25V489.763H1177.63V509.613H1192.01V529.463H1201.59V459.987H1220.77V579.089H1201.59V549.313H1187.21V529.463H1172.83V509.613H1163.25V579.089H1144.08V459.987Z"/>
</svg>
