<svg xmlns="http://www.w3.org/2000/svg" fill="none" viewBox="354 590 1160 170" width="1160" height="170" role="img" aria-label="wordmark conference 26">
<path fill="white" d="M361.625 695.832C361.625 689.65 362.681 683.61 364.794 677.713C366.907 671.721 369.985 666.299 374.027 661.448C378.161 656.502 383.168 652.602 389.048 649.749C394.927 646.8 401.588 645.326 409.029 645.326C417.849 645.326 425.474 647.419 431.904 651.604C438.335 655.694 443.112 660.972 446.236 667.44L434.109 675.858C432.272 671.768 429.929 668.534 427.081 666.156C424.325 663.778 421.294 662.114 417.986 661.163C414.771 660.212 411.601 659.736 408.478 659.736C403.333 659.736 398.832 660.83 394.973 663.017C391.115 665.11 387.853 667.916 385.189 671.435C382.617 674.954 380.642 678.902 379.264 683.277C377.978 687.652 377.334 692.028 377.334 696.403C377.334 701.254 378.115 705.962 379.677 710.528C381.239 714.998 383.398 718.993 386.154 722.512C389.002 725.936 392.355 728.647 396.213 730.645C400.072 732.642 404.298 733.641 408.891 733.641C412.015 733.641 415.276 733.07 418.675 731.929C422.075 730.787 425.198 729.028 428.046 726.65C430.986 724.177 433.282 720.943 434.936 716.948L447.752 724.51C445.731 729.551 442.561 733.831 438.243 737.35C434.017 740.869 429.24 743.533 423.912 745.34C418.675 747.147 413.485 748.051 408.34 748.051C401.45 748.051 395.157 746.576 389.461 743.628C383.765 740.584 378.85 736.589 374.716 731.643C370.582 726.602 367.367 720.99 365.07 714.808C362.773 708.53 361.625 702.205 361.625 695.832Z"/>
<path fill="white" d="M501.468 747.908C494.394 747.908 488.009 746.481 482.313 743.628C476.618 740.774 471.703 736.922 467.568 732.071C463.434 727.125 460.219 721.609 457.922 715.521C455.717 709.339 454.615 703.014 454.615 696.546C454.615 689.792 455.809 683.372 458.198 677.285C460.586 671.102 463.894 665.633 468.12 660.877C472.346 656.026 477.307 652.222 483.002 649.464C488.79 646.61 495.037 645.183 501.744 645.183C508.726 645.183 515.065 646.658 520.76 649.606C526.548 652.555 531.463 656.502 535.505 661.448C539.639 666.394 542.809 671.911 545.014 677.998C547.311 684.086 548.459 690.316 548.459 696.688C548.459 703.442 547.265 709.909 544.876 716.092C542.579 722.179 539.318 727.648 535.092 732.499C530.866 737.255 525.859 741.012 520.071 743.77C514.376 746.529 508.174 747.908 501.468 747.908ZM470.325 696.546C470.325 701.301 471.06 705.915 472.529 710.385C473.999 714.855 476.066 718.85 478.731 722.37C481.487 725.794 484.794 728.504 488.652 730.502C492.511 732.499 496.829 733.498 501.606 733.498C506.567 733.498 510.976 732.452 514.835 730.359C518.693 728.267 521.909 725.461 524.481 721.941C527.145 718.327 529.166 714.332 530.544 709.957C531.923 705.486 532.611 701.016 532.611 696.546C532.611 691.79 531.877 687.224 530.407 682.849C529.029 678.379 526.962 674.431 524.206 671.007C521.449 667.488 518.142 664.73 514.284 662.732C510.517 660.735 506.291 659.736 501.606 659.736C496.645 659.736 492.235 660.782 488.377 662.875C484.518 664.967 481.257 667.773 478.593 671.293C475.929 674.812 473.862 678.759 472.392 683.134C471.014 687.51 470.325 691.98 470.325 696.546Z"/>
<path fill="white" d="M579.871 675.573V747.195H564.438V645.897H577.115L632.512 719.088V646.039H648.084V747.195H634.579L579.871 675.573Z"/>
<path fill="white" d="M670.078 747.195V645.897H735.258V660.021H685.511V690.268H727.128V703.537H685.511V747.195H670.078Z"/>
<path fill="white" d="M816.989 733.07V747.195H749.879V645.897H815.749V660.021H765.313V688.841H808.997V702.11H765.313V733.07H816.989Z"/>
<path fill="white" d="M832.911 747.195V645.897H875.492C879.902 645.897 883.944 646.848 887.619 648.75C891.294 650.652 894.463 653.173 897.127 656.312C899.883 659.451 901.996 662.97 903.466 666.87C905.028 670.769 905.809 674.764 905.809 678.854C905.809 683.325 905.028 687.605 903.466 691.695C901.904 695.785 899.654 699.304 896.714 702.253C893.866 705.201 890.513 707.341 886.654 708.673L909.667 747.195H892.304L871.082 711.954H848.345V747.195H832.911ZM848.345 697.83H875.354C878.202 697.83 880.729 696.974 882.934 695.262C885.138 693.55 886.884 691.267 888.17 688.413C889.456 685.465 890.099 682.278 890.099 678.854C890.099 675.335 889.364 672.196 887.894 669.438C886.425 666.584 884.495 664.301 882.107 662.589C879.81 660.877 877.284 660.021 874.528 660.021H848.345V697.83Z"/>
<path fill="white" d="M991.127 733.07V747.195H924.017V645.897H989.887V660.021H939.451V688.841H983.135V702.11H939.451V733.07H991.127Z"/>
<path fill="white" d="M1022.48 675.573V747.195H1007.05V645.897H1019.73L1075.12 719.088V646.039H1090.7V747.195H1077.19L1022.48 675.573Z"/>
<path fill="white" d="M1106.49 695.832C1106.49 689.65 1107.54 683.61 1109.66 677.713C1111.77 671.721 1114.85 666.299 1118.89 661.448C1123.02 656.502 1128.03 652.602 1133.91 649.749C1139.79 646.8 1146.45 645.326 1153.89 645.326C1162.71 645.326 1170.34 647.419 1176.77 651.604C1183.2 655.694 1187.98 660.972 1191.1 667.44L1178.97 675.858C1177.13 671.768 1174.79 668.534 1171.94 666.156C1169.19 663.778 1166.16 662.114 1162.85 661.163C1159.63 660.212 1156.46 659.736 1153.34 659.736C1148.2 659.736 1143.69 660.83 1139.84 663.017C1135.98 665.11 1132.72 667.916 1130.05 671.435C1127.48 674.954 1125.5 678.902 1124.13 683.277C1122.84 687.652 1122.2 692.028 1122.2 696.403C1122.2 701.254 1122.98 705.962 1124.54 710.528C1126.1 714.998 1128.26 718.993 1131.02 722.512C1133.86 725.936 1137.22 728.647 1141.08 730.645C1144.93 732.642 1149.16 733.641 1153.75 733.641C1156.88 733.641 1160.14 733.07 1163.54 731.929C1166.94 730.787 1170.06 729.028 1172.91 726.65C1175.85 724.177 1178.15 720.943 1179.8 716.948L1192.61 724.51C1190.59 729.551 1187.42 733.831 1183.11 737.35C1178.88 740.869 1174.1 743.533 1168.77 745.34C1163.54 747.147 1158.35 748.051 1153.2 748.051C1146.31 748.051 1140.02 746.576 1134.32 743.628C1128.63 740.584 1123.71 736.589 1119.58 731.643C1115.44 726.602 1112.23 720.99 1109.93 714.808C1107.64 708.53 1106.49 702.205 1106.49 695.832Z"/>
<path fill="white" d="M1274 733.07V747.195H1206.89V645.897H1272.76V660.021H1222.32V688.841H1266.01V702.11H1222.32V733.07H1274Z"/>
<path stroke-width="4" stroke="black" fill="url(#paint0_linear_2037_9)" d="M1482.88 600V619.509H1479.4C1470.52 619.509 1463.25 621.052 1457.48 624.027L1457.47 624.031L1457.47 624.035C1451.62 626.99 1447.03 630.954 1443.65 635.922L1443.64 635.932C1440.2 640.923 1437.69 646.559 1436.14 652.858C1435.67 654.844 1435.27 656.839 1434.95 658.843C1438.42 655.849 1442.24 653.618 1446.43 652.173C1451.11 650.513 1456.04 649.688 1461.2 649.688C1468.22 649.688 1474.38 651.092 1479.62 653.986C1484.77 656.831 1489.02 660.658 1492.35 665.451C1495.65 670.131 1498.07 675.415 1499.61 681.283C1501.2 687.058 1502 692.999 1502 699.103C1502 706.063 1501.08 712.615 1499.22 718.747C1497.36 724.899 1494.56 730.334 1490.79 735.026L1490.79 735.025C1487.08 739.739 1482.48 743.417 1477.01 746.048C1471.5 748.703 1465.16 750 1458.05 750C1450.45 750 1443.72 748.353 1437.92 744.988L1437.92 744.983L1437.91 744.979C1432.2 741.599 1427.47 737.11 1423.72 731.533C1420 726.011 1417.22 719.884 1415.38 713.167C1413.53 706.476 1412.61 699.679 1412.61 692.781V684.187C1412.61 673.918 1413.58 663.845 1415.53 653.969C1417.49 644.016 1420.87 634.973 1425.7 626.858L1425.71 626.849C1430.66 618.634 1437.51 612.103 1446.22 607.266C1455.02 602.376 1466.12 600 1479.4 600H1482.88ZM1458.42 668.801C1454.03 668.801 1449.93 669.949 1446.09 672.267L1446.08 672.272C1442.26 674.553 1439.1 677.569 1436.61 681.34C1435.46 683.081 1434.55 684.896 1433.88 686.783V693.373C1433.88 699.614 1434.57 705.084 1435.93 709.804L1436.19 710.675C1437.53 714.983 1439.3 718.588 1441.47 721.525C1443.8 724.692 1446.38 727.016 1449.18 728.566C1452.05 730.125 1455 730.887 1458.05 730.887C1461.73 730.887 1464.93 730.154 1467.7 728.742C1470.52 727.242 1472.88 725.178 1474.81 722.524L1474.81 722.52C1476.82 719.775 1478.36 716.51 1479.42 712.694C1480.48 708.876 1481.02 704.646 1481.02 699.992C1481.02 695.867 1480.54 691.914 1479.59 688.13L1479.59 688.123C1478.65 684.302 1477.22 680.961 1475.31 678.077L1475.31 678.069L1475.3 678.061C1473.42 675.152 1471.08 672.911 1468.28 671.301L1468.26 671.289L1468.24 671.275C1465.58 669.655 1462.33 668.801 1458.42 668.801Z"/>
<path stroke-width="4" stroke="black" fill="url(#paint1_linear_2037_9)" d="M1350.32 604.055C1358.77 604.055 1366.12 605.651 1372.29 608.936H1372.29C1378.43 612.141 1383.17 616.703 1386.45 622.604H1386.45C1389.8 628.454 1391.44 635.258 1391.44 642.944C1391.44 647.203 1390.75 651.507 1389.39 655.852L1389.39 655.853C1388.1 660.099 1386.3 664.329 1383.98 668.542L1383.98 668.543C1381.74 672.74 1379.1 676.864 1376.08 680.917L1376.08 680.918C1373.14 684.946 1369.99 688.908 1366.63 692.804L1366.62 692.807L1334.74 729.61H1397.41V748.025H1308.5V732.682L1308.97 732.123L1351.47 681.768C1356.67 675.602 1360.65 670.42 1363.45 666.21L1363.45 666.205C1366.3 661.931 1368.22 658.208 1369.27 655.023L1369.28 655.014L1369.28 655.005C1370.4 651.732 1370.95 648.409 1370.95 645.03C1370.95 640.746 1370.12 636.94 1368.48 633.576L1368.47 633.559L1368.47 633.541C1366.9 630.146 1364.59 627.466 1361.52 625.462C1358.52 623.499 1354.82 622.469 1350.32 622.469C1344.84 622.469 1340.41 623.612 1336.95 625.771L1336.94 625.776C1333.49 627.896 1330.9 630.869 1329.16 634.754C1327.39 638.689 1326.48 643.27 1326.48 648.539V650.539H1306V648.539C1306 640.479 1307.66 633.058 1311.02 626.312C1314.4 619.515 1319.42 614.111 1326.04 610.126C1332.71 606.04 1340.84 604.055 1350.32 604.055Z"/>
<defs>
<linearGradient gradientUnits="userSpaceOnUse" y2="747.496" x2="1457.78" y1="623.371" x1="1326.14" id="paint0_linear_2037_9">
<stop stop-color="#FFC110"/>
<stop stop-color="#F44336" offset="0.5"/>
<stop stop-color="#6F3DE2" offset="1"/>
</linearGradient>
<linearGradient gradientUnits="userSpaceOnUse" y2="705.853" x2="1464.32" y1="619.301" x1="1334.75" id="paint1_linear_2037_9">
<stop stop-color="#FFC110"/>
<stop stop-color="#F44336" offset="0.509615"/>
<stop stop-color="#6F3DE2" offset="1"/>
</linearGradient>
</defs>
</svg>
