<svg xmlns="http://www.w3.org/2000/svg" fill="none" viewBox="354 292 875 300" width="875" height="300" role="img" aria-label="wordmark tum blockchain">
<path fill="white" d="M440.221 315.125H407.699V402.298H392.127V315.125H359.468V301H440.221V315.125Z"/>
<path fill="white" d="M494.131 403.011C486.322 403.011 479.707 401.632 474.287 398.874C468.959 396.115 464.641 392.358 461.333 387.603C458.118 382.847 455.729 377.425 454.168 371.338C452.698 365.25 451.963 358.925 451.963 352.362V301H467.397V352.362C467.397 357.023 467.856 361.541 468.775 365.916C469.694 370.196 471.163 374.049 473.185 377.473C475.206 380.897 477.916 383.608 481.315 385.605C484.806 387.603 489.078 388.601 494.131 388.601C499.275 388.601 503.547 387.603 506.946 385.605C510.437 383.513 513.147 380.754 515.077 377.33C517.098 373.811 518.568 369.911 519.486 365.631C520.405 361.351 520.864 356.928 520.864 352.362V301H536.436V352.362C536.436 359.306 535.609 365.869 533.956 372.051C532.394 378.139 529.913 383.513 526.514 388.173C523.207 392.739 518.889 396.353 513.561 399.016C508.232 401.68 501.756 403.011 494.131 403.011Z"/>
<path fill="white" d="M639.231 402.298V330.105L610.43 384.892H601.335L572.396 330.105V402.298H556.962V301H573.499L605.882 362.92L638.266 301H654.802V402.298H639.231Z"/>
<path fill="white" d="M358 459.987V579.089H415.518V559.238H434.69V529.463H415.518V509.613H434.69V479.838H415.518V459.987H358ZM415.518 479.838V509.613H377.173V479.838H415.518ZM377.173 559.238H415.518V529.463H377.173V559.238Z" clip-rule="evenodd" fill-rule="evenodd"/>
<path fill="white" d="M473.036 459.987H453.863V579.089H511.381V559.238H473.036V459.987Z"/>
<path fill="white" d="M549.726 459.987H588.071V479.838H549.726V459.987Z"/>
<path fill="white" d="M549.726 559.238V479.838H530.553V559.238H549.726Z"/>
<path fill="white" d="M588.071 559.238V579.089H549.726V559.238H588.071Z"/>
<path fill="white" d="M588.071 559.238V479.838H607.244V559.238H588.071Z"/>
<path fill="white" d="M645.589 459.987H703.107V479.838H645.589V459.987Z"/>
<path fill="white" d="M645.589 559.238V479.838H626.416V559.238H645.589Z"/>
<path fill="white" d="M645.589 559.238V579.089H703.107V559.238H645.589Z"/>
<path fill="white" d="M741.452 459.987H722.279V579.089H741.452V519.538H760.624V539.388H779.797V579.089H798.969V539.388H779.797V519.538H760.624V499.688H779.797V479.838H798.969V459.987H779.797V479.838H760.624V499.688H741.452V459.987Z"/>
<path fill="white" d="M837.315 459.987H894.832V479.838H837.315V459.987Z"/>
<path fill="white" d="M837.315 559.238V479.838H818.142V559.238H837.315Z"/>
<path fill="white" d="M837.315 559.238V579.089H894.832V559.238H837.315Z"/>
<path fill="white" d="M914.005 459.987H933.178V509.613H971.523V459.987H990.695V579.089H971.523V529.463H933.178V579.089H914.005V459.987Z"/>
<path fill="white" d="M1029.04 459.987H1067.39V479.838H1029.04V459.987Z"/>
<path fill="white" d="M1029.04 519.538V479.838H1009.87V579.089H1029.04V539.388H1067.39V579.089H1086.56V479.838H1067.39V519.538H1029.04Z"/>
<path fill="white" d="M1105.73 459.987H1124.9V579.089H1105.73V459.987Z"/>
<path fill="white" d="M1144.08 459.987H1163.25V489.763H1177.63V509.613H1192.01V529.463H1201.59V459.987H1220.77V579.089H1201.59V549.313H1187.21V529.463H1172.83V509.613H1163.25V579.089H1144.08V459.987Z"/>
</svg>
