<svg width="1000" height="500" viewBox="0 0 1000 500" fill="none" xmlns="http://www.w3.org/2000/svg">
<g clip-path="url(#clip0_725_24859)">
<rect width="1000" height="500" fill="black"/>
<g opacity="0.7">
<g filter="url(#filter0_f_725_24859)">
<path d="M627.213 632.477L-7.80622 252.684L946.747 70.6112L627.213 632.477Z" stroke="url(#paint0_linear_725_24859)" stroke-opacity="0.8" stroke-width="150"/>
</g>
<path opacity="0.166667" d="M804.415 453.747L67.7326 380.824L854.461 -190.504L804.415 453.747Z" stroke="url(#paint1_linear_725_24859)" stroke-width="4"/>
<path opacity="0.333333" d="M780.361 485.232L48.5047 373.853L864.056 -155.517L780.361 485.232Z" stroke="url(#paint2_linear_725_24859)" stroke-width="4"/>
<path opacity="0.5" d="M754.089 515.607L29.0644 366.078L871.203 -119.884L754.089 515.607Z" stroke="url(#paint3_linear_725_24859)" stroke-width="4"/>
<path opacity="0.666667" d="M725.659 544.757L9.45398 357.489L875.872 -83.7335L725.659 544.757Z" stroke="url(#paint4_linear_725_24859)" stroke-width="4"/>
<path opacity="0.833333" d="M695.139 572.571L-10.2836 348.076L878.038 -47.1963L695.139 572.571Z" stroke="url(#paint5_linear_725_24859)" stroke-width="4"/>
<path d="M662.602 598.942L-30.1051 337.836L877.687 -10.4039L662.602 598.942Z" stroke="url(#paint6_linear_725_24859)" stroke-width="4"/>
</g>
<path d="M323.519 154.076H311.447V185.405H305.667V154.076H293.545V149H323.519V154.076Z" fill="white"/>
<path d="M343.529 185.662C340.631 185.662 338.176 185.166 336.164 184.175C334.186 183.183 332.583 181.833 331.356 180.124C330.162 178.415 329.275 176.466 328.696 174.279C328.15 172.091 327.877 169.818 327.877 167.459V149H333.606V167.459C333.606 169.134 333.777 170.758 334.118 172.33C334.459 173.868 335.004 175.253 335.755 176.483C336.505 177.714 337.511 178.688 338.772 179.406C340.068 180.124 341.654 180.483 343.529 180.483C345.439 180.483 347.025 180.124 348.286 179.406C349.582 178.654 350.588 177.663 351.304 176.432C352.054 175.167 352.6 173.766 352.941 172.228C353.282 170.689 353.452 169.1 353.452 167.459V149H359.232V167.459C359.232 169.954 358.925 172.313 358.312 174.535C357.732 176.723 356.811 178.654 355.55 180.329C354.322 181.97 352.719 183.269 350.741 184.226C348.764 185.183 346.36 185.662 343.529 185.662Z" fill="white"/>
<path d="M397.388 185.405V159.46L386.698 179.15H383.322L372.58 159.46V185.405H366.851V149H372.989L385.01 171.253L397.03 149H403.168V185.405H397.388Z" fill="white"/>
<path d="M294.346 290.898C294.346 288.677 294.738 286.506 295.522 284.387C296.306 282.233 297.449 280.285 298.949 278.541C300.484 276.764 302.342 275.362 304.524 274.337C306.707 273.277 309.179 272.747 311.941 272.747C315.215 272.747 318.045 273.499 320.432 275.003C322.819 276.473 324.592 278.37 325.752 280.695L321.25 283.72C320.568 282.25 319.699 281.088 318.642 280.233C317.619 279.379 316.493 278.78 315.266 278.439C314.072 278.097 312.896 277.926 311.737 277.926C309.827 277.926 308.156 278.319 306.724 279.105C305.292 279.857 304.081 280.866 303.092 282.13C302.137 283.395 301.404 284.814 300.893 286.386C300.415 287.959 300.177 289.531 300.177 291.104C300.177 292.847 300.466 294.539 301.046 296.18C301.626 297.786 302.427 299.222 303.45 300.487C304.507 301.718 305.752 302.692 307.184 303.41C308.616 304.127 310.185 304.486 311.89 304.486C313.049 304.486 314.26 304.281 315.522 303.871C316.783 303.461 317.943 302.829 319 301.974C320.091 301.085 320.944 299.923 321.557 298.487L326.314 301.205C325.564 303.017 324.388 304.555 322.785 305.82C321.216 307.084 319.443 308.042 317.465 308.691C315.522 309.34 313.595 309.665 311.685 309.665C309.128 309.665 306.792 309.135 304.678 308.076C302.564 306.982 300.739 305.546 299.205 303.769C297.67 301.957 296.477 299.94 295.624 297.718C294.772 295.462 294.346 293.189 294.346 290.898Z" fill="white"/>
<path d="M346.253 309.614C343.627 309.614 341.257 309.101 339.143 308.076C337.029 307.05 335.204 305.666 333.67 303.922C332.135 302.145 330.942 300.162 330.089 297.974C329.271 295.753 328.862 293.479 328.862 291.155C328.862 288.728 329.305 286.42 330.192 284.233C331.078 282.011 332.306 280.045 333.875 278.336C335.443 276.593 337.285 275.225 339.399 274.234C341.547 273.209 343.866 272.696 346.355 272.696C348.947 272.696 351.3 273.226 353.414 274.285C355.562 275.345 357.387 276.764 358.887 278.541C360.421 280.319 361.598 282.301 362.416 284.489C363.269 286.677 363.695 288.916 363.695 291.206C363.695 293.633 363.252 295.958 362.365 298.18C361.513 300.367 360.302 302.333 358.733 304.076C357.165 305.785 355.306 307.136 353.158 308.127C351.044 309.118 348.742 309.614 346.253 309.614ZM334.693 291.155C334.693 292.864 334.966 294.522 335.511 296.129C336.057 297.735 336.824 299.171 337.813 300.436C338.836 301.666 340.064 302.641 341.496 303.358C342.928 304.076 344.531 304.435 346.304 304.435C348.145 304.435 349.782 304.059 351.214 303.307C352.647 302.555 353.84 301.547 354.795 300.282C355.784 298.983 356.534 297.547 357.046 295.975C357.557 294.368 357.813 292.762 357.813 291.155C357.813 289.446 357.54 287.805 356.994 286.232C356.483 284.626 355.716 283.207 354.693 281.977C353.67 280.712 352.442 279.721 351.01 279.003C349.612 278.285 348.043 277.926 346.304 277.926C344.463 277.926 342.826 278.302 341.394 279.054C339.961 279.806 338.751 280.814 337.762 282.079C336.773 283.344 336.006 284.763 335.46 286.335C334.949 287.907 334.693 289.514 334.693 291.155Z" fill="white"/>
<path d="M375.355 283.617V309.358H369.626V272.952H374.332L394.894 299.256V273.003H400.674V309.358H395.661L375.355 283.617Z" fill="white"/>
<path d="M408.838 309.358V272.952H433.032V278.028H414.567V288.899H430.014V293.667H414.567V309.358H408.838Z" fill="white"/>
<path d="M463.369 304.281V309.358H438.459V272.952H462.909V278.028H444.188V288.386H460.402V293.155H444.188V304.281H463.369Z" fill="white"/>
<path d="M469.279 309.358V272.952H485.084C486.721 272.952 488.221 273.294 489.585 273.978C490.949 274.661 492.126 275.567 493.115 276.695C494.138 277.823 494.922 279.088 495.468 280.49C496.047 281.891 496.337 283.327 496.337 284.797C496.337 286.403 496.047 287.942 495.468 289.412C494.888 290.881 494.052 292.146 492.961 293.206C491.904 294.266 490.66 295.035 489.227 295.513L497.769 309.358H491.324L483.447 296.693H475.008V309.358H469.279ZM475.008 291.616H485.033C486.09 291.616 487.028 291.309 487.846 290.693C488.665 290.078 489.313 289.258 489.79 288.232C490.267 287.173 490.506 286.027 490.506 284.797C490.506 283.532 490.233 282.404 489.688 281.413C489.142 280.387 488.426 279.567 487.539 278.951C486.687 278.336 485.749 278.028 484.726 278.028H475.008V291.616Z" fill="white"/>
<path d="M528.006 304.281V309.358H503.096V272.952H527.545V278.028H508.825V288.386H525.039V293.155H508.825V304.281H528.006Z" fill="white"/>
<path d="M539.644 283.617V309.358H533.916V272.952H538.621L559.184 299.256V273.003H564.964V309.358H559.951L539.644 283.617Z" fill="white"/>
<path d="M570.826 290.898C570.826 288.677 571.218 286.506 572.002 284.387C572.786 282.233 573.929 280.285 575.429 278.541C576.964 276.764 578.822 275.362 581.005 274.337C583.187 273.277 585.659 272.747 588.421 272.747C591.695 272.747 594.525 273.499 596.912 275.003C599.299 276.473 601.072 278.37 602.232 280.695L597.731 283.72C597.049 282.25 596.179 281.088 595.122 280.233C594.099 279.379 592.974 278.78 591.746 278.439C590.553 278.097 589.376 277.926 588.217 277.926C586.307 277.926 584.636 278.319 583.204 279.105C581.772 279.857 580.561 280.866 579.572 282.13C578.618 283.395 577.884 284.814 577.373 286.386C576.895 287.959 576.657 289.531 576.657 291.104C576.657 292.847 576.947 294.539 577.526 296.18C578.106 297.786 578.907 299.222 579.93 300.487C580.987 301.718 582.232 302.692 583.664 303.41C585.097 304.127 586.665 304.486 588.37 304.486C589.53 304.486 590.74 304.281 592.002 303.871C593.263 303.461 594.423 302.829 595.48 301.974C596.571 301.085 597.424 299.923 598.037 298.487L602.794 301.205C602.044 303.017 600.868 304.555 599.265 305.82C597.696 307.084 595.923 308.042 593.945 308.691C592.002 309.34 590.075 309.665 588.166 309.665C585.608 309.665 583.272 309.135 581.158 308.076C579.044 306.982 577.219 305.546 575.685 303.769C574.15 301.957 572.957 299.94 572.104 297.718C571.252 295.462 570.826 293.189 570.826 290.898Z" fill="white"/>
<path d="M633.003 304.281V309.358H608.093V272.952H632.543V278.028H613.822V288.386H630.037V293.155H613.822V304.281H633.003Z" fill="white"/>
<path fill-rule="evenodd" clip-rule="evenodd" d="M293 206.138V248.942H314.35V241.808H321.466V231.107H314.35V223.973H321.466V213.272H314.35V206.138H293ZM314.35 213.272V223.973H300.117V213.272H314.35ZM300.117 241.808H314.35V231.107H300.117V241.808Z" fill="white"/>
<path d="M335.699 206.138H328.583V248.942H349.932V241.808H335.699V206.138Z" fill="white"/>
<path d="M364.165 206.138H378.398V213.272H364.165V206.138Z" fill="white"/>
<path d="M364.165 241.808V213.272H357.049V241.808H364.165Z" fill="white"/>
<path d="M378.398 241.808V248.942H364.165V241.808H378.398Z" fill="white"/>
<path d="M378.398 241.808V213.272H385.515V241.808H378.398Z" fill="white"/>
<path d="M399.748 206.138H421.098V213.272H399.748V206.138Z" fill="white"/>
<path d="M399.748 241.808V213.272H392.631V241.808H399.748Z" fill="white"/>
<path d="M399.748 241.808V248.942H421.098V241.808H399.748Z" fill="white"/>
<path d="M435.331 206.138H428.214V248.942H435.331V227.54H442.447V234.674H449.564V248.942H456.68V234.674H449.564V227.54H442.447V220.406H449.564V213.272H456.68V206.138H449.564V213.272H442.447V220.406H435.331V206.138Z" fill="white"/>
<path d="M470.913 206.138H492.263V213.272H470.913V206.138Z" fill="white"/>
<path d="M470.913 241.808V213.272H463.797V241.808H470.913Z" fill="white"/>
<path d="M470.913 241.808V248.942H492.263V241.808H470.913Z" fill="white"/>
<path d="M499.379 206.138H506.496V223.973H520.729V206.138H527.846V248.942H520.729V231.107H506.496V248.942H499.379V206.138Z" fill="white"/>
<path d="M542.079 206.138H556.312V213.272H542.079V206.138Z" fill="white"/>
<path d="M542.079 227.54V213.272H534.962V248.942H542.079V234.674H556.312V248.942H563.428V213.272H556.312V227.54H542.079Z" fill="white"/>
<path d="M570.545 206.138H577.661V248.942H570.545V206.138Z" fill="white"/>
<path d="M584.778 206.138H591.894V216.839H597.232V223.973H602.569V231.107H606.127V206.138H613.244V248.942H606.127V238.241H600.79V231.107H595.453V223.973H591.894V248.942H584.778V206.138Z" fill="white"/>
<path d="M701.48 320.396C697.793 320.396 694.49 319.558 691.569 317.882C688.649 316.254 686.422 314.028 684.89 311.203L689.63 306.679C690.971 308.738 692.694 310.365 694.801 311.562C696.908 312.807 699.158 313.43 701.552 313.43C703.515 313.43 705.262 312.999 706.794 312.137C708.327 311.323 709.524 310.174 710.385 308.69C711.295 307.158 711.75 305.41 711.75 303.447C711.75 301.532 711.319 299.856 710.457 298.42C709.595 296.936 708.446 295.811 707.01 295.045C705.574 294.231 703.922 293.824 702.055 293.824C700.235 293.824 698.536 294.231 696.956 295.045C695.376 295.858 694.083 297.008 693.077 298.492H686.111L691.928 268.688H716.849V275.941H697.674L695.088 289.874C695.902 289.012 697.003 288.318 698.392 287.791C699.78 287.217 701.36 286.929 703.132 286.929C706.34 286.929 709.188 287.647 711.678 289.084C714.216 290.472 716.202 292.387 717.639 294.829C719.123 297.271 719.865 300.096 719.865 303.303C719.865 306.703 719.051 309.671 717.423 312.209C715.796 314.794 713.593 316.805 710.816 318.241C708.039 319.678 704.927 320.396 701.48 320.396Z" fill="url(#paint7_linear_725_24859)"/>
<path d="M646.122 309.695C646.122 307.684 646.289 305.841 646.624 304.165C646.959 302.442 647.534 300.814 648.348 299.282C649.21 297.75 650.383 296.313 651.867 294.973C653.399 293.584 655.338 292.268 657.684 291.023C659.36 290.065 660.94 289.228 662.424 288.509C663.908 287.743 665.225 287.001 666.374 286.283C667.523 285.517 668.409 284.703 669.031 283.841C669.701 282.979 670.037 281.998 670.037 280.897C670.037 279.843 669.749 278.862 669.175 277.952C668.6 277.043 667.738 276.324 666.589 275.798C665.44 275.223 664.052 274.936 662.424 274.936C661.131 274.936 659.934 275.104 658.833 275.439C657.78 275.774 656.798 276.229 655.889 276.803C655.027 277.33 654.237 277.928 653.519 278.599C652.801 279.221 652.178 279.843 651.651 280.466L646.696 274.792C647.175 274.218 647.917 273.571 648.922 272.853C649.976 272.087 651.221 271.345 652.657 270.627C654.141 269.861 655.817 269.239 657.684 268.76C659.551 268.233 661.586 267.97 663.788 267.97C666.901 267.97 669.558 268.496 671.76 269.55C673.963 270.555 675.638 271.968 676.787 273.787C677.984 275.558 678.583 277.569 678.583 279.82C678.583 281.591 678.224 283.147 677.505 284.488C676.835 285.828 675.949 287.025 674.848 288.078C673.747 289.084 672.574 289.97 671.329 290.736C670.132 291.454 669.007 292.1 667.954 292.675C666.087 293.584 664.459 294.422 663.07 295.188C661.73 295.954 660.581 296.72 659.623 297.486C658.666 298.205 657.876 298.971 657.253 299.785C656.631 300.551 656.104 301.484 655.673 302.585H679.373V309.695H646.122Z" fill="url(#paint8_linear_725_24859)"/>
<path d="M398.482 344.328C398.352 344.197 398.109 344.02 397.754 343.796C397.418 343.572 396.998 343.357 396.494 343.152C396.009 342.947 395.477 342.769 394.898 342.62C394.32 342.452 393.732 342.368 393.134 342.368C392.089 342.368 391.296 342.564 390.754 342.956C390.232 343.348 389.97 343.899 389.97 344.608C389.97 345.149 390.138 345.579 390.474 345.896C390.81 346.213 391.314 346.484 391.986 346.708C392.658 346.932 393.498 347.175 394.506 347.436C395.813 347.753 396.942 348.145 397.894 348.612C398.865 349.06 399.602 349.657 400.106 350.404C400.629 351.132 400.89 352.103 400.89 353.316C400.89 354.38 400.694 355.295 400.302 356.06C399.91 356.807 399.369 357.413 398.678 357.88C397.988 358.347 397.204 358.692 396.326 358.916C395.449 359.121 394.516 359.224 393.526 359.224C392.537 359.224 391.548 359.121 390.558 358.916C389.569 358.711 388.617 358.421 387.702 358.048C386.788 357.656 385.948 357.189 385.182 356.648L386.89 353.316C387.058 353.484 387.357 353.708 387.786 353.988C388.216 354.249 388.738 354.52 389.354 354.8C389.97 355.061 390.642 355.285 391.37 355.472C392.098 355.659 392.836 355.752 393.582 355.752C394.628 355.752 395.421 355.575 395.962 355.22C396.504 354.865 396.774 354.361 396.774 353.708C396.774 353.111 396.56 352.644 396.13 352.308C395.701 351.972 395.104 351.683 394.338 351.44C393.573 351.179 392.668 350.899 391.622 350.6C390.372 350.245 389.326 349.853 388.486 349.424C387.646 348.976 387.021 348.416 386.61 347.744C386.2 347.072 385.994 346.232 385.994 345.224C385.994 343.861 386.312 342.723 386.946 341.808C387.6 340.875 388.477 340.175 389.578 339.708C390.68 339.223 391.902 338.98 393.246 338.98C394.18 338.98 395.057 339.083 395.878 339.288C396.718 339.493 397.502 339.764 398.23 340.1C398.958 340.436 399.612 340.8 400.19 341.192L398.482 344.328ZM417.614 355.612V359H403.81V339.12H417.362V342.508H407.674V347.296H416.046V350.432H407.674V355.612H417.614ZM420.627 359V339.12H429.055C429.969 339.12 430.809 339.307 431.575 339.68C432.34 340.053 433.003 340.557 433.563 341.192C434.141 341.827 434.589 342.536 434.907 343.32C435.224 344.104 435.383 344.907 435.383 345.728C435.383 346.848 435.121 347.912 434.599 348.92C434.076 349.928 433.357 350.749 432.443 351.384C431.528 352.019 430.445 352.336 429.195 352.336H424.491V359H420.627ZM424.491 348.948H428.971C429.437 348.948 429.857 348.817 430.231 348.556C430.604 348.295 430.903 347.921 431.127 347.436C431.351 346.932 431.463 346.363 431.463 345.728C431.463 345.037 431.332 344.449 431.071 343.964C430.828 343.479 430.501 343.115 430.091 342.872C429.699 342.629 429.269 342.508 428.803 342.508H424.491V348.948ZM452.94 342.508H446.584V359H442.748V342.508H436.392V339.12H452.94V342.508ZM469.212 355.612V359H455.408V339.12H468.96V342.508H459.272V347.296H467.644V350.432H459.272V355.612H469.212ZM488.436 359V345.952L483.34 355.668H481.184L476.088 345.952V359H472.224V339.12H476.368L482.248 350.432L488.184 339.12H492.3V359H488.436ZM512.467 353.876C512.467 354.996 512.178 355.939 511.599 356.704C511.02 357.451 510.236 358.02 509.247 358.412C508.276 358.804 507.212 359 506.055 359H496.451V339.12H507.091C508.024 339.12 508.827 339.372 509.499 339.876C510.19 340.361 510.712 340.996 511.067 341.78C511.44 342.545 511.627 343.348 511.627 344.188C511.627 345.14 511.384 346.045 510.899 346.904C510.414 347.763 509.704 348.397 508.771 348.808C509.91 349.144 510.806 349.751 511.459 350.628C512.131 351.505 512.467 352.588 512.467 353.876ZM508.575 353.148C508.575 352.644 508.472 352.196 508.267 351.804C508.062 351.393 507.782 351.076 507.427 350.852C507.091 350.609 506.699 350.488 506.251 350.488H500.315V355.724H506.055C506.522 355.724 506.942 355.612 507.315 355.388C507.707 355.145 508.015 354.828 508.239 354.436C508.463 354.044 508.575 353.615 508.575 353.148ZM500.315 342.424V347.436H505.467C505.896 347.436 506.288 347.333 506.643 347.128C506.998 346.923 507.278 346.633 507.483 346.26C507.707 345.887 507.819 345.439 507.819 344.916C507.819 344.412 507.716 343.973 507.511 343.6C507.324 343.227 507.063 342.937 506.727 342.732C506.41 342.527 506.046 342.424 505.635 342.424H500.315ZM529.286 355.612V359H515.482V339.12H529.034V342.508H519.346V347.296H527.718V350.432H519.346V355.612H529.286ZM532.299 359V339.12H541.091C542.005 339.12 542.845 339.307 543.611 339.68C544.395 340.053 545.067 340.557 545.627 341.192C546.205 341.827 546.644 342.536 546.943 343.32C547.26 344.104 547.419 344.907 547.419 345.728C547.419 346.568 547.269 347.38 546.971 348.164C546.691 348.929 546.28 349.601 545.739 350.18C545.197 350.759 544.563 351.207 543.835 351.524L548.371 359H544.115L540.027 352.336H536.163V359H532.299ZM536.163 348.948H541.007C541.492 348.948 541.921 348.808 542.295 348.528C542.668 348.229 542.967 347.837 543.191 347.352C543.415 346.867 543.527 346.325 543.527 345.728C543.527 345.093 543.396 344.543 543.135 344.076C542.873 343.591 542.537 343.208 542.127 342.928C541.735 342.648 541.305 342.508 540.839 342.508H536.163V348.948ZM566.084 338.636V359H561.779V342.723H561.659L556.996 345.646V341.828L562.037 338.636H566.084ZM579.783 338.636V359H575.478V342.723H575.359L570.695 345.646V341.828L575.737 338.636H579.783ZM594.179 347.138V350.499H584.892V347.138H594.179ZM606.608 338.636V359H602.302V342.723H602.183L597.52 345.646V341.828L602.561 338.636H606.608ZM611.447 359V355.898L618.696 349.186C619.313 348.589 619.83 348.053 620.247 347.575C620.671 347.098 620.993 346.631 621.212 346.173C621.43 345.709 621.54 345.209 621.54 344.672C621.54 344.075 621.404 343.562 621.132 343.131C620.86 342.693 620.489 342.358 620.018 342.126C619.548 341.888 619.014 341.768 618.418 341.768C617.795 341.768 617.251 341.894 616.787 342.146C616.323 342.398 615.965 342.759 615.713 343.23C615.461 343.701 615.335 344.261 615.335 344.911H611.249C611.249 343.578 611.55 342.421 612.153 341.44C612.757 340.459 613.602 339.7 614.689 339.163C615.776 338.626 617.029 338.358 618.447 338.358C619.906 338.358 621.175 338.616 622.256 339.134C623.343 339.644 624.188 340.353 624.791 341.261C625.394 342.17 625.696 343.21 625.696 344.384C625.696 345.152 625.544 345.911 625.239 346.661C624.94 347.41 624.407 348.241 623.638 349.156C622.869 350.064 621.785 351.155 620.386 352.428L617.413 355.341V355.48H625.964V359H611.447Z" fill="white"/>
<path opacity="0.75" d="M477.661 388V377.88L473.481 385.56H472.161L467.961 377.88V388H465.721V373.8H468.121L472.821 382.48L477.521 373.8H479.921V388H477.661ZM489.043 388.1C487.91 388.1 486.95 387.907 486.163 387.52C485.39 387.133 484.763 386.607 484.283 385.94C483.817 385.273 483.47 384.513 483.243 383.66C483.03 382.807 482.923 381.92 482.923 381V373.8H485.163V381C485.163 381.653 485.23 382.287 485.363 382.9C485.497 383.5 485.71 384.04 486.003 384.52C486.297 385 486.69 385.38 487.183 385.66C487.69 385.94 488.31 386.08 489.043 386.08C489.79 386.08 490.41 385.94 490.903 385.66C491.41 385.367 491.803 384.98 492.083 384.5C492.377 384.007 492.59 383.46 492.723 382.86C492.857 382.26 492.923 381.64 492.923 381V373.8H495.183V381C495.183 381.973 495.063 382.893 494.823 383.76C494.597 384.613 494.237 385.367 493.743 386.02C493.263 386.66 492.637 387.167 491.863 387.54C491.09 387.913 490.15 388.1 489.043 388.1ZM500.403 377.96V388H498.163V373.8H500.003L508.043 384.06V373.82H510.303V388H508.343L500.403 377.96ZM513.495 388V373.8H515.735V388H513.495ZM518.044 380.8C518.044 379.933 518.197 379.087 518.504 378.26C518.81 377.42 519.257 376.66 519.844 375.98C520.444 375.287 521.17 374.74 522.024 374.34C522.877 373.927 523.844 373.72 524.924 373.72C526.204 373.72 527.31 374.013 528.244 374.6C529.177 375.173 529.87 375.913 530.324 376.82L528.564 378C528.297 377.427 527.957 376.973 527.544 376.64C527.144 376.307 526.704 376.073 526.224 375.94C525.757 375.807 525.297 375.74 524.844 375.74C524.097 375.74 523.444 375.893 522.884 376.2C522.324 376.493 521.85 376.887 521.464 377.38C521.09 377.873 520.804 378.427 520.604 379.04C520.417 379.653 520.324 380.267 520.324 380.88C520.324 381.56 520.437 382.22 520.664 382.86C520.89 383.487 521.204 384.047 521.604 384.54C522.017 385.02 522.504 385.4 523.064 385.68C523.624 385.96 524.237 386.1 524.904 386.1C525.357 386.1 525.83 386.02 526.324 385.86C526.817 385.7 527.27 385.453 527.684 385.12C528.11 384.773 528.444 384.32 528.684 383.76L530.544 384.82C530.25 385.527 529.79 386.127 529.164 386.62C528.55 387.113 527.857 387.487 527.084 387.74C526.324 387.993 525.57 388.12 524.824 388.12C523.824 388.12 522.91 387.913 522.084 387.5C521.257 387.073 520.544 386.513 519.944 385.82C519.344 385.113 518.877 384.327 518.544 383.46C518.21 382.58 518.044 381.693 518.044 380.8ZM544.276 373.8V388H542.016V381.74H534.856V388H532.616V373.8H534.856V379.74H542.016V373.8H544.276Z" fill="white"/>
</g>
<defs>
<filter id="filter0_f_725_24859" x="-335.385" y="-153.49" width="1547.61" height="1009.68" filterUnits="userSpaceOnUse" color-interpolation-filters="sRGB">
<feFlood flood-opacity="0" result="BackgroundImageFix"/>
<feBlend mode="normal" in="SourceGraphic" in2="BackgroundImageFix" result="shape"/>
<feGaussianBlur stdDeviation="60" result="effect1_foregroundBlur_725_24859"/>
</filter>
<linearGradient id="paint0_linear_725_24859" x1="-28.4479" y1="-88.3223" x2="1593.75" y2="317.592" gradientUnits="userSpaceOnUse">
<stop stop-color="#00EBFF"/>
<stop offset="0.5" stop-color="#6F3DE2"/>
<stop offset="1" stop-color="#FFB6EC"/>
</linearGradient>
<linearGradient id="paint1_linear_725_24859" x1="-96.17" y1="81.2318" x2="1545.52" y2="-242.386" gradientUnits="userSpaceOnUse">
<stop stop-color="#00EBFF"/>
<stop offset="0.5" stop-color="#6F3DE2"/>
<stop offset="1" stop-color="#FFB6EC"/>
</linearGradient>
<linearGradient id="paint2_linear_725_24859" x1="-99.4938" y1="66.094" x2="1556.88" y2="-171.161" gradientUnits="userSpaceOnUse">
<stop stop-color="#00EBFF"/>
<stop offset="0.5" stop-color="#6F3DE2"/>
<stop offset="1" stop-color="#FFB6EC"/>
</linearGradient>
<linearGradient id="paint3_linear_725_24859" x1="-102.624" y1="50.9952" x2="1563.9" y2="-99.2468" gradientUnits="userSpaceOnUse">
<stop stop-color="#00EBFF"/>
<stop offset="0.5" stop-color="#6F3DE2"/>
<stop offset="1" stop-color="#FFB6EC"/>
</linearGradient>
<linearGradient id="paint4_linear_725_24859" x1="-105.564" y1="35.9451" x2="1566.54" y2="-26.8717" gradientUnits="userSpaceOnUse">
<stop stop-color="#00EBFF"/>
<stop offset="0.5" stop-color="#6F3DE2"/>
<stop offset="1" stop-color="#FFB6EC"/>
</linearGradient>
<linearGradient id="paint5_linear_725_24859" x1="-108.316" y1="20.9539" x2="1564.78" y2="45.7343" gradientUnits="userSpaceOnUse">
<stop stop-color="#00EBFF"/>
<stop offset="0.5" stop-color="#6F3DE2"/>
<stop offset="1" stop-color="#FFB6EC"/>
</linearGradient>
<linearGradient id="paint6_linear_725_24859" x1="-110.883" y1="6.03113" x2="1558.63" y2="118.341" gradientUnits="userSpaceOnUse">
<stop stop-color="#00EBFF"/>
<stop offset="0.5" stop-color="#6F3DE2"/>
<stop offset="1" stop-color="#FFB6EC"/>
</linearGradient>
<linearGradient id="paint7_linear_725_24859" x1="647.119" y1="268.608" x2="719.947" y2="320.485" gradientUnits="userSpaceOnUse">
<stop stop-color="#00EBFF"/>
<stop offset="0.5" stop-color="#6F3DE2"/>
<stop offset="1" stop-color="#FFB6EC"/>
</linearGradient>
<linearGradient id="paint8_linear_725_24859" x1="646.122" y1="268.01" x2="721.344" y2="318.49" gradientUnits="userSpaceOnUse">
<stop stop-color="#00EBFF"/>
<stop offset="0.5" stop-color="#6F3DE2"/>
<stop offset="1" stop-color="#FFB6EC"/>
</linearGradient>
<clipPath id="clip0_725_24859">
<rect width="1000" height="500" fill="white"/>
</clipPath>
</defs>
</svg>
